%TF.GenerationSoftware,KiCad,Pcbnew,10.0.4*%
%TF.CreationDate,2026-08-12T00:17:03+04:00*%
%TF.ProjectId,UNIVERSAL-2CH-F103-IC,554e4956-4552-4534-914c-2d3243482d46,rev?*%
%TF.SameCoordinates,Original*%
%TF.FileFunction,Paste,Bot*%
%TF.FilePolarity,Positive*%
%FSLAX46Y46*%
G04 Gerber Fmt 4.6, Leading zero omitted, Abs format (unit mm)*
G04 Created by KiCad (PCBNEW 10.0.4) date 2026-08-12 00:17:03*
%MOMM*%
%LPD*%
G01*
G04 APERTURE LIST*
G04 Aperture macros list*
%AMRoundRect*
0 Rectangle with rounded corners*
0 $1 Rounding radius*
0 $2 $3 $4 $5 $6 $7 $8 $9 X,Y pos of 4 corners*
0 Add a 4 corners polygon primitive as box body*
4,1,4,$2,$3,$4,$5,$6,$7,$8,$9,$2,$3,0*
0 Add four circle primitives for the rounded corners*
1,1,$1+$1,$2,$3*
1,1,$1+$1,$4,$5*
1,1,$1+$1,$6,$7*
1,1,$1+$1,$8,$9*
0 Add four rect primitives between the rounded corners*
20,1,$1+$1,$2,$3,$4,$5,0*
20,1,$1+$1,$4,$5,$6,$7,0*
20,1,$1+$1,$6,$7,$8,$9,0*
20,1,$1+$1,$8,$9,$2,$3,0*%
G04 Aperture macros list end*
%ADD10RoundRect,0.200000X0.275000X-0.200000X0.275000X0.200000X-0.275000X0.200000X-0.275000X-0.200000X0*%
%ADD11RoundRect,0.200000X0.200000X0.275000X-0.200000X0.275000X-0.200000X-0.275000X0.200000X-0.275000X0*%
%ADD12RoundRect,0.250000X0.325000X0.650000X-0.325000X0.650000X-0.325000X-0.650000X0.325000X-0.650000X0*%
%ADD13RoundRect,0.225000X0.225000X0.250000X-0.225000X0.250000X-0.225000X-0.250000X0.225000X-0.250000X0*%
%ADD14RoundRect,0.150000X0.587500X0.150000X-0.587500X0.150000X-0.587500X-0.150000X0.587500X-0.150000X0*%
%ADD15RoundRect,0.250000X0.295000X0.295000X-0.295000X0.295000X-0.295000X-0.295000X0.295000X-0.295000X0*%
%ADD16RoundRect,0.062500X0.350000X0.062500X-0.350000X0.062500X-0.350000X-0.062500X0.350000X-0.062500X0*%
%ADD17RoundRect,0.062500X0.062500X0.350000X-0.062500X0.350000X-0.062500X-0.350000X0.062500X-0.350000X0*%
%ADD18RoundRect,0.250000X0.250000X0.475000X-0.250000X0.475000X-0.250000X-0.475000X0.250000X-0.475000X0*%
%ADD19RoundRect,0.075000X0.662500X0.075000X-0.662500X0.075000X-0.662500X-0.075000X0.662500X-0.075000X0*%
%ADD20RoundRect,0.075000X0.075000X0.662500X-0.075000X0.662500X-0.075000X-0.662500X0.075000X-0.662500X0*%
%ADD21RoundRect,0.375000X0.625000X0.375000X-0.625000X0.375000X-0.625000X-0.375000X0.625000X-0.375000X0*%
%ADD22RoundRect,0.500000X0.500000X1.400000X-0.500000X1.400000X-0.500000X-1.400000X0.500000X-1.400000X0*%
%ADD23RoundRect,0.225000X0.250000X-0.225000X0.250000X0.225000X-0.250000X0.225000X-0.250000X-0.225000X0*%
%ADD24RoundRect,0.150000X0.150000X-0.512500X0.150000X0.512500X-0.150000X0.512500X-0.150000X-0.512500X0*%
%ADD25RoundRect,0.050000X0.525000X0.450000X-0.525000X0.450000X-0.525000X-0.450000X0.525000X-0.450000X0*%
%ADD26RoundRect,0.112500X0.112500X-0.187500X0.112500X0.187500X-0.112500X0.187500X-0.112500X-0.187500X0*%
%ADD27RoundRect,0.250000X-1.000000X-0.650000X1.000000X-0.650000X1.000000X0.650000X-1.000000X0.650000X0*%
%ADD28RoundRect,0.250000X1.000000X0.900000X-1.000000X0.900000X-1.000000X-0.900000X1.000000X-0.900000X0*%
%ADD29RoundRect,0.250000X0.312500X0.625000X-0.312500X0.625000X-0.312500X-0.625000X0.312500X-0.625000X0*%
%ADD30RoundRect,0.250000X-1.000000X-0.900000X1.000000X-0.900000X1.000000X0.900000X-1.000000X0.900000X0*%
%ADD31RoundRect,0.250000X0.450000X0.350000X-0.450000X0.350000X-0.450000X-0.350000X0.450000X-0.350000X0*%
%ADD32R,1.350000X0.660000*%
%ADD33R,5.250000X10.300000*%
%ADD34R,5.250000X6.230000*%
%ADD35RoundRect,0.150000X0.825000X0.150000X-0.825000X0.150000X-0.825000X-0.150000X0.825000X-0.150000X0*%
G04 APERTURE END LIST*
D10*
%TO.C,R2301*%
X58000000Y-76825000D03*
X58000000Y-75175000D03*
%TD*%
D11*
%TO.C,R1110*%
X31325000Y-52000000D03*
X29675000Y-52000000D03*
%TD*%
D12*
%TO.C,C238*%
X69475000Y-84000000D03*
X66525000Y-84000000D03*
%TD*%
D10*
%TO.C,R261*%
X72000000Y-54825000D03*
X72000000Y-53175000D03*
%TD*%
D13*
%TO.C,C1103*%
X27275000Y-45000000D03*
X25725000Y-45000000D03*
%TD*%
D14*
%TO.C,D1201*%
X75437500Y-44050000D03*
X75437500Y-45950000D03*
X73562500Y-45000000D03*
%TD*%
D12*
%TO.C,C234*%
X49475000Y-78000000D03*
X46525000Y-78000000D03*
%TD*%
D15*
%TO.C,CAP1*%
X79675000Y-61675000D03*
X79675000Y-60325000D03*
X78325000Y-61675000D03*
X78325000Y-60325000D03*
D16*
X80962500Y-59750000D03*
X80962500Y-60250000D03*
X80962500Y-60750000D03*
X80962500Y-61250000D03*
X80962500Y-61750000D03*
X80962500Y-62250000D03*
D17*
X80250000Y-62962500D03*
X79750000Y-62962500D03*
X79250000Y-62962500D03*
X78750000Y-62962500D03*
X78250000Y-62962500D03*
X77750000Y-62962500D03*
D16*
X77037500Y-62250000D03*
X77037500Y-61750000D03*
X77037500Y-61250000D03*
X77037500Y-60750000D03*
X77037500Y-60250000D03*
X77037500Y-59750000D03*
D17*
X77750000Y-59037500D03*
X78250000Y-59037500D03*
X78750000Y-59037500D03*
X79250000Y-59037500D03*
X79750000Y-59037500D03*
X80250000Y-59037500D03*
%TD*%
D11*
%TO.C,R209*%
X74825000Y-67000000D03*
X73175000Y-67000000D03*
%TD*%
%TO.C,R270*%
X65825000Y-77000000D03*
X64175000Y-77000000D03*
%TD*%
D13*
%TO.C,C3001*%
X40775000Y-55000000D03*
X39225000Y-55000000D03*
%TD*%
%TO.C,C3004*%
X52775000Y-60000000D03*
X51225000Y-60000000D03*
%TD*%
D11*
%TO.C,R1209*%
X63325000Y-52000000D03*
X61675000Y-52000000D03*
%TD*%
D12*
%TO.C,C231*%
X71475000Y-88000000D03*
X68525000Y-88000000D03*
%TD*%
D13*
%TO.C,C239*%
X62775000Y-86000000D03*
X61225000Y-86000000D03*
%TD*%
D11*
%TO.C,R1106*%
X35325000Y-48500000D03*
X33675000Y-48500000D03*
%TD*%
%TO.C,R1204*%
X63325000Y-48500000D03*
X61675000Y-48500000D03*
%TD*%
D13*
%TO.C,C3002*%
X50775000Y-55000000D03*
X49225000Y-55000000D03*
%TD*%
%TO.C,C3006*%
X52775000Y-68000000D03*
X51225000Y-68000000D03*
%TD*%
D11*
%TO.C,R1206*%
X71325000Y-48500000D03*
X69675000Y-48500000D03*
%TD*%
D10*
%TO.C,R260*%
X74500000Y-54825000D03*
X74500000Y-53175000D03*
%TD*%
D18*
%TO.C,C341*%
X73950000Y-61000000D03*
X72050000Y-61000000D03*
%TD*%
D13*
%TO.C,C237*%
X62775000Y-78000000D03*
X61225000Y-78000000D03*
%TD*%
%TO.C,C3005*%
X52775000Y-64000000D03*
X51225000Y-64000000D03*
%TD*%
D11*
%TO.C,R1210*%
X67325000Y-52000000D03*
X65675000Y-52000000D03*
%TD*%
D13*
%TO.C,C232*%
X73775000Y-80000000D03*
X72225000Y-80000000D03*
%TD*%
D19*
%TO.C,U300*%
X49162500Y-61250000D03*
X49162500Y-61750000D03*
X49162500Y-62250000D03*
X49162500Y-62750000D03*
X49162500Y-63250000D03*
X49162500Y-63750000D03*
X49162500Y-64250000D03*
X49162500Y-64750000D03*
X49162500Y-65250000D03*
X49162500Y-65750000D03*
X49162500Y-66250000D03*
X49162500Y-66750000D03*
D20*
X47750000Y-68162500D03*
X47250000Y-68162500D03*
X46750000Y-68162500D03*
X46250000Y-68162500D03*
X45750000Y-68162500D03*
X45250000Y-68162500D03*
X44750000Y-68162500D03*
X44250000Y-68162500D03*
X43750000Y-68162500D03*
X43250000Y-68162500D03*
X42750000Y-68162500D03*
X42250000Y-68162500D03*
D19*
X40837500Y-66750000D03*
X40837500Y-66250000D03*
X40837500Y-65750000D03*
X40837500Y-65250000D03*
X40837500Y-64750000D03*
X40837500Y-64250000D03*
X40837500Y-63750000D03*
X40837500Y-63250000D03*
X40837500Y-62750000D03*
X40837500Y-62250000D03*
X40837500Y-61750000D03*
X40837500Y-61250000D03*
D20*
X42250000Y-59837500D03*
X42750000Y-59837500D03*
X43250000Y-59837500D03*
X43750000Y-59837500D03*
X44250000Y-59837500D03*
X44750000Y-59837500D03*
X45250000Y-59837500D03*
X45750000Y-59837500D03*
X46250000Y-59837500D03*
X46750000Y-59837500D03*
X47250000Y-59837500D03*
X47750000Y-59837500D03*
%TD*%
D21*
%TO.C,U230*%
X58150000Y-79700000D03*
X58150000Y-82000000D03*
D22*
X51850000Y-82000000D03*
D21*
X58150000Y-84300000D03*
%TD*%
D13*
%TO.C,C3003*%
X38775000Y-64000000D03*
X37225000Y-64000000D03*
%TD*%
D18*
%TO.C,C3007*%
X52950000Y-72000000D03*
X51050000Y-72000000D03*
%TD*%
D11*
%TO.C,R1107*%
X39325000Y-48500000D03*
X37675000Y-48500000D03*
%TD*%
%TO.C,R1104*%
X27325000Y-48500000D03*
X25675000Y-48500000D03*
%TD*%
%TO.C,R1103*%
X23325000Y-48500000D03*
X21675000Y-48500000D03*
%TD*%
D23*
%TO.C,C271*%
X76000000Y-75775000D03*
X76000000Y-74225000D03*
%TD*%
D10*
%TO.C,R203*%
X85000000Y-68825000D03*
X85000000Y-67175000D03*
%TD*%
D13*
%TO.C,C1202*%
X59275000Y-45000000D03*
X57725000Y-45000000D03*
%TD*%
%TO.C,C340*%
X75775000Y-57000000D03*
X74225000Y-57000000D03*
%TD*%
D24*
%TO.C,U270*%
X69950000Y-74137500D03*
X69000000Y-74137500D03*
X68050000Y-74137500D03*
X68050000Y-71862500D03*
X69000000Y-71862500D03*
X69950000Y-71862500D03*
%TD*%
D11*
%TO.C,R1101*%
X31325000Y-45000000D03*
X29675000Y-45000000D03*
%TD*%
D25*
%TO.C,L240*%
X31365000Y-81160000D03*
X31365000Y-84840000D03*
X29635000Y-84840000D03*
X29635000Y-81160000D03*
%TD*%
D11*
%TO.C,R272*%
X73825000Y-77000000D03*
X72175000Y-77000000D03*
%TD*%
%TO.C,R3001*%
X38825000Y-60000000D03*
X37175000Y-60000000D03*
%TD*%
%TO.C,R3002*%
X38825000Y-68000000D03*
X37175000Y-68000000D03*
%TD*%
D26*
%TO.C,D241*%
X29000000Y-90000000D03*
X29000000Y-87900000D03*
%TD*%
D13*
%TO.C,C250*%
X73275000Y-50000000D03*
X71725000Y-50000000D03*
%TD*%
D14*
%TO.C,D1101*%
X39437500Y-44050000D03*
X39437500Y-45950000D03*
X37562500Y-45000000D03*
%TD*%
D13*
%TO.C,C1203*%
X63275000Y-45000000D03*
X61725000Y-45000000D03*
%TD*%
D11*
%TO.C,R271*%
X69825000Y-77000000D03*
X68175000Y-77000000D03*
%TD*%
D27*
%TO.C,D280*%
X33000000Y-89000000D03*
X37000000Y-89000000D03*
%TD*%
D23*
%TO.C,C270*%
X65000000Y-73775000D03*
X65000000Y-72225000D03*
%TD*%
D13*
%TO.C,C235*%
X48775000Y-82000000D03*
X47225000Y-82000000D03*
%TD*%
D28*
%TO.C,D231*%
X80150000Y-86000000D03*
X75850000Y-86000000D03*
%TD*%
D11*
%TO.C,R1203*%
X59325000Y-48500000D03*
X57675000Y-48500000D03*
%TD*%
D26*
%TO.C,D240*%
X25500000Y-90050000D03*
X25500000Y-87950000D03*
%TD*%
D12*
%TO.C,C236*%
X49475000Y-86000000D03*
X46525000Y-86000000D03*
%TD*%
D29*
%TO.C,R240*%
X36962500Y-77500000D03*
X34037500Y-77500000D03*
%TD*%
D11*
%TO.C,R1108*%
X23325000Y-52000000D03*
X21675000Y-52000000D03*
%TD*%
%TO.C,R1105*%
X31325000Y-48500000D03*
X29675000Y-48500000D03*
%TD*%
D30*
%TO.C,D230*%
X49850000Y-91000000D03*
X54150000Y-91000000D03*
%TD*%
D11*
%TO.C,R1207*%
X75325000Y-48500000D03*
X73675000Y-48500000D03*
%TD*%
D31*
%TO.C,Y300*%
X46100000Y-55850000D03*
X43900000Y-55850000D03*
X43900000Y-54150000D03*
X46100000Y-54150000D03*
%TD*%
D32*
%TO.C,U2*%
X75625000Y-23000000D03*
X75625000Y-24000000D03*
X75625000Y-25000000D03*
X75625000Y-26000000D03*
X75625000Y-27000000D03*
X75625000Y-28000000D03*
X75625000Y-29000000D03*
X75625000Y-30000000D03*
X75625000Y-31000000D03*
X75625000Y-32000000D03*
X75625000Y-33000000D03*
X75625000Y-34000000D03*
X75625000Y-35000000D03*
X75625000Y-36000000D03*
X75625000Y-37000000D03*
X57375000Y-37000000D03*
X57375000Y-36000000D03*
X57375000Y-35000000D03*
X57375000Y-34000000D03*
X57375000Y-33000000D03*
X57375000Y-32000000D03*
X57375000Y-31000000D03*
X57375000Y-30000000D03*
X57375000Y-29000000D03*
X57375000Y-28000000D03*
X57375000Y-27000000D03*
X57375000Y-26000000D03*
X57375000Y-25000000D03*
X57375000Y-24000000D03*
X57375000Y-23000000D03*
D33*
X69550000Y-30000000D03*
D34*
X63450000Y-34165000D03*
X63450000Y-25835000D03*
%TD*%
D11*
%TO.C,R1205*%
X67325000Y-48500000D03*
X65675000Y-48500000D03*
%TD*%
D10*
%TO.C,R201*%
X85100000Y-49825000D03*
X85100000Y-48175000D03*
%TD*%
D11*
%TO.C,R1102*%
X35325000Y-45000000D03*
X33675000Y-45000000D03*
%TD*%
%TO.C,R1208*%
X59325000Y-52000000D03*
X57675000Y-52000000D03*
%TD*%
D10*
%TO.C,R262*%
X72000000Y-58825000D03*
X72000000Y-57175000D03*
%TD*%
D35*
%TO.C,U250*%
X68475000Y-55595000D03*
X68475000Y-56865000D03*
X68475000Y-58135000D03*
X68475000Y-59405000D03*
X63525000Y-59405000D03*
X63525000Y-58135000D03*
X63525000Y-56865000D03*
X63525000Y-55595000D03*
%TD*%
D11*
%TO.C,R1109*%
X27325000Y-52000000D03*
X25675000Y-52000000D03*
%TD*%
D10*
%TO.C,R202*%
X85000000Y-59325000D03*
X85000000Y-57675000D03*
%TD*%
D11*
%TO.C,R1201*%
X67325000Y-45000000D03*
X65675000Y-45000000D03*
%TD*%
D32*
%TO.C,U1*%
X39625000Y-23000000D03*
X39625000Y-24000000D03*
X39625000Y-25000000D03*
X39625000Y-26000000D03*
X39625000Y-27000000D03*
X39625000Y-28000000D03*
X39625000Y-29000000D03*
X39625000Y-30000000D03*
X39625000Y-31000000D03*
X39625000Y-32000000D03*
X39625000Y-33000000D03*
X39625000Y-34000000D03*
X39625000Y-35000000D03*
X39625000Y-36000000D03*
X39625000Y-37000000D03*
X21375000Y-37000000D03*
X21375000Y-36000000D03*
X21375000Y-35000000D03*
X21375000Y-34000000D03*
X21375000Y-33000000D03*
X21375000Y-32000000D03*
X21375000Y-31000000D03*
X21375000Y-30000000D03*
X21375000Y-29000000D03*
X21375000Y-28000000D03*
X21375000Y-27000000D03*
X21375000Y-26000000D03*
X21375000Y-25000000D03*
X21375000Y-24000000D03*
X21375000Y-23000000D03*
D33*
X33550000Y-30000000D03*
D34*
X27450000Y-34165000D03*
X27450000Y-25835000D03*
%TD*%
D13*
%TO.C,C1102*%
X23275000Y-45000000D03*
X21725000Y-45000000D03*
%TD*%
D11*
%TO.C,R1202*%
X71325000Y-45000000D03*
X69675000Y-45000000D03*
%TD*%
D23*
%TO.C,C3008*%
X57500000Y-73275000D03*
X57500000Y-71725000D03*
%TD*%
D11*
%TO.C,R210*%
X74825000Y-71000000D03*
X73175000Y-71000000D03*
%TD*%
M02*
