M48
; DRILL file KiCad 10.0.4 date 2026-07-21T23:52:46
; FORMAT={-:-/ absolute / metric / decimal}
; #@! TF.CreationDate,2026-07-21T23:52:46+04:00
; #@! TF.GenerationSoftware,Kicad,Pcbnew,10.0.4
; #@! TF.FileFunction,Plated,1,4,PTH
FMAT,2
METRIC
; #@! TA.AperFunction,Plated,PTH,ViaDrill
T1C0.300
; #@! TA.AperFunction,Plated,PTH,ViaDrill
T2C0.350
; #@! TA.AperFunction,Plated,PTH,ViaDrill
T3C0.400
; #@! TA.AperFunction,Plated,PTH,ViaDrill
T4C0.600
; #@! TA.AperFunction,Plated,PTH,ComponentDrill
T5C0.800
; #@! TA.AperFunction,Plated,PTH,ComponentDrill
T6C1.000
; #@! TA.AperFunction,Plated,PTH,ComponentDrill
T7C1.170
; #@! TA.AperFunction,Plated,PTH,ComponentDrill
T8C1.200
; #@! TA.AperFunction,Plated,PTH,ComponentDrill
T9C1.300
; #@! TA.AperFunction,Plated,PTH,ComponentDrill
T10C1.700
%
G90
G05
T1
X14.68Y-147.007
X14.715Y-62.88
X15.726Y-125.983
X15.816Y-67.629
X15.956Y-62.906
X16.698Y-37.358
X17.356Y-37.996
X17.412Y-65.962
X18.226Y-64.305
X18.723Y-115.258
X18.723Y-137.85
X18.723Y-149.716
X19.55Y-32.0
X19.55Y-34.0
X19.55Y-36.0
X19.55Y-38.0
X20.95Y-32.0
X20.95Y-34.0
X20.95Y-36.0
X20.95Y-38.0
X22.332Y-149.716
X22.35Y-32.0
X22.35Y-34.0
X22.35Y-36.0
X22.35Y-38.0
X25.65Y-29.435
X25.65Y-30.835
X25.65Y-32.235
X25.65Y-37.765
X25.65Y-39.165
X25.65Y-40.565
X27.05Y-29.435
X27.05Y-30.835
X27.05Y-32.235
X27.05Y-37.765
X27.05Y-39.165
X27.05Y-40.565
X28.314Y-113.716
X28.45Y-29.435
X28.45Y-30.835
X28.45Y-32.235
X28.45Y-37.765
X28.45Y-39.165
X28.45Y-40.565
X28.825Y-64.0
X30.409Y-116.2
X31.634Y-137.632
X34.295Y-123.016
X36.075Y-115.793
X36.174Y-37.229
X38.004Y-64.645
X38.436Y-115.991
X40.16Y-59.911
X40.277Y-72.886
X40.277Y-113.124
X40.277Y-117.083
X40.279Y-120.05
X41.0Y-155.0
X41.175Y-72.686
X43.268Y-113.716
X43.444Y-152.998
X45.246Y-62.861
X45.269Y-120.183
X46.258Y-113.715
X46.652Y-37.358
X48.352Y-113.942
X48.44Y-111.341
X49.122Y-116.955
X49.25Y-135.242
X49.25Y-152.998
X49.55Y-32.0
X49.55Y-34.0
X49.55Y-36.0
X49.55Y-38.0
X49.743Y-112.381
X49.85Y-72.874
X50.048Y-119.971
X50.95Y-32.0
X50.95Y-34.0
X50.95Y-36.0
X50.95Y-38.0
X51.0Y-70.0
X51.0Y-124.0
X52.241Y-74.783
X52.241Y-113.969
X52.242Y-117.086
X52.35Y-32.0
X52.35Y-34.0
X52.35Y-36.0
X52.35Y-38.0
X53.073Y-116.258
X55.0Y-71.0
X55.249Y-116.31
X55.65Y-29.435
X55.65Y-30.835
X55.65Y-32.235
X55.65Y-37.765
X55.65Y-39.165
X55.65Y-40.565
X57.05Y-29.435
X57.05Y-30.835
X57.05Y-32.235
X57.05Y-37.765
X57.05Y-39.165
X57.05Y-40.565
X58.054Y-115.984
X58.45Y-29.435
X58.45Y-30.835
X58.45Y-32.235
X58.45Y-37.765
X58.45Y-39.165
X58.45Y-40.565
X59.02Y-119.927
X59.064Y-116.321
X60.095Y-138.596
X60.246Y-64.645
X61.217Y-135.242
X61.277Y-114.068
X62.0Y-146.0
X63.372Y-115.747
X66.253Y-37.247
X66.364Y-72.861
X67.0Y-119.0
X69.0Y-123.5
X69.0Y-152.5
X70.186Y-63.037
X71.0Y-119.0
X72.278Y-63.037
X75.07Y-132.097
X76.607Y-37.358
X76.894Y-134.883
X79.55Y-32.0
X79.55Y-34.0
X79.55Y-36.0
X79.55Y-38.0
X79.782Y-66.321
X80.0Y-135.0
X80.95Y-32.0
X80.95Y-34.0
X80.95Y-36.0
X80.95Y-38.0
X82.0Y-121.0
X82.15Y-70.099
X82.35Y-32.0
X82.35Y-34.0
X82.35Y-36.0
X82.35Y-38.0
X83.0Y-67.0
X84.0Y-70.0
X85.141Y-73.0
X85.65Y-29.435
X85.65Y-30.835
X85.65Y-32.235
X85.65Y-37.765
X85.65Y-39.165
X85.65Y-40.565
X86.038Y-139.077
X86.655Y-135.118
X87.05Y-29.435
X87.05Y-30.835
X87.05Y-32.235
X87.05Y-37.765
X87.05Y-39.165
X87.05Y-40.565
X87.5Y-68.0
X87.63Y-134.032
X88.0Y-64.645
X88.45Y-29.435
X88.45Y-30.835
X88.45Y-32.235
X88.45Y-37.765
X88.45Y-39.165
X88.45Y-40.565
X88.825Y-64.0
X89.5Y-134.5
X92.825Y-64.0
X93.048Y-131.866
X93.477Y-128.88
X94.5Y-70.0
X96.175Y-113.916
X96.294Y-155.722
X97.041Y-113.716
X100.038Y-155.779
X100.779Y-139.023
X100.839Y-73.613
X101.8Y-95.0
X102.374Y-108.183
X103.086Y-73.013
X103.5Y-120.0
X104.202Y-115.892
X104.221Y-74.552
X104.899Y-62.861
X106.075Y-113.128
X106.077Y-73.394
X106.077Y-135.203
X106.561Y-37.358
X108.161Y-114.112
X108.449Y-113.125
X109.068Y-129.279
X109.068Y-148.641
X109.378Y-116.291
X109.395Y-120.231
X109.497Y-77.837
X109.55Y-32.0
X109.55Y-34.0
X109.55Y-36.0
X109.55Y-38.0
X109.757Y-73.0
X109.874Y-150.263
X110.95Y-32.0
X110.95Y-34.0
X110.95Y-36.0
X110.95Y-38.0
X111.027Y-114.24
X111.145Y-127.181
X111.428Y-113.304
X112.085Y-72.974
X112.35Y-32.0
X112.35Y-34.0
X112.35Y-36.0
X112.35Y-38.0
X112.863Y-115.996
X113.0Y-44.0
X113.5Y-70.0
X113.672Y-123.242
X114.106Y-116.196
X114.512Y-126.796
X115.05Y-116.35
X115.268Y-125.187
X115.65Y-29.435
X115.65Y-30.835
X115.65Y-32.235
X115.65Y-37.765
X115.65Y-39.165
X115.65Y-40.565
X115.947Y-115.996
X116.833Y-133.94
X117.05Y-29.435
X117.05Y-30.835
X117.05Y-32.235
X117.05Y-37.765
X117.05Y-39.165
X117.05Y-40.565
X117.5Y-70.0
X118.45Y-29.435
X118.45Y-30.835
X118.45Y-32.235
X118.45Y-37.765
X118.45Y-39.165
X118.45Y-40.565
X119.0Y-66.0
X119.936Y-137.742
X120.155Y-64.645
X121.038Y-143.783
X121.929Y-115.966
X122.863Y-125.187
X123.146Y-155.536
X123.264Y-105.826
X123.298Y-117.083
X123.298Y-132.294
X123.3Y-128.948
X126.313Y-62.861
X126.384Y-143.166
X126.684Y-153.2
X127.0Y-113.0
X127.013Y-73.095
X129.159Y-108.183
X129.732Y-120.266
X130.666Y-135.14
X132.995Y-111.0
X132.995Y-140.816
X134.0Y-137.0
X135.683Y-90.382
X136.0Y-144.0
X136.106Y-103.94
X136.178Y-105.23
X136.329Y-120.05
X137.175Y-66.0
X138.423Y-62.729
X138.938Y-37.358
X139.633Y-69.175
X139.781Y-37.755
X141.25Y-66.75
X141.448Y-62.861
X141.55Y-32.0
X141.55Y-34.0
X141.55Y-36.0
X141.55Y-38.0
X141.968Y-132.897
X142.003Y-117.052
X142.95Y-32.0
X142.95Y-34.0
X142.95Y-36.0
X142.95Y-38.0
X144.35Y-32.0
X144.35Y-34.0
X144.35Y-36.0
X144.35Y-38.0
X145.276Y-62.859
X146.238Y-62.832
X146.239Y-67.668
X147.65Y-29.435
X147.65Y-30.835
X147.65Y-32.235
X147.65Y-37.765
X147.65Y-39.165
X147.65Y-40.565
X149.05Y-29.435
X149.05Y-30.835
X149.05Y-32.235
X149.05Y-37.765
X149.05Y-39.165
X149.05Y-40.565
X150.45Y-29.435
X150.45Y-30.835
X150.45Y-32.235
X150.45Y-37.765
X150.45Y-39.165
X150.45Y-40.565
X156.718Y-138.379
X158.113Y-37.372
X161.751Y-59.878
X163.275Y-141.132
X166.0Y-137.0
X166.758Y-62.861
X168.938Y-37.358
X169.793Y-64.132
X170.63Y-114.176
X170.831Y-111.001
X170.991Y-148.69
X170.991Y-152.683
X171.381Y-113.062
X171.55Y-32.0
X171.55Y-34.0
X171.55Y-36.0
X171.55Y-38.0
X171.877Y-127.191
X172.244Y-113.509
X172.95Y-32.0
X172.95Y-34.0
X172.95Y-36.0
X172.95Y-38.0
X174.068Y-64.052
X174.35Y-32.0
X174.35Y-34.0
X174.35Y-36.0
X174.35Y-38.0
X174.524Y-118.4
X174.868Y-62.086
X175.0Y-101.0
X175.75Y-67.005
X176.121Y-115.842
X177.65Y-29.435
X177.65Y-30.835
X177.65Y-32.235
X177.65Y-37.765
X177.65Y-39.165
X177.65Y-40.565
X177.859Y-117.883
X179.05Y-29.435
X179.05Y-30.835
X179.05Y-32.235
X179.05Y-37.765
X179.05Y-39.165
X179.05Y-40.565
X179.051Y-118.64
X179.051Y-139.198
X179.876Y-118.094
X179.876Y-132.487
X180.0Y-71.0
X180.0Y-155.5
X180.45Y-29.435
X180.45Y-30.835
X180.45Y-32.235
X180.45Y-37.765
X180.45Y-39.165
X180.45Y-40.565
X181.0Y-63.5
X181.099Y-120.051
X183.044Y-116.2
X184.781Y-119.462
X186.344Y-137.839
X188.0Y-110.5
X188.233Y-121.314
X188.5Y-116.0
X190.0Y-120.0
X192.813Y-66.649
X193.0Y-88.0
X195.0Y-111.5
X196.804Y-43.364
X197.042Y-62.809
X197.5Y-122.5
X198.795Y-137.702
X198.914Y-66.023
X198.92Y-37.358
X199.245Y-119.933
X199.768Y-64.121
X200.0Y-127.0
X201.0Y-91.0
X201.55Y-32.0
X201.55Y-34.0
X201.55Y-36.0
X201.55Y-38.0
X202.95Y-32.0
X202.95Y-34.0
X202.95Y-36.0
X202.95Y-38.0
X204.009Y-114.116
X204.35Y-32.0
X204.35Y-34.0
X204.35Y-36.0
X204.35Y-38.0
X204.836Y-66.562
X206.0Y-110.5
X207.023Y-119.933
X207.65Y-29.435
X207.65Y-30.835
X207.65Y-32.235
X207.65Y-37.765
X207.65Y-39.165
X207.65Y-40.565
X208.5Y-73.0
X208.752Y-62.748
X209.05Y-29.435
X209.05Y-30.835
X209.05Y-32.235
X209.05Y-37.765
X209.05Y-39.165
X209.05Y-40.565
X209.817Y-122.261
X210.45Y-29.435
X210.45Y-30.835
X210.45Y-32.235
X210.45Y-37.765
X210.45Y-39.165
X210.45Y-40.565
X210.569Y-108.183
X210.996Y-122.509
X213.097Y-137.158
X213.433Y-84.286
X215.796Y-122.323
X216.629Y-109.292
X216.865Y-66.758
X217.0Y-87.175
X217.233Y-122.544
X217.635Y-67.529
X218.112Y-119.884
X218.659Y-39.949
X219.731Y-122.791
X220.341Y-37.041
X221.5Y-31.0
X221.5Y-155.5
X222.722Y-63.682
X222.722Y-69.616
X225.713Y-125.983
X225.714Y-119.934
X226.545Y-119.166
X226.545Y-120.701
X228.0Y-98.0
X228.704Y-108.183
X229.191Y-122.798
X229.55Y-32.0
X229.55Y-34.0
X229.55Y-36.0
X229.55Y-38.0
X230.825Y-75.0
X230.95Y-32.0
X230.95Y-34.0
X230.95Y-36.0
X230.95Y-38.0
X232.144Y-66.51
X232.35Y-32.0
X232.35Y-34.0
X232.35Y-36.0
X232.35Y-38.0
X233.017Y-122.738
X233.67Y-91.387
X235.351Y-122.53
X235.65Y-29.435
X235.65Y-30.835
X235.65Y-32.235
X235.65Y-37.765
X235.65Y-39.165
X235.65Y-40.565
X237.05Y-29.435
X237.05Y-30.835
X237.05Y-32.235
X237.05Y-37.765
X237.05Y-39.165
X237.05Y-40.565
X239.0Y-74.0
X241.22Y-140.816
X241.22Y-143.783
X252.0Y-154.5
T2
X6.9Y-31.0
X7.65Y-34.0
X13.0Y-37.0
X14.0Y-33.0
X18.5Y-66.0
X21.0Y-67.0
X22.5Y-65.2
X23.0Y-158.0
X26.5Y-66.0
X32.0Y-70.0
X37.1Y-31.0
X38.0Y-34.0
X43.0Y-37.0
X44.0Y-33.0
X48.5Y-66.0
X51.0Y-67.0
X52.5Y-65.2
X52.62Y-127.0
X55.16Y-127.0
X56.5Y-66.0
X64.0Y-70.0
X66.0Y-128.0
X66.93Y-31.0
X67.675Y-34.0
X73.0Y-37.0
X74.0Y-33.0
X78.5Y-66.0
X81.0Y-67.0
X82.0Y-131.37
X82.5Y-65.2
X86.5Y-66.0
X88.0Y-143.0
X92.0Y-70.0
X96.93Y-31.0
X97.675Y-34.0
X103.0Y-37.0
X104.0Y-33.0
X108.5Y-66.0
X111.0Y-67.0
X112.5Y-65.2
X112.62Y-128.0
X116.5Y-66.0
X124.0Y-70.0
X124.0Y-105.0
X128.93Y-31.0
X129.675Y-34.0
X132.0Y-115.0
X135.0Y-37.0
X136.0Y-33.0
X140.5Y-66.0
X142.0Y-67.5
X144.0Y-60.0
X145.0Y-148.78
X148.5Y-66.0
X150.0Y-115.0
X154.0Y-70.0
X158.93Y-31.0
X159.675Y-34.0
X160.0Y-140.0
X162.0Y-143.0
X165.0Y-37.0
X166.0Y-33.0
X170.5Y-66.0
X173.0Y-67.0
X174.5Y-65.2
X178.5Y-66.0
X184.0Y-70.0
X188.93Y-31.0
X189.675Y-34.0
X192.62Y-124.0
X195.0Y-37.0
X195.16Y-126.0
X196.0Y-33.0
X196.53Y-94.0
X200.5Y-66.0
X203.0Y-67.0
X204.5Y-65.2
X208.5Y-66.0
X212.0Y-70.0
X219.5Y-30.0
X225.5Y-37.0
X225.5Y-61.5
X226.5Y-31.0
X230.5Y-66.0
X232.62Y-124.0
X234.0Y-58.0
X234.0Y-66.0
X235.16Y-126.0
X238.5Y-66.0
X244.0Y-70.0
T3
X152.0Y-78.0
X164.0Y-117.0
X180.0Y-117.0
X180.062Y-78.0
X198.0Y-82.0
T4
X11.5Y-30.0
X11.5Y-39.5
X20.0Y-158.0
X36.0Y-35.0
X41.5Y-30.0
X41.5Y-39.5
X66.0Y-35.0
X71.5Y-30.0
X71.5Y-39.5
X96.0Y-35.0
X101.5Y-30.0
X101.5Y-39.5
X126.0Y-35.0
X133.5Y-30.0
X133.5Y-39.5
X158.0Y-35.0
X160.0Y-105.0
X163.5Y-30.0
X163.5Y-39.5
X172.0Y-158.0
X188.0Y-35.0
X193.5Y-30.0
X193.5Y-39.5
X218.0Y-35.0
X223.5Y-30.0
X223.5Y-39.5
T5
X169.0Y-100.0
X172.5Y-100.0
T6
X4.0Y-53.0
X8.0Y-79.6
X8.0Y-105.0
X9.0Y-53.0
X10.54Y-79.6
X10.54Y-105.0
X13.08Y-79.6
X13.08Y-105.0
X15.62Y-79.6
X15.62Y-105.0
X18.16Y-79.6
X18.16Y-105.0
X20.7Y-79.6
X20.7Y-105.0
X23.24Y-79.6
X23.24Y-105.0
X25.78Y-79.6
X25.78Y-105.0
X25.92Y-118.69
X25.92Y-121.23
X25.92Y-123.77
X25.92Y-126.31
X28.32Y-79.6
X28.32Y-105.0
X28.46Y-118.69
X28.46Y-121.23
X28.46Y-123.77
X28.46Y-126.31
X30.86Y-79.6
X30.86Y-105.0
X33.4Y-79.6
X33.4Y-105.0
X34.0Y-53.0
X34.84Y-130.14
X34.84Y-132.68
X34.84Y-135.22
X34.84Y-137.76
X34.84Y-140.3
X34.84Y-142.84
X34.84Y-145.38
X34.84Y-147.92
X34.84Y-150.46
X34.84Y-153.0
X35.94Y-79.6
X35.94Y-105.0
X37.38Y-130.14
X37.38Y-132.68
X37.38Y-135.22
X37.38Y-137.76
X37.38Y-140.3
X37.38Y-142.84
X37.38Y-145.38
X37.38Y-147.92
X37.38Y-150.46
X37.38Y-153.0
X38.48Y-79.6
X38.48Y-105.0
X39.0Y-53.0
X41.02Y-79.6
X41.02Y-105.0
X43.56Y-79.6
X43.56Y-105.0
X46.1Y-79.6
X46.1Y-105.0
X48.64Y-79.6
X48.64Y-105.0
X51.18Y-79.6
X51.18Y-105.0
X52.62Y-130.14
X52.62Y-132.68
X52.62Y-135.22
X52.62Y-137.76
X52.62Y-140.3
X52.62Y-142.84
X52.62Y-145.38
X52.62Y-147.92
X52.62Y-150.46
X52.62Y-153.0
X53.72Y-79.6
X53.72Y-105.0
X55.16Y-130.14
X55.16Y-132.68
X55.16Y-135.22
X55.16Y-137.76
X55.16Y-140.3
X55.16Y-142.84
X55.16Y-145.38
X55.16Y-147.92
X55.16Y-150.46
X55.16Y-153.0
X56.257Y-105.004
X56.26Y-79.6
X58.797Y-105.004
X58.8Y-79.6
X61.337Y-105.004
X61.34Y-79.6
X64.0Y-53.0
X64.27Y-143.7
X64.27Y-146.24
X64.27Y-148.78
X64.27Y-151.32
X64.27Y-153.86
X64.27Y-156.4
X69.0Y-53.0
X94.0Y-53.0
X94.84Y-130.14
X94.84Y-132.68
X94.84Y-135.22
X94.84Y-137.76
X94.84Y-140.3
X94.84Y-142.84
X94.84Y-145.38
X94.84Y-147.92
X94.84Y-150.46
X94.84Y-153.0
X97.38Y-130.14
X97.38Y-132.68
X97.38Y-135.22
X97.38Y-137.76
X97.38Y-140.3
X97.38Y-142.84
X97.38Y-145.38
X97.38Y-147.92
X97.38Y-150.46
X97.38Y-153.0
X99.0Y-53.0
X112.62Y-130.14
X112.62Y-132.68
X112.62Y-135.22
X112.62Y-137.76
X112.62Y-140.3
X112.62Y-142.84
X112.62Y-145.38
X112.62Y-147.92
X112.62Y-150.46
X112.62Y-153.0
X115.16Y-130.14
X115.16Y-132.68
X115.16Y-135.22
X115.16Y-137.76
X115.16Y-140.3
X115.16Y-142.84
X115.16Y-145.38
X115.16Y-147.92
X115.16Y-150.46
X115.16Y-153.0
X124.27Y-143.7
X124.27Y-146.24
X124.27Y-148.78
X124.27Y-151.32
X124.27Y-153.86
X124.27Y-156.4
X126.0Y-53.0
X128.0Y-100.0
X131.0Y-53.0
X133.0Y-100.0
X156.0Y-53.0
X161.0Y-53.0
X174.84Y-130.14
X174.84Y-132.68
X174.84Y-135.22
X174.84Y-137.76
X174.84Y-140.3
X174.84Y-142.84
X174.84Y-145.38
X174.84Y-147.92
X174.84Y-150.46
X174.84Y-153.0
X177.38Y-130.14
X177.38Y-132.68
X177.38Y-135.22
X177.38Y-137.76
X177.38Y-140.3
X177.38Y-142.84
X177.38Y-145.38
X177.38Y-147.92
X177.38Y-150.46
X177.38Y-153.0
X186.0Y-53.0
X191.0Y-53.0
X192.62Y-130.14
X192.62Y-132.68
X192.62Y-135.22
X192.62Y-137.76
X192.62Y-140.3
X192.62Y-142.84
X192.62Y-145.38
X192.62Y-147.92
X192.62Y-150.46
X192.62Y-153.0
X195.16Y-130.14
X195.16Y-132.68
X195.16Y-135.22
X195.16Y-137.76
X195.16Y-140.3
X195.16Y-142.84
X195.16Y-145.38
X195.16Y-147.92
X195.16Y-150.46
X195.16Y-153.0
X214.84Y-130.14
X214.84Y-132.68
X214.84Y-135.22
X214.84Y-137.76
X214.84Y-140.3
X214.84Y-142.84
X214.84Y-145.38
X214.84Y-147.92
X214.84Y-150.46
X214.84Y-153.0
X216.0Y-53.0
X217.38Y-130.14
X217.38Y-132.68
X217.38Y-135.22
X217.38Y-137.76
X217.38Y-140.3
X217.38Y-142.84
X217.38Y-145.38
X217.38Y-147.92
X217.38Y-150.46
X217.38Y-153.0
X221.0Y-53.0
X221.27Y-85.715
X221.27Y-88.255
X221.27Y-90.795
X221.27Y-93.335
X221.27Y-95.875
X221.27Y-98.415
X221.27Y-100.955
X221.27Y-103.495
X221.27Y-106.035
X221.27Y-108.575
X221.27Y-111.115
X221.27Y-113.655
X221.27Y-116.195
X232.62Y-130.14
X232.62Y-132.68
X232.62Y-135.22
X232.62Y-137.76
X232.62Y-140.3
X232.62Y-142.84
X232.62Y-145.38
X232.62Y-147.92
X232.62Y-150.46
X232.62Y-153.0
X235.16Y-130.14
X235.16Y-132.68
X235.16Y-135.22
X235.16Y-137.76
X235.16Y-140.3
X235.16Y-142.84
X235.16Y-145.38
X235.16Y-147.92
X235.16Y-150.46
X235.16Y-153.0
X236.51Y-85.715
X236.51Y-88.255
X236.51Y-90.795
X236.51Y-93.335
X236.51Y-95.875
X236.51Y-98.415
X236.51Y-100.955
X236.51Y-103.495
X236.51Y-106.035
X236.51Y-108.575
X236.51Y-111.115
X236.51Y-113.655
X236.51Y-116.195
X244.0Y-128.0
X244.0Y-130.54
X244.0Y-133.08
X244.0Y-135.62
X244.0Y-138.16
T7
X84.0Y-88.0
X84.0Y-93.0
X101.8Y-88.0
X101.8Y-93.0
T8
X25.0Y-139.0
X25.0Y-144.0
X140.0Y-86.5
X140.0Y-100.5
X158.3Y-86.5
X158.3Y-100.5
T9
X5.0Y-38.5
X5.0Y-42.0
X158.0Y-152.0
X161.5Y-152.0
X165.0Y-152.0
X168.5Y-152.0
X254.7Y-7.0
X254.7Y-10.5
X254.7Y-14.0
X254.7Y-19.05
X254.7Y-22.55
X254.7Y-26.05
X254.7Y-31.1
X254.7Y-34.6
X254.7Y-38.1
X254.7Y-43.15
X254.7Y-46.65
X254.7Y-50.15
X254.7Y-55.2
X254.7Y-58.7
X254.7Y-62.2
X254.7Y-67.25
X254.7Y-70.75
X254.7Y-74.25
X254.7Y-82.0
X254.7Y-85.5
X254.7Y-90.55
X254.7Y-94.05
X254.7Y-99.1
X254.7Y-102.6
X254.7Y-107.65
X254.7Y-111.15
X254.7Y-116.2
X254.7Y-119.7
X254.7Y-124.75
X254.7Y-128.25
X254.7Y-133.3
X254.7Y-136.8
X254.7Y-141.85
X254.7Y-145.35
T10
X17.8Y-8.0
X22.88Y-8.0
X27.96Y-8.0
X33.04Y-8.0
X47.8Y-8.0
X52.88Y-8.0
X57.96Y-8.0
X63.04Y-8.0
X77.8Y-8.0
X82.88Y-8.0
X87.96Y-8.0
X93.04Y-8.0
X107.8Y-8.0
X112.88Y-8.0
X117.96Y-8.0
X123.04Y-8.0
X139.8Y-8.0
X144.88Y-8.0
X149.96Y-8.0
X155.04Y-8.0
X169.8Y-8.0
X174.88Y-8.0
X179.96Y-8.0
X185.04Y-8.0
X199.8Y-8.0
X204.88Y-8.0
X209.96Y-8.0
X215.04Y-8.0
X229.8Y-8.0
X234.88Y-8.0
X239.96Y-8.0
X245.04Y-8.0
M30
