M48
; DRILL file KiCad 10.0.4 date 2026-07-21T23:52:46
; FORMAT={-:-/ absolute / metric / decimal}
; #@! TF.CreationDate,2026-07-21T23:52:46+04:00
; #@! TF.GenerationSoftware,Kicad,Pcbnew,10.0.4
; #@! TF.FileFunction,NonPlated,1,4,NPTH
FMAT,2
METRIC
; #@! TA.AperFunction,NonPlated,NPTH,ComponentDrill
T1C2.500
; #@! TA.AperFunction,NonPlated,NPTH,ComponentDrill
T2C3.200
%
G90
G05
T1
X222.54Y-82.54
X222.54Y-119.37
X235.24Y-82.54
X235.24Y-119.37
T2
X8.0Y-152.0
X24.0Y-22.0
X24.0Y-48.0
X54.0Y-22.0
X54.0Y-48.0
X76.0Y-90.0
X84.0Y-22.0
X84.0Y-48.0
X114.0Y-22.0
X114.0Y-48.0
X146.0Y-22.0
X146.0Y-48.0
X176.0Y-22.0
X176.0Y-48.0
X206.0Y-22.0
X206.0Y-48.0
X208.0Y-90.0
X234.0Y-22.0
X234.0Y-48.0
X243.0Y-152.0
M30
