M48
; DRILL file KiCad 10.0.4 date 2026-07-23T18:35:09
; FORMAT={-:-/ absolute / metric / decimal}
; #@! TF.CreationDate,2026-07-23T18:35:09+04:00
; #@! TF.GenerationSoftware,Kicad,Pcbnew,10.0.4
; #@! TF.FileFunction,Plated,1,4,PTH
FMAT,2
METRIC
; #@! TA.AperFunction,Plated,PTH,ViaDrill
T1C0.300
; #@! TA.AperFunction,Plated,PTH,ViaDrill
T2C0.350
; #@! TA.AperFunction,Plated,PTH,ViaDrill
T3C0.400
; #@! TA.AperFunction,Plated,PTH,ViaDrill
T4C0.450
; #@! TA.AperFunction,Plated,PTH,ViaDrill
T5C0.600
; #@! TA.AperFunction,Plated,PTH,ComponentDrill
T6C0.800
; #@! TA.AperFunction,Plated,PTH,ComponentDrill
T7C1.000
; #@! TA.AperFunction,Plated,PTH,ComponentDrill
T8C1.170
; #@! TA.AperFunction,Plated,PTH,ComponentDrill
T9C1.200
; #@! TA.AperFunction,Plated,PTH,ComponentDrill
T10C1.300
; #@! TA.AperFunction,Plated,PTH,ComponentDrill
T11C1.700
%
G90
G05
T1
X3.5Y-84.5
X3.5Y-86.0
X4.5Y-95.0
X4.5Y-99.0
X6.5Y-84.0
X6.5Y-95.0
X6.5Y-97.0
X6.5Y-99.0
X8.5Y-98.0
X9.0Y-96.0
X9.5Y-86.0
X11.5Y-95.0
X13.5Y-75.5
X15.0Y-63.5
X15.5Y-66.0
X15.816Y-67.629
X16.5Y-76.5
X16.698Y-37.358
X17.356Y-37.996
X17.412Y-65.962
X18.0Y-81.0
X19.0Y-73.0
X19.5Y-79.0
X19.55Y-32.0
X19.55Y-34.0
X19.55Y-36.0
X19.55Y-38.0
X20.0Y-66.0
X20.95Y-32.0
X20.95Y-34.0
X20.95Y-36.0
X20.95Y-38.0
X22.0Y-97.0
X22.35Y-32.0
X22.35Y-34.0
X22.35Y-36.0
X22.35Y-38.0
X22.5Y-64.0
X22.5Y-78.5
X25.0Y-74.5
X25.0Y-77.5
X25.5Y-74.0
X25.65Y-29.435
X25.65Y-30.835
X25.65Y-32.235
X25.65Y-37.765
X25.65Y-39.165
X25.65Y-40.565
X27.05Y-29.435
X27.05Y-30.835
X27.05Y-32.235
X27.05Y-37.765
X27.05Y-39.165
X27.05Y-40.565
X28.45Y-29.435
X28.45Y-30.835
X28.45Y-32.235
X28.45Y-37.765
X28.45Y-39.165
X28.45Y-40.565
X29.0Y-97.0
X29.175Y-63.991
X29.5Y-98.0
X31.0Y-61.5
X31.0Y-73.0
X31.0Y-76.0
X31.5Y-78.5
X31.5Y-95.5
X31.5Y-98.0
X31.5Y-101.5
X32.5Y-77.5
X33.0Y-85.5
X33.0Y-93.5
X33.5Y-101.5
X34.0Y-86.5
X34.5Y-75.0
X34.5Y-79.5
X34.5Y-95.5
X34.5Y-102.5
X35.5Y-104.0
X36.174Y-37.229
X36.5Y-73.0
X36.5Y-74.5
X39.5Y-84.5
X40.0Y-73.0
X40.16Y-59.911
X40.5Y-88.0
X41.0Y-89.0
X41.5Y-84.0
X42.0Y-89.5
X44.5Y-86.0
X45.246Y-62.861
X46.652Y-37.358
X47.5Y-79.0
X48.5Y-64.0
X48.5Y-92.0
X49.5Y-93.0
X49.55Y-32.0
X49.55Y-34.0
X49.55Y-36.0
X49.55Y-38.0
X50.95Y-32.0
X50.95Y-34.0
X50.95Y-36.0
X50.95Y-38.0
X51.0Y-90.0
X52.0Y-84.0
X52.35Y-32.0
X52.35Y-34.0
X52.35Y-36.0
X52.35Y-38.0
X52.5Y-64.0
X55.5Y-78.0
X55.65Y-29.435
X55.65Y-30.835
X55.65Y-32.235
X55.65Y-37.765
X55.65Y-39.165
X55.65Y-40.565
X56.0Y-88.5
X57.05Y-29.435
X57.05Y-30.835
X57.05Y-32.235
X57.05Y-37.765
X57.05Y-39.165
X57.05Y-40.565
X58.45Y-29.435
X58.45Y-30.835
X58.45Y-32.235
X58.45Y-37.765
X58.45Y-39.165
X58.45Y-40.565
X60.0Y-72.5
X60.246Y-64.645
X60.5Y-86.5
X64.5Y-68.0
X67.5Y-71.5
X69.0Y-70.5
X69.5Y-87.0
X70.5Y-72.5
X71.5Y-62.5
X75.5Y-72.0
X78.0Y-72.0
X88.5Y-81.0
X88.5Y-85.0
X89.0Y-83.5
X89.5Y-73.0
T2
X7.65Y-34.0
X8.0Y-31.0
X13.0Y-37.0
X14.0Y-33.0
X17.175Y-69.5
X18.5Y-66.0
X21.0Y-67.0
X22.5Y-65.2
X26.5Y-66.0
X37.0Y-79.365
X37.1Y-31.0
X38.0Y-34.0
X38.0Y-86.825
X43.0Y-37.0
X44.0Y-33.0
X44.675Y-68.0
X46.5Y-79.365
X48.0Y-80.635
X48.0Y-81.905
X48.5Y-66.0
X51.0Y-67.0
X52.5Y-65.2
X56.5Y-66.0
X72.0Y-80.0
X73.0Y-85.5
T3
X6.0Y-14.0
X6.0Y-22.0
X6.0Y-30.0
X6.0Y-38.0
X6.0Y-62.0
X6.0Y-70.0
X6.651Y-87.953
X10.726Y-85.225
X14.0Y-6.0
X14.0Y-14.0
X14.0Y-22.0
X14.0Y-70.0
X14.0Y-102.0
X16.151Y-69.531
X22.0Y-6.0
X22.0Y-14.0
X22.0Y-54.0
X22.663Y-79.761
X28.701Y-69.938
X29.091Y-76.7
X30.0Y-6.0
X30.0Y-14.0
X30.0Y-22.0
X38.0Y-6.0
X38.0Y-14.0
X38.0Y-22.0
X43.968Y-91.725
X46.0Y-14.0
X46.0Y-22.0
X54.0Y-6.0
X54.0Y-14.0
X54.0Y-54.0
X54.0Y-62.0
X54.0Y-70.0
X54.0Y-102.0
X62.0Y-54.0
X62.0Y-62.0
X62.0Y-102.0
X67.571Y-65.15
X70.0Y-6.0
X70.0Y-22.0
X70.0Y-30.0
X70.0Y-38.0
X70.0Y-46.0
X70.0Y-54.0
X70.0Y-102.0
X78.0Y-14.0
X78.0Y-30.0
X78.0Y-46.0
X78.0Y-78.0
X78.0Y-86.0
X78.0Y-102.0
X86.0Y-6.0
X86.0Y-14.0
X86.0Y-22.0
X86.0Y-38.0
X86.0Y-54.0
X86.0Y-62.0
X86.0Y-70.0
X86.0Y-78.0
X86.0Y-86.0
X86.0Y-102.0
X94.0Y-6.0
X94.0Y-14.0
X94.0Y-22.0
X94.0Y-30.0
X94.0Y-46.0
X94.0Y-54.0
X94.0Y-62.0
X94.0Y-70.0
X94.0Y-78.0
X94.0Y-86.0
X94.0Y-102.0
X98.725Y-24.494
X102.0Y-6.0
X102.0Y-14.0
X102.0Y-38.0
X102.0Y-46.0
X102.0Y-54.0
X102.0Y-62.0
X102.0Y-70.0
X102.0Y-78.0
X102.0Y-86.0
X102.0Y-94.0
X102.0Y-102.0
T4
X67.5Y-80.0
X79.0Y-84.0
T5
X11.5Y-30.0
X11.5Y-39.5
X36.0Y-35.0
X41.5Y-30.0
X41.5Y-39.5
X66.0Y-35.0
T6
X92.0Y-45.0
X95.5Y-45.0
T7
X4.0Y-53.0
X7.5Y-88.68
X7.5Y-91.22
X7.5Y-106.46
X7.5Y-109.0
X9.0Y-53.0
X10.04Y-88.68
X10.04Y-91.22
X10.04Y-106.46
X10.04Y-109.0
X12.58Y-88.68
X12.58Y-91.22
X12.58Y-106.46
X12.58Y-109.0
X15.12Y-88.68
X15.12Y-91.22
X15.12Y-106.46
X15.12Y-109.0
X17.66Y-88.68
X17.66Y-91.22
X17.66Y-106.46
X17.66Y-109.0
X18.0Y-84.0
X20.2Y-88.68
X20.2Y-91.22
X20.2Y-106.46
X20.2Y-109.0
X20.54Y-84.0
X22.74Y-88.68
X22.74Y-91.22
X22.74Y-106.46
X22.74Y-109.0
X23.08Y-84.0
X25.28Y-88.68
X25.28Y-91.22
X25.28Y-106.46
X25.28Y-109.0
X25.62Y-84.0
X27.82Y-88.68
X27.82Y-91.22
X27.82Y-106.46
X27.82Y-109.0
X28.16Y-84.0
X30.36Y-88.68
X30.36Y-91.22
X30.36Y-106.46
X30.36Y-109.0
X34.0Y-53.0
X37.77Y-96.2
X37.77Y-98.74
X37.77Y-101.28
X37.77Y-103.82
X37.77Y-106.36
X37.77Y-108.9
X39.0Y-53.0
X60.715Y-92.49
X60.715Y-107.73
X63.255Y-92.49
X63.255Y-107.73
X65.795Y-92.49
X65.795Y-107.73
X68.335Y-92.49
X68.335Y-107.73
X70.875Y-92.49
X70.875Y-107.73
X73.415Y-92.49
X73.415Y-107.73
X75.955Y-92.49
X75.955Y-107.73
X76.0Y-35.0
X78.495Y-92.49
X78.495Y-107.73
X81.0Y-35.0
X81.035Y-92.49
X81.035Y-107.73
X83.575Y-92.49
X83.575Y-107.73
X86.115Y-92.49
X86.115Y-107.73
X88.655Y-92.49
X88.655Y-107.73
X91.195Y-92.49
X91.195Y-107.73
T8
X70.0Y-12.0
X70.0Y-17.0
X87.8Y-12.0
X87.8Y-17.0
T9
X62.0Y-79.0
X62.0Y-84.0
X68.0Y-46.5
X68.0Y-60.5
X86.3Y-46.5
X86.3Y-60.5
T10
X5.5Y-41.5
X5.5Y-45.0
X5.5Y-65.5
X5.5Y-69.0
X5.5Y-72.5
X5.5Y-76.0
X82.0Y-5.0
X85.5Y-5.0
X99.5Y-2.0
X99.5Y-5.5
X99.5Y-9.0
X99.5Y-15.0
X99.5Y-18.5
X99.5Y-22.0
X99.5Y-28.0
X99.5Y-31.5
X99.5Y-35.0
X99.5Y-68.5
X99.5Y-72.0
X99.5Y-80.5
X99.5Y-84.0
T11
X17.8Y-8.0
X22.88Y-8.0
X27.96Y-8.0
X33.04Y-8.0
X47.8Y-8.0
X52.88Y-8.0
X57.96Y-8.0
X63.04Y-8.0
M30
