%TF.GenerationSoftware,KiCad,Pcbnew,10.0.4*%
%TF.CreationDate,2026-08-12T00:17:07+04:00*%
%TF.ProjectId,UNIVERSAL-4CH-F103RC-IC,554e4956-4552-4534-914c-2d3443482d46,rev?*%
%TF.SameCoordinates,Original*%
%TF.FileFunction,Paste,Bot*%
%TF.FilePolarity,Positive*%
%FSLAX46Y46*%
G04 Gerber Fmt 4.6, Leading zero omitted, Abs format (unit mm)*
G04 Created by KiCad (PCBNEW 10.0.4) date 2026-08-12 00:17:07*
%MOMM*%
%LPD*%
G01*
G04 APERTURE LIST*
G04 Aperture macros list*
%AMRoundRect*
0 Rectangle with rounded corners*
0 $1 Rounding radius*
0 $2 $3 $4 $5 $6 $7 $8 $9 X,Y pos of 4 corners*
0 Add a 4 corners polygon primitive as box body*
4,1,4,$2,$3,$4,$5,$6,$7,$8,$9,$2,$3,0*
0 Add four circle primitives for the rounded corners*
1,1,$1+$1,$2,$3*
1,1,$1+$1,$4,$5*
1,1,$1+$1,$6,$7*
1,1,$1+$1,$8,$9*
0 Add four rect primitives between the rounded corners*
20,1,$1+$1,$2,$3,$4,$5,0*
20,1,$1+$1,$4,$5,$6,$7,0*
20,1,$1+$1,$6,$7,$8,$9,0*
20,1,$1+$1,$8,$9,$2,$3,0*%
G04 Aperture macros list end*
%ADD10RoundRect,0.225000X-0.225000X-0.250000X0.225000X-0.250000X0.225000X0.250000X-0.225000X0.250000X0*%
%ADD11RoundRect,0.200000X-0.200000X-0.275000X0.200000X-0.275000X0.200000X0.275000X-0.200000X0.275000X0*%
%ADD12R,1.350000X0.660000*%
%ADD13R,5.250000X10.300000*%
%ADD14R,5.250000X6.230000*%
%ADD15RoundRect,0.250000X-0.325000X-0.650000X0.325000X-0.650000X0.325000X0.650000X-0.325000X0.650000X0*%
%ADD16RoundRect,0.150000X-0.587500X-0.150000X0.587500X-0.150000X0.587500X0.150000X-0.587500X0.150000X0*%
%ADD17RoundRect,0.250000X0.650000X-0.325000X0.650000X0.325000X-0.650000X0.325000X-0.650000X-0.325000X0*%
%ADD18RoundRect,0.250000X-0.295000X-0.295000X0.295000X-0.295000X0.295000X0.295000X-0.295000X0.295000X0*%
%ADD19RoundRect,0.062500X-0.350000X-0.062500X0.350000X-0.062500X0.350000X0.062500X-0.350000X0.062500X0*%
%ADD20RoundRect,0.062500X-0.062500X-0.350000X0.062500X-0.350000X0.062500X0.350000X-0.062500X0.350000X0*%
%ADD21RoundRect,0.200000X0.275000X-0.200000X0.275000X0.200000X-0.275000X0.200000X-0.275000X-0.200000X0*%
%ADD22RoundRect,0.250000X-0.250000X-0.475000X0.250000X-0.475000X0.250000X0.475000X-0.250000X0.475000X0*%
%ADD23RoundRect,0.225000X0.250000X-0.225000X0.250000X0.225000X-0.250000X0.225000X-0.250000X-0.225000X0*%
%ADD24RoundRect,0.375000X0.625000X0.375000X-0.625000X0.375000X-0.625000X-0.375000X0.625000X-0.375000X0*%
%ADD25RoundRect,0.500000X0.500000X1.400000X-0.500000X1.400000X-0.500000X-1.400000X0.500000X-1.400000X0*%
%ADD26RoundRect,0.150000X0.150000X-0.512500X0.150000X0.512500X-0.150000X0.512500X-0.150000X-0.512500X0*%
%ADD27RoundRect,0.050000X-0.525000X-0.450000X0.525000X-0.450000X0.525000X0.450000X-0.525000X0.450000X0*%
%ADD28RoundRect,0.112500X0.112500X-0.187500X0.112500X0.187500X-0.112500X0.187500X-0.112500X-0.187500X0*%
%ADD29RoundRect,0.250000X-1.000000X-0.650000X1.000000X-0.650000X1.000000X0.650000X-1.000000X0.650000X0*%
%ADD30RoundRect,0.075000X-0.700000X-0.075000X0.700000X-0.075000X0.700000X0.075000X-0.700000X0.075000X0*%
%ADD31RoundRect,0.075000X-0.075000X-0.700000X0.075000X-0.700000X0.075000X0.700000X-0.075000X0.700000X0*%
%ADD32RoundRect,0.250000X-1.000000X-0.900000X1.000000X-0.900000X1.000000X0.900000X-1.000000X0.900000X0*%
%ADD33RoundRect,0.250000X-0.312500X-0.625000X0.312500X-0.625000X0.312500X0.625000X-0.312500X0.625000X0*%
%ADD34RoundRect,0.250000X-0.450000X-0.350000X0.450000X-0.350000X0.450000X0.350000X-0.450000X0.350000X0*%
%ADD35RoundRect,0.150000X-0.825000X-0.150000X0.825000X-0.150000X0.825000X0.150000X-0.825000X0.150000X0*%
G04 APERTURE END LIST*
D10*
%TO.C,C1303*%
X86250000Y-46000000D03*
X87800000Y-46000000D03*
%TD*%
D11*
%TO.C,R2301*%
X33725000Y-81000000D03*
X35375000Y-81000000D03*
%TD*%
%TO.C,R1110*%
X20100000Y-42000000D03*
X21750000Y-42000000D03*
%TD*%
D12*
%TO.C,U3*%
X68400000Y-31500000D03*
X68400000Y-30500000D03*
X68400000Y-29500000D03*
X68400000Y-28500000D03*
X68400000Y-27500000D03*
X68400000Y-26500000D03*
X68400000Y-25500000D03*
X68400000Y-24500000D03*
X68400000Y-23500000D03*
X68400000Y-22500000D03*
X68400000Y-21500000D03*
X68400000Y-20500000D03*
X68400000Y-19500000D03*
X68400000Y-18500000D03*
X68400000Y-17500000D03*
X86650000Y-17500000D03*
X86650000Y-18500000D03*
X86650000Y-19500000D03*
X86650000Y-20500000D03*
X86650000Y-21500000D03*
X86650000Y-22500000D03*
X86650000Y-23500000D03*
X86650000Y-24500000D03*
X86650000Y-25500000D03*
X86650000Y-26500000D03*
X86650000Y-27500000D03*
X86650000Y-28500000D03*
X86650000Y-29500000D03*
X86650000Y-30500000D03*
X86650000Y-31500000D03*
D13*
X74475000Y-24500000D03*
D14*
X80575000Y-20335000D03*
X80575000Y-28665000D03*
%TD*%
D15*
%TO.C,C238*%
X33075000Y-75000000D03*
X36025000Y-75000000D03*
%TD*%
D11*
%TO.C,R261*%
X81700000Y-75500000D03*
X83350000Y-75500000D03*
%TD*%
D10*
%TO.C,C1302*%
X67250000Y-35000000D03*
X68800000Y-35000000D03*
%TD*%
%TO.C,C1103*%
X24250000Y-46000000D03*
X25800000Y-46000000D03*
%TD*%
D16*
%TO.C,D1201*%
X55087500Y-42950000D03*
X55087500Y-41050000D03*
X56962500Y-42000000D03*
%TD*%
D17*
%TO.C,C234*%
X28025000Y-56925000D03*
X28025000Y-53975000D03*
%TD*%
D18*
%TO.C,CAP1*%
X108850000Y-65825000D03*
X108850000Y-67175000D03*
X110200000Y-65825000D03*
X110200000Y-67175000D03*
D19*
X107562500Y-67750000D03*
X107562500Y-67250000D03*
X107562500Y-66750000D03*
X107562500Y-66250000D03*
X107562500Y-65750000D03*
X107562500Y-65250000D03*
D20*
X108275000Y-64537500D03*
X108775000Y-64537500D03*
X109275000Y-64537500D03*
X109775000Y-64537500D03*
X110275000Y-64537500D03*
X110775000Y-64537500D03*
D19*
X111487500Y-65250000D03*
X111487500Y-65750000D03*
X111487500Y-66250000D03*
X111487500Y-66750000D03*
X111487500Y-67250000D03*
X111487500Y-67750000D03*
D20*
X110775000Y-68462500D03*
X110275000Y-68462500D03*
X109775000Y-68462500D03*
X109275000Y-68462500D03*
X108775000Y-68462500D03*
X108275000Y-68462500D03*
%TD*%
D21*
%TO.C,R292*%
X115525000Y-81325000D03*
X115525000Y-79675000D03*
%TD*%
D11*
%TO.C,R209*%
X104700000Y-72500000D03*
X106350000Y-72500000D03*
%TD*%
%TO.C,R270*%
X66875000Y-83500000D03*
X68525000Y-83500000D03*
%TD*%
D10*
%TO.C,C3001*%
X53025000Y-61000000D03*
X54575000Y-61000000D03*
%TD*%
%TO.C,C3004*%
X57750000Y-57500000D03*
X59300000Y-57500000D03*
%TD*%
D11*
%TO.C,R1409*%
X109300000Y-42000000D03*
X110950000Y-42000000D03*
%TD*%
%TO.C,R1209*%
X47300000Y-42000000D03*
X48950000Y-42000000D03*
%TD*%
D15*
%TO.C,C231*%
X23525000Y-60000000D03*
X26475000Y-60000000D03*
%TD*%
D10*
%TO.C,C239*%
X37775000Y-75000000D03*
X39325000Y-75000000D03*
%TD*%
D11*
%TO.C,R1106*%
X23700000Y-37500000D03*
X25350000Y-37500000D03*
%TD*%
%TO.C,R1204*%
X47100000Y-37500000D03*
X48750000Y-37500000D03*
%TD*%
%TO.C,R1401*%
X97700000Y-37500000D03*
X99350000Y-37500000D03*
%TD*%
D10*
%TO.C,C3002*%
X52975000Y-70500000D03*
X54525000Y-70500000D03*
%TD*%
D12*
%TO.C,U4*%
X99400000Y-31500000D03*
X99400000Y-30500000D03*
X99400000Y-29500000D03*
X99400000Y-28500000D03*
X99400000Y-27500000D03*
X99400000Y-26500000D03*
X99400000Y-25500000D03*
X99400000Y-24500000D03*
X99400000Y-23500000D03*
X99400000Y-22500000D03*
X99400000Y-21500000D03*
X99400000Y-20500000D03*
X99400000Y-19500000D03*
X99400000Y-18500000D03*
X99400000Y-17500000D03*
X117650000Y-17500000D03*
X117650000Y-18500000D03*
X117650000Y-19500000D03*
X117650000Y-20500000D03*
X117650000Y-21500000D03*
X117650000Y-22500000D03*
X117650000Y-23500000D03*
X117650000Y-24500000D03*
X117650000Y-25500000D03*
X117650000Y-26500000D03*
X117650000Y-27500000D03*
X117650000Y-28500000D03*
X117650000Y-29500000D03*
X117650000Y-30500000D03*
X117650000Y-31500000D03*
D13*
X105475000Y-24500000D03*
D14*
X111575000Y-20335000D03*
X111575000Y-28665000D03*
%TD*%
D21*
%TO.C,R290*%
X89525000Y-81325000D03*
X89525000Y-79675000D03*
%TD*%
D10*
%TO.C,C3006*%
X65750000Y-57500000D03*
X67300000Y-57500000D03*
%TD*%
D11*
%TO.C,R1206*%
X54700000Y-37500000D03*
X56350000Y-37500000D03*
%TD*%
%TO.C,R260*%
X77700000Y-75500000D03*
X79350000Y-75500000D03*
%TD*%
D22*
%TO.C,C341*%
X108575000Y-61500000D03*
X110475000Y-61500000D03*
%TD*%
D16*
%TO.C,D1301*%
X86087500Y-42950000D03*
X86087500Y-41050000D03*
X87962500Y-42000000D03*
%TD*%
D23*
%TO.C,C237*%
X38525000Y-64450000D03*
X38525000Y-62900000D03*
%TD*%
D10*
%TO.C,C1402*%
X98250000Y-35000000D03*
X99800000Y-35000000D03*
%TD*%
%TO.C,C3005*%
X61750000Y-57500000D03*
X63300000Y-57500000D03*
%TD*%
D11*
%TO.C,R1210*%
X51100000Y-42000000D03*
X52750000Y-42000000D03*
%TD*%
D10*
%TO.C,C232*%
X23525000Y-56500000D03*
X25075000Y-56500000D03*
%TD*%
D24*
%TO.C,U230*%
X34675000Y-63650000D03*
X34675000Y-65950000D03*
D25*
X28375000Y-65950000D03*
D24*
X34675000Y-68250000D03*
%TD*%
D11*
%TO.C,R1410*%
X113100000Y-42000000D03*
X114750000Y-42000000D03*
%TD*%
D10*
%TO.C,C3003*%
X55425000Y-77500000D03*
X56975000Y-77500000D03*
%TD*%
D11*
%TO.C,R1406*%
X116700000Y-37500000D03*
X118350000Y-37500000D03*
%TD*%
D22*
%TO.C,C3007*%
X53575000Y-57500000D03*
X55475000Y-57500000D03*
%TD*%
D11*
%TO.C,R3003*%
X61375000Y-81500000D03*
X63025000Y-81500000D03*
%TD*%
%TO.C,R1308*%
X74500000Y-42000000D03*
X76150000Y-42000000D03*
%TD*%
%TO.C,R1309*%
X78300000Y-42000000D03*
X79950000Y-42000000D03*
%TD*%
%TO.C,R1107*%
X8700000Y-42000000D03*
X10350000Y-42000000D03*
%TD*%
%TO.C,R1104*%
X16100000Y-37500000D03*
X17750000Y-37500000D03*
%TD*%
%TO.C,R1103*%
X12300000Y-37500000D03*
X13950000Y-37500000D03*
%TD*%
D10*
%TO.C,C271*%
X75250000Y-84500000D03*
X76800000Y-84500000D03*
%TD*%
D21*
%TO.C,R203*%
X113525000Y-77325000D03*
X113525000Y-75675000D03*
%TD*%
D10*
%TO.C,C1202*%
X36250000Y-35000000D03*
X37800000Y-35000000D03*
%TD*%
%TO.C,C340*%
X104750000Y-61500000D03*
X106300000Y-61500000D03*
%TD*%
D26*
%TO.C,U270*%
X72150000Y-85137500D03*
X71200000Y-85137500D03*
X70250000Y-85137500D03*
X70250000Y-82862500D03*
X71200000Y-82862500D03*
X72150000Y-82862500D03*
%TD*%
D11*
%TO.C,R1101*%
X4700000Y-37500000D03*
X6350000Y-37500000D03*
%TD*%
%TO.C,R1310*%
X82100000Y-42000000D03*
X83750000Y-42000000D03*
%TD*%
D27*
%TO.C,L240*%
X39660000Y-83340000D03*
X39660000Y-79660000D03*
X41390000Y-79660000D03*
X41390000Y-83340000D03*
%TD*%
D11*
%TO.C,R272*%
X73875000Y-87500000D03*
X75525000Y-87500000D03*
%TD*%
%TO.C,R3001*%
X55375000Y-73500000D03*
X57025000Y-73500000D03*
%TD*%
%TO.C,R1302*%
X70500000Y-37500000D03*
X72150000Y-37500000D03*
%TD*%
%TO.C,R3002*%
X57375000Y-81500000D03*
X59025000Y-81500000D03*
%TD*%
D28*
%TO.C,D241*%
X48525000Y-82550000D03*
X48525000Y-80450000D03*
%TD*%
D11*
%TO.C,R1407*%
X101700000Y-42000000D03*
X103350000Y-42000000D03*
%TD*%
D10*
%TO.C,C250*%
X80750000Y-71500000D03*
X82300000Y-71500000D03*
%TD*%
D11*
%TO.C,R1306*%
X85700000Y-37500000D03*
X87350000Y-37500000D03*
%TD*%
D16*
%TO.C,D1101*%
X24087500Y-42950000D03*
X24087500Y-41050000D03*
X25962500Y-42000000D03*
%TD*%
D10*
%TO.C,C1403*%
X117250000Y-46000000D03*
X118800000Y-46000000D03*
%TD*%
D11*
%TO.C,R1301*%
X66700000Y-37500000D03*
X68350000Y-37500000D03*
%TD*%
D10*
%TO.C,C1203*%
X55250000Y-46000000D03*
X56800000Y-46000000D03*
%TD*%
D11*
%TO.C,R271*%
X66875000Y-87500000D03*
X68525000Y-87500000D03*
%TD*%
%TO.C,R1408*%
X105500000Y-42000000D03*
X107150000Y-42000000D03*
%TD*%
D29*
%TO.C,D280*%
X68525000Y-75500000D03*
X72525000Y-75500000D03*
%TD*%
D10*
%TO.C,C270*%
X74925000Y-81500000D03*
X76475000Y-81500000D03*
%TD*%
D11*
%TO.C,R1304*%
X78100000Y-37500000D03*
X79750000Y-37500000D03*
%TD*%
D30*
%TO.C,U300*%
X58850000Y-70250000D03*
X58850000Y-69750000D03*
X58850000Y-69250000D03*
X58850000Y-68750000D03*
X58850000Y-68250000D03*
X58850000Y-67750000D03*
X58850000Y-67250000D03*
X58850000Y-66750000D03*
X58850000Y-66250000D03*
X58850000Y-65750000D03*
X58850000Y-65250000D03*
X58850000Y-64750000D03*
X58850000Y-64250000D03*
X58850000Y-63750000D03*
X58850000Y-63250000D03*
X58850000Y-62750000D03*
D31*
X60775000Y-60825000D03*
X61275000Y-60825000D03*
X61775000Y-60825000D03*
X62275000Y-60825000D03*
X62775000Y-60825000D03*
X63275000Y-60825000D03*
X63775000Y-60825000D03*
X64275000Y-60825000D03*
X64775000Y-60825000D03*
X65275000Y-60825000D03*
X65775000Y-60825000D03*
X66275000Y-60825000D03*
X66775000Y-60825000D03*
X67275000Y-60825000D03*
X67775000Y-60825000D03*
X68275000Y-60825000D03*
D30*
X70200000Y-62750000D03*
X70200000Y-63250000D03*
X70200000Y-63750000D03*
X70200000Y-64250000D03*
X70200000Y-64750000D03*
X70200000Y-65250000D03*
X70200000Y-65750000D03*
X70200000Y-66250000D03*
X70200000Y-66750000D03*
X70200000Y-67250000D03*
X70200000Y-67750000D03*
X70200000Y-68250000D03*
X70200000Y-68750000D03*
X70200000Y-69250000D03*
X70200000Y-69750000D03*
X70200000Y-70250000D03*
D31*
X68275000Y-72175000D03*
X67775000Y-72175000D03*
X67275000Y-72175000D03*
X66775000Y-72175000D03*
X66275000Y-72175000D03*
X65775000Y-72175000D03*
X65275000Y-72175000D03*
X64775000Y-72175000D03*
X64275000Y-72175000D03*
X63775000Y-72175000D03*
X63275000Y-72175000D03*
X62775000Y-72175000D03*
X62275000Y-72175000D03*
X61775000Y-72175000D03*
X61275000Y-72175000D03*
X60775000Y-72175000D03*
%TD*%
D10*
%TO.C,C235*%
X29250000Y-58950000D03*
X30800000Y-58950000D03*
%TD*%
%TO.C,C3009*%
X69750000Y-57500000D03*
X71300000Y-57500000D03*
%TD*%
D32*
%TO.C,D231*%
X8295000Y-70832500D03*
X12595000Y-70832500D03*
%TD*%
D11*
%TO.C,R1203*%
X43300000Y-37500000D03*
X44950000Y-37500000D03*
%TD*%
D28*
%TO.C,D240*%
X45525000Y-82550000D03*
X45525000Y-80450000D03*
%TD*%
D17*
%TO.C,C236*%
X31525000Y-56950000D03*
X31525000Y-54000000D03*
%TD*%
D33*
%TO.C,R240*%
X42062500Y-76500000D03*
X44987500Y-76500000D03*
%TD*%
D11*
%TO.C,R1108*%
X12500000Y-42000000D03*
X14150000Y-42000000D03*
%TD*%
%TO.C,R1105*%
X19900000Y-37500000D03*
X21550000Y-37500000D03*
%TD*%
D16*
%TO.C,D1401*%
X117087500Y-42950000D03*
X117087500Y-41050000D03*
X118962500Y-42000000D03*
%TD*%
D32*
%TO.C,D230*%
X8445000Y-64832500D03*
X12745000Y-64832500D03*
%TD*%
D11*
%TO.C,R1207*%
X39700000Y-42000000D03*
X41350000Y-42000000D03*
%TD*%
%TO.C,R1403*%
X105300000Y-37500000D03*
X106950000Y-37500000D03*
%TD*%
D34*
%TO.C,Y300*%
X52525000Y-64800000D03*
X54725000Y-64800000D03*
X54725000Y-66500000D03*
X52525000Y-66500000D03*
%TD*%
D21*
%TO.C,R291*%
X102525000Y-81325000D03*
X102525000Y-79675000D03*
%TD*%
D12*
%TO.C,U2*%
X37400000Y-31500000D03*
X37400000Y-30500000D03*
X37400000Y-29500000D03*
X37400000Y-28500000D03*
X37400000Y-27500000D03*
X37400000Y-26500000D03*
X37400000Y-25500000D03*
X37400000Y-24500000D03*
X37400000Y-23500000D03*
X37400000Y-22500000D03*
X37400000Y-21500000D03*
X37400000Y-20500000D03*
X37400000Y-19500000D03*
X37400000Y-18500000D03*
X37400000Y-17500000D03*
X55650000Y-17500000D03*
X55650000Y-18500000D03*
X55650000Y-19500000D03*
X55650000Y-20500000D03*
X55650000Y-21500000D03*
X55650000Y-22500000D03*
X55650000Y-23500000D03*
X55650000Y-24500000D03*
X55650000Y-25500000D03*
X55650000Y-26500000D03*
X55650000Y-27500000D03*
X55650000Y-28500000D03*
X55650000Y-29500000D03*
X55650000Y-30500000D03*
X55650000Y-31500000D03*
D13*
X43475000Y-24500000D03*
D14*
X49575000Y-20335000D03*
X49575000Y-28665000D03*
%TD*%
D11*
%TO.C,R1205*%
X50900000Y-37500000D03*
X52550000Y-37500000D03*
%TD*%
D21*
%TO.C,R201*%
X113525000Y-59650000D03*
X113525000Y-58000000D03*
%TD*%
D11*
%TO.C,R1305*%
X81900000Y-37500000D03*
X83550000Y-37500000D03*
%TD*%
%TO.C,R1402*%
X101500000Y-37500000D03*
X103150000Y-37500000D03*
%TD*%
%TO.C,R1404*%
X109100000Y-37500000D03*
X110750000Y-37500000D03*
%TD*%
%TO.C,R1102*%
X8500000Y-37500000D03*
X10150000Y-37500000D03*
%TD*%
%TO.C,R1307*%
X70700000Y-42000000D03*
X72350000Y-42000000D03*
%TD*%
%TO.C,R1405*%
X112900000Y-37500000D03*
X114550000Y-37500000D03*
%TD*%
%TO.C,R1208*%
X43500000Y-42000000D03*
X45150000Y-42000000D03*
%TD*%
%TO.C,R262*%
X85700000Y-75500000D03*
X87350000Y-75500000D03*
%TD*%
D35*
%TO.C,U250*%
X81470000Y-68405000D03*
X81470000Y-67135000D03*
X81470000Y-65865000D03*
X81470000Y-64595000D03*
X86420000Y-64595000D03*
X86420000Y-65865000D03*
X86420000Y-67135000D03*
X86420000Y-68405000D03*
%TD*%
D11*
%TO.C,R1109*%
X16300000Y-42000000D03*
X17950000Y-42000000D03*
%TD*%
D21*
%TO.C,R202*%
X113525000Y-68150000D03*
X113525000Y-66500000D03*
%TD*%
D11*
%TO.C,R1201*%
X35700000Y-37500000D03*
X37350000Y-37500000D03*
%TD*%
D12*
%TO.C,U1*%
X6400000Y-31500000D03*
X6400000Y-30500000D03*
X6400000Y-29500000D03*
X6400000Y-28500000D03*
X6400000Y-27500000D03*
X6400000Y-26500000D03*
X6400000Y-25500000D03*
X6400000Y-24500000D03*
X6400000Y-23500000D03*
X6400000Y-22500000D03*
X6400000Y-21500000D03*
X6400000Y-20500000D03*
X6400000Y-19500000D03*
X6400000Y-18500000D03*
X6400000Y-17500000D03*
X24650000Y-17500000D03*
X24650000Y-18500000D03*
X24650000Y-19500000D03*
X24650000Y-20500000D03*
X24650000Y-21500000D03*
X24650000Y-22500000D03*
X24650000Y-23500000D03*
X24650000Y-24500000D03*
X24650000Y-25500000D03*
X24650000Y-26500000D03*
X24650000Y-27500000D03*
X24650000Y-28500000D03*
X24650000Y-29500000D03*
X24650000Y-30500000D03*
X24650000Y-31500000D03*
D13*
X12475000Y-24500000D03*
D14*
X18575000Y-20335000D03*
X18575000Y-28665000D03*
%TD*%
D10*
%TO.C,C1102*%
X5250000Y-35000000D03*
X6800000Y-35000000D03*
%TD*%
D11*
%TO.C,R1202*%
X39500000Y-37500000D03*
X41150000Y-37500000D03*
%TD*%
D10*
%TO.C,C3008*%
X49750000Y-57500000D03*
X51300000Y-57500000D03*
%TD*%
D11*
%TO.C,R210*%
X108700000Y-72500000D03*
X110350000Y-72500000D03*
%TD*%
%TO.C,R1303*%
X74300000Y-37500000D03*
X75950000Y-37500000D03*
%TD*%
M02*
