M48
; DRILL file KiCad 10.0.4 date 2026-08-05T11:05:32
; FORMAT={-:-/ absolute / metric / decimal}
; #@! TF.CreationDate,2026-08-05T11:05:32+04:00
; #@! TF.GenerationSoftware,Kicad,Pcbnew,10.0.4
; #@! TF.FileFunction,Plated,1,2,PTH
FMAT,2
METRIC
; #@! TA.AperFunction,Plated,PTH,ViaDrill
T1C0.300
; #@! TA.AperFunction,Plated,PTH,ViaDrill
T2C0.350
; #@! TA.AperFunction,Plated,PTH,ViaDrill
T3C0.400
; #@! TA.AperFunction,Plated,PTH,ViaDrill
T4C0.500
; #@! TA.AperFunction,Plated,PTH,ComponentDrill
T5C0.800
; #@! TA.AperFunction,Plated,PTH,ComponentDrill
T6C1.000
; #@! TA.AperFunction,Plated,PTH,ComponentDrill
T7C1.170
; #@! TA.AperFunction,Plated,PTH,ComponentDrill
T8C1.200
; #@! TA.AperFunction,Plated,PTH,ComponentDrill
T9C1.300
; #@! TA.AperFunction,Plated,PTH,ComponentDrill
T10C1.700
%
G90
G05
T1
X31.236Y-46.022
X32.835Y-49.558
X34.295Y-46.294
X35.283Y-61.183
X36.214Y-65.946
X36.874Y-26.0
X36.874Y-38.316
X36.909Y-65.25
X37.111Y-68.992
X37.532Y-54.211
X37.801Y-64.942
X38.428Y-28.099
X38.436Y-62.797
X38.889Y-66.744
X39.07Y-47.511
X40.82Y-30.775
X42.24Y-64.25
X43.142Y-58.595
X43.256Y-70.454
X43.561Y-64.07
X44.023Y-62.364
X44.416Y-58.504
X44.922Y-64.695
X45.018Y-52.452
X45.372Y-65.828
X45.447Y-63.761
X45.69Y-61.364
X46.627Y-69.414
X46.984Y-51.262
X47.601Y-64.069
X47.699Y-69.41
X48.433Y-57.635
X49.803Y-57.993
X50.748Y-57.162
X50.815Y-70.079
X50.911Y-66.854
X51.041Y-58.553
X51.504Y-61.75
X52.839Y-61.663
X53.699Y-60.597
X56.917Y-56.479
X56.921Y-51.262
X56.934Y-39.011
X59.563Y-49.51
X60.738Y-52.0
X60.878Y-59.373
X60.972Y-38.318
X62.7Y-60.23
X63.949Y-47.459
X64.526Y-54.631
X65.305Y-56.036
X65.814Y-60.004
X66.088Y-69.156
X68.715Y-44.807
X69.796Y-45.999
X70.125Y-70.686
X70.9Y-58.875
X72.24Y-45.0
X72.45Y-56.242
X72.748Y-28.0
X72.748Y-26.0
X73.576Y-32.0
X74.179Y-46.316
X74.269Y-33.008
X74.64Y-68.034
X75.361Y-63.677
X78.882Y-30.725
X79.094Y-48.5
X81.8Y-59.2
X81.877Y-60.75
X83.5Y-57.5
X84.0Y-60.05
T2
X28.722Y-45.0
X29.56Y-50.84
X33.134Y-51.774
X37.772Y-30.0
X40.519Y-50.388
X42.368Y-62.039
X46.348Y-62.698
X47.775Y-61.341
X47.863Y-66.25
X48.08Y-56.297
X48.193Y-54.859
X58.652Y-57.149
X64.685Y-52.07
X68.297Y-48.501
X70.29Y-51.479
X77.766Y-30.0
X81.155Y-49.825
X81.155Y-56.804
T3
X23.048Y-26.5
X28.283Y-84.991
X35.078Y-88.879
X40.039Y-47.582
X40.483Y-60.493
X41.475Y-68.5
X56.772Y-82.0
X57.56Y-85.748
X59.5Y-76.825
X72.851Y-81.023
X78.238Y-74.225
X87.957Y-55.353
T4
X22.097Y-43.331
X46.059Y-91.0
X66.785Y-75.521
T5
X56.0Y-59.0
X59.5Y-59.0
T6
X25.5Y-64.46
X25.5Y-67.0
X25.5Y-69.54
X25.5Y-72.08
X25.5Y-74.62
X25.5Y-77.16
X35.0Y-52.868
X35.0Y-57.868
X43.0Y-75.0
X45.54Y-75.0
X48.08Y-75.0
X48.5Y-22.0
X48.5Y-27.0
X48.5Y-35.0
X48.5Y-40.0
X50.62Y-75.0
X53.16Y-75.0
T7
X58.0Y-93.0
X58.0Y-98.0
X75.8Y-93.0
X75.8Y-98.0
T8
X42.0Y-83.0
X42.0Y-88.0
X63.0Y-67.5
X63.0Y-81.5
X81.3Y-67.5
X81.3Y-81.5
T9
X21.75Y-94.5
X25.25Y-94.5
X28.75Y-94.5
X32.25Y-94.5
X86.0Y-94.5
X89.5Y-18.0
X89.5Y-21.5
X89.5Y-25.0
X89.5Y-31.0
X89.5Y-34.5
X89.5Y-38.0
X89.5Y-94.5
X89.9Y-58.5
X89.9Y-62.0
X89.9Y-68.0
X89.9Y-71.5
X90.0Y-49.0
X90.0Y-52.5
T10
X28.5Y-7.5
X33.58Y-7.5
X38.66Y-7.5
X43.74Y-7.5
X64.5Y-7.5
X69.58Y-7.5
X74.66Y-7.5
X79.74Y-7.5
M30
