M48
; DRILL file KiCad 10.0.4 date 2026-08-11T23:53:04
; FORMAT={-:-/ absolute / metric / decimal}
; #@! TF.CreationDate,2026-08-11T23:53:04+04:00
; #@! TF.GenerationSoftware,Kicad,Pcbnew,10.0.4
; #@! TF.FileFunction,Plated,1,2,PTH
FMAT,2
METRIC
; #@! TA.AperFunction,Plated,PTH,ViaDrill
T1C0.300
; #@! TA.AperFunction,Plated,PTH,ViaDrill
T2C0.400
; #@! TA.AperFunction,Plated,PTH,ComponentDrill
T3C0.800
; #@! TA.AperFunction,Plated,PTH,ComponentDrill
T4C1.000
; #@! TA.AperFunction,Plated,PTH,ComponentDrill
T5C1.170
; #@! TA.AperFunction,Plated,PTH,ComponentDrill
T6C1.200
; #@! TA.AperFunction,Plated,PTH,ComponentDrill
T7C1.300
; #@! TA.AperFunction,Plated,PTH,ComponentDrill
T8C1.700
%
G90
G05
T1
X0.897Y-28.184
X4.7Y-56.19
X7.075Y-38.584
X7.377Y-32.942
X7.597Y-28.184
X8.5Y-39.301
X8.531Y-26.353
X8.7Y-56.836
X10.15Y-36.075
X10.546Y-43.471
X14.998Y-32.942
X15.08Y-50.5
X15.605Y-36.055
X15.648Y-32.942
X16.1Y-40.158
X16.298Y-32.942
X16.3Y-31.5
X18.897Y-37.69
X19.321Y-39.542
X21.27Y-61.357
X21.761Y-71.648
X25.233Y-43.471
X34.675Y-75.605
X35.952Y-28.784
X36.073Y-26.774
X36.863Y-62.908
X37.507Y-32.348
X38.258Y-37.611
X38.377Y-34.058
X39.233Y-35.333
X39.654Y-39.727
X40.404Y-43.42
X40.913Y-34.329
X41.076Y-41.017
X42.225Y-36.04
X43.3Y-38.965
X44.95Y-30.575
X46.136Y-37.611
X46.973Y-50.5
X47.429Y-60.831
X48.433Y-64.937
X48.806Y-38.481
X49.124Y-63.433
X50.9Y-34.329
X52.75Y-56.425
X53.25Y-25.55
X53.805Y-25.109
X53.85Y-26.15
X54.033Y-46.213
X54.265Y-25.569
X54.608Y-62.725
X55.137Y-7.377
X56.646Y-60.831
X56.908Y-66.623
X57.415Y-76.206
X57.556Y-67.173
X59.877Y-58.546
X59.929Y-59.888
X60.143Y-67.108
X60.775Y-62.326
X61.02Y-68.664
X62.375Y-70.763
X62.607Y-63.419
X62.937Y-34.426
X63.3Y-58.483
X63.448Y-67.725
X63.553Y-66.111
X63.902Y-62.938
X64.675Y-65.262
X64.775Y-59.532
X65.128Y-63.578
X65.496Y-65.487
X66.259Y-62.128
X66.775Y-58.916
X67.15Y-62.104
X67.423Y-32.348
X67.845Y-82.294
X68.232Y-68.175
X68.275Y-62.132
X68.35Y-38.622
X68.54Y-66.715
X68.545Y-64.256
X69.353Y-72.494
X69.377Y-33.231
X69.429Y-82.488
X69.624Y-62.0
X71.297Y-34.426
X71.491Y-64.328
X71.577Y-69.928
X71.771Y-66.113
X71.819Y-53.781
X72.641Y-42.986
X72.748Y-47.582
X72.812Y-62.811
X72.977Y-82.981
X74.475Y-30.794
X75.298Y-72.494
X76.9Y-67.861
X77.081Y-77.98
X77.762Y-66.189
X78.1Y-38.622
X78.114Y-67.022
X78.35Y-14.0
X78.35Y-14.8
X78.35Y-15.6
X78.681Y-53.781
X79.65Y-14.0
X79.65Y-14.8
X79.65Y-15.6
X79.672Y-65.579
X79.675Y-25.15
X79.675Y-26.45
X80.575Y-25.15
X80.575Y-26.45
X80.575Y-33.231
X80.993Y-37.869
X81.18Y-63.25
X81.229Y-58.306
X81.475Y-25.15
X81.475Y-26.45
X82.017Y-55.993
X84.071Y-12.563
X84.632Y-66.676
X86.087Y-39.767
X87.292Y-61.494
X87.841Y-66.349
X88.168Y-60.007
X90.307Y-69.588
X91.535Y-69.974
X97.7Y-60.257
X98.531Y-59.914
X99.391Y-33.283
X99.525Y-38.508
X100.577Y-26.661
X101.615Y-36.358
X103.348Y-39.633
X103.766Y-72.494
X103.844Y-59.381
X104.274Y-41.511
X104.311Y-48.503
X105.026Y-10.722
X106.158Y-39.153
X106.56Y-66.597
X106.64Y-67.871
X107.73Y-71.53
X108.025Y-36.854
X108.15Y-38.226
X109.159Y-70.312
X110.0Y-60.257
X110.433Y-34.1
X110.433Y-34.8
X110.433Y-35.5
X110.675Y-25.65
X110.675Y-26.95
X110.795Y-74.578
X111.1Y-73.231
X111.487Y-64.613
X111.575Y-25.65
X111.575Y-26.95
X112.35Y-13.5
X112.35Y-14.3
X112.35Y-15.1
X112.421Y-67.653
X112.475Y-25.65
X112.475Y-26.95
X113.65Y-13.5
X113.65Y-14.3
X113.65Y-15.1
X114.508Y-67.943
X117.087Y-39.755
T2
X14.5Y-30.5
X14.5Y-31.5
X15.25Y-30.5
X15.25Y-31.5
X16.0Y-30.5
X52.5Y-25.75
X52.5Y-26.55
X79.0Y-14.0
X79.0Y-14.8
X79.0Y-15.6
X79.675Y-25.8
X80.575Y-25.8
X81.475Y-25.8
X105.826Y-10.722
X105.826Y-11.522
X106.626Y-10.722
X110.675Y-26.3
X111.575Y-26.3
X112.475Y-26.3
X113.0Y-13.5
X113.0Y-14.3
X113.0Y-15.1
T3
X74.292Y-71.0
X77.792Y-71.0
T4
X13.025Y-50.5
X18.025Y-50.5
X44.025Y-50.5
X44.525Y-60.46
X44.525Y-63.0
X44.525Y-65.54
X44.525Y-68.08
X44.525Y-70.62
X44.525Y-73.16
X49.025Y-50.5
X60.7Y-79.5
X60.7Y-84.5
X74.945Y-60.5
X75.025Y-50.5
X77.485Y-60.5
X80.025Y-50.5
X80.025Y-60.5
X82.565Y-60.5
X85.105Y-60.5
X104.577Y-50.5
X109.577Y-50.5
T5
X7.595Y-59.332
X7.595Y-77.132
X12.595Y-59.332
X12.595Y-77.132
T6
X24.525Y-52.15
X24.525Y-70.45
X38.525Y-52.15
X38.525Y-70.45
X94.945Y-63.5
X94.945Y-68.5
T7
X8.345Y-86.5
X11.845Y-86.5
X40.025Y-86.5
X43.525Y-86.5
X47.025Y-86.5
X50.525Y-86.5
X86.025Y-86.5
X89.525Y-86.5
X93.025Y-86.5
X99.025Y-86.5
X102.525Y-86.5
X106.025Y-86.5
X112.025Y-86.5
X115.525Y-86.5
X118.358Y-56.5
X118.358Y-60.0
X118.358Y-65.25
X118.358Y-68.75
X118.358Y-74.25
X118.358Y-77.75
X119.025Y-86.5
T8
X10.445Y-8.5
X15.525Y-8.5
X20.605Y-8.5
X25.685Y-8.5
X42.785Y-8.0
X47.865Y-8.0
X52.945Y-8.0
X58.025Y-8.0
X67.445Y-8.0
X72.525Y-8.0
X77.605Y-8.0
X82.685Y-8.0
X100.945Y-8.0
X106.025Y-8.0
X111.105Y-8.0
X116.185Y-8.0
M30
