%TF.GenerationSoftware,KiCad,Pcbnew,10.0.4*%
%TF.CreationDate,2026-08-11T23:53:03+04:00*%
%TF.ProjectId,UNIVERSAL-4CH-F103RC-IC,554e4956-4552-4534-914c-2d3443482d46,rev?*%
%TF.SameCoordinates,Original*%
%TF.FileFunction,Legend,Top*%
%TF.FilePolarity,Positive*%
%FSLAX46Y46*%
G04 Gerber Fmt 4.6, Leading zero omitted, Abs format (unit mm)*
G04 Created by KiCad (PCBNEW 10.0.4) date 2026-08-11 23:53:03*
%MOMM*%
%LPD*%
G01*
G04 APERTURE LIST*
%ADD10C,0.120000*%
%ADD11C,0.200000*%
%ADD12C,0.100000*%
%ADD13C,0.150000*%
%ADD14C,0.130000*%
%ADD15C,0.300000*%
G04 APERTURE END LIST*
D10*
X86572619Y-81363855D02*
X86191667Y-81363855D01*
X86191667Y-81363855D02*
X86153571Y-81744807D01*
X86153571Y-81744807D02*
X86191667Y-81706712D01*
X86191667Y-81706712D02*
X86267857Y-81668617D01*
X86267857Y-81668617D02*
X86458333Y-81668617D01*
X86458333Y-81668617D02*
X86534524Y-81706712D01*
X86534524Y-81706712D02*
X86572619Y-81744807D01*
X86572619Y-81744807D02*
X86610714Y-81820998D01*
X86610714Y-81820998D02*
X86610714Y-82011474D01*
X86610714Y-82011474D02*
X86572619Y-82087664D01*
X86572619Y-82087664D02*
X86534524Y-82125760D01*
X86534524Y-82125760D02*
X86458333Y-82163855D01*
X86458333Y-82163855D02*
X86267857Y-82163855D01*
X86267857Y-82163855D02*
X86191667Y-82125760D01*
X86191667Y-82125760D02*
X86153571Y-82087664D01*
X86839286Y-81363855D02*
X87105953Y-82163855D01*
X87105953Y-82163855D02*
X87372619Y-81363855D01*
X88210714Y-82125760D02*
X88325000Y-82163855D01*
X88325000Y-82163855D02*
X88515476Y-82163855D01*
X88515476Y-82163855D02*
X88591667Y-82125760D01*
X88591667Y-82125760D02*
X88629762Y-82087664D01*
X88629762Y-82087664D02*
X88667857Y-82011474D01*
X88667857Y-82011474D02*
X88667857Y-81935283D01*
X88667857Y-81935283D02*
X88629762Y-81859093D01*
X88629762Y-81859093D02*
X88591667Y-81820998D01*
X88591667Y-81820998D02*
X88515476Y-81782902D01*
X88515476Y-81782902D02*
X88363095Y-81744807D01*
X88363095Y-81744807D02*
X88286905Y-81706712D01*
X88286905Y-81706712D02*
X88248810Y-81668617D01*
X88248810Y-81668617D02*
X88210714Y-81592426D01*
X88210714Y-81592426D02*
X88210714Y-81516236D01*
X88210714Y-81516236D02*
X88248810Y-81440045D01*
X88248810Y-81440045D02*
X88286905Y-81401950D01*
X88286905Y-81401950D02*
X88363095Y-81363855D01*
X88363095Y-81363855D02*
X88553572Y-81363855D01*
X88553572Y-81363855D02*
X88667857Y-81401950D01*
X89010715Y-82163855D02*
X89010715Y-81363855D01*
X89810714Y-81401950D02*
X89734524Y-81363855D01*
X89734524Y-81363855D02*
X89620238Y-81363855D01*
X89620238Y-81363855D02*
X89505952Y-81401950D01*
X89505952Y-81401950D02*
X89429762Y-81478140D01*
X89429762Y-81478140D02*
X89391667Y-81554331D01*
X89391667Y-81554331D02*
X89353571Y-81706712D01*
X89353571Y-81706712D02*
X89353571Y-81820998D01*
X89353571Y-81820998D02*
X89391667Y-81973379D01*
X89391667Y-81973379D02*
X89429762Y-82049569D01*
X89429762Y-82049569D02*
X89505952Y-82125760D01*
X89505952Y-82125760D02*
X89620238Y-82163855D01*
X89620238Y-82163855D02*
X89696429Y-82163855D01*
X89696429Y-82163855D02*
X89810714Y-82125760D01*
X89810714Y-82125760D02*
X89848810Y-82087664D01*
X89848810Y-82087664D02*
X89848810Y-81820998D01*
X89848810Y-81820998D02*
X89696429Y-81820998D01*
X91220238Y-81401950D02*
X91144048Y-81363855D01*
X91144048Y-81363855D02*
X91029762Y-81363855D01*
X91029762Y-81363855D02*
X90915476Y-81401950D01*
X90915476Y-81401950D02*
X90839286Y-81478140D01*
X90839286Y-81478140D02*
X90801191Y-81554331D01*
X90801191Y-81554331D02*
X90763095Y-81706712D01*
X90763095Y-81706712D02*
X90763095Y-81820998D01*
X90763095Y-81820998D02*
X90801191Y-81973379D01*
X90801191Y-81973379D02*
X90839286Y-82049569D01*
X90839286Y-82049569D02*
X90915476Y-82125760D01*
X90915476Y-82125760D02*
X91029762Y-82163855D01*
X91029762Y-82163855D02*
X91105953Y-82163855D01*
X91105953Y-82163855D02*
X91220238Y-82125760D01*
X91220238Y-82125760D02*
X91258334Y-82087664D01*
X91258334Y-82087664D02*
X91258334Y-81820998D01*
X91258334Y-81820998D02*
X91105953Y-81820998D01*
X91601191Y-82163855D02*
X91601191Y-81363855D01*
X91601191Y-81363855D02*
X92058334Y-82163855D01*
X92058334Y-82163855D02*
X92058334Y-81363855D01*
X92439286Y-82163855D02*
X92439286Y-81363855D01*
X92439286Y-81363855D02*
X92629762Y-81363855D01*
X92629762Y-81363855D02*
X92744048Y-81401950D01*
X92744048Y-81401950D02*
X92820238Y-81478140D01*
X92820238Y-81478140D02*
X92858333Y-81554331D01*
X92858333Y-81554331D02*
X92896429Y-81706712D01*
X92896429Y-81706712D02*
X92896429Y-81820998D01*
X92896429Y-81820998D02*
X92858333Y-81973379D01*
X92858333Y-81973379D02*
X92820238Y-82049569D01*
X92820238Y-82049569D02*
X92744048Y-82125760D01*
X92744048Y-82125760D02*
X92629762Y-82163855D01*
X92629762Y-82163855D02*
X92439286Y-82163855D01*
X96157143Y-78863855D02*
X96157143Y-78063855D01*
X96157143Y-78063855D02*
X96347619Y-78063855D01*
X96347619Y-78063855D02*
X96461905Y-78101950D01*
X96461905Y-78101950D02*
X96538095Y-78178140D01*
X96538095Y-78178140D02*
X96576190Y-78254331D01*
X96576190Y-78254331D02*
X96614286Y-78406712D01*
X96614286Y-78406712D02*
X96614286Y-78520998D01*
X96614286Y-78520998D02*
X96576190Y-78673379D01*
X96576190Y-78673379D02*
X96538095Y-78749569D01*
X96538095Y-78749569D02*
X96461905Y-78825760D01*
X96461905Y-78825760D02*
X96347619Y-78863855D01*
X96347619Y-78863855D02*
X96157143Y-78863855D01*
X96957143Y-78559093D02*
X97566667Y-78559093D01*
X97947619Y-78863855D02*
X97947619Y-78063855D01*
X97947619Y-78063855D02*
X98214285Y-78635283D01*
X98214285Y-78635283D02*
X98480952Y-78063855D01*
X98480952Y-78063855D02*
X98480952Y-78863855D01*
X98900000Y-78863855D02*
X99052381Y-78863855D01*
X99052381Y-78863855D02*
X99128571Y-78825760D01*
X99128571Y-78825760D02*
X99166667Y-78787664D01*
X99166667Y-78787664D02*
X99242857Y-78673379D01*
X99242857Y-78673379D02*
X99280952Y-78520998D01*
X99280952Y-78520998D02*
X99280952Y-78216236D01*
X99280952Y-78216236D02*
X99242857Y-78140045D01*
X99242857Y-78140045D02*
X99204762Y-78101950D01*
X99204762Y-78101950D02*
X99128571Y-78063855D01*
X99128571Y-78063855D02*
X98976190Y-78063855D01*
X98976190Y-78063855D02*
X98900000Y-78101950D01*
X98900000Y-78101950D02*
X98861905Y-78140045D01*
X98861905Y-78140045D02*
X98823809Y-78216236D01*
X98823809Y-78216236D02*
X98823809Y-78406712D01*
X98823809Y-78406712D02*
X98861905Y-78482902D01*
X98861905Y-78482902D02*
X98900000Y-78520998D01*
X98900000Y-78520998D02*
X98976190Y-78559093D01*
X98976190Y-78559093D02*
X99128571Y-78559093D01*
X99128571Y-78559093D02*
X99204762Y-78520998D01*
X99204762Y-78520998D02*
X99242857Y-78482902D01*
X99242857Y-78482902D02*
X99280952Y-78406712D01*
X99623810Y-78863855D02*
X99623810Y-78063855D01*
X99623810Y-78063855D02*
X100080953Y-78863855D01*
X100080953Y-78863855D02*
X100080953Y-78063855D01*
X101642857Y-78025760D02*
X100957143Y-79054331D01*
X102519048Y-78863855D02*
X102519048Y-78063855D01*
X102519048Y-78063855D02*
X102823810Y-78063855D01*
X102823810Y-78063855D02*
X102900000Y-78101950D01*
X102900000Y-78101950D02*
X102938095Y-78140045D01*
X102938095Y-78140045D02*
X102976191Y-78216236D01*
X102976191Y-78216236D02*
X102976191Y-78330521D01*
X102976191Y-78330521D02*
X102938095Y-78406712D01*
X102938095Y-78406712D02*
X102900000Y-78444807D01*
X102900000Y-78444807D02*
X102823810Y-78482902D01*
X102823810Y-78482902D02*
X102519048Y-78482902D01*
X103319048Y-78559093D02*
X103928572Y-78559093D01*
X104271428Y-78825760D02*
X104385714Y-78863855D01*
X104385714Y-78863855D02*
X104576190Y-78863855D01*
X104576190Y-78863855D02*
X104652381Y-78825760D01*
X104652381Y-78825760D02*
X104690476Y-78787664D01*
X104690476Y-78787664D02*
X104728571Y-78711474D01*
X104728571Y-78711474D02*
X104728571Y-78635283D01*
X104728571Y-78635283D02*
X104690476Y-78559093D01*
X104690476Y-78559093D02*
X104652381Y-78520998D01*
X104652381Y-78520998D02*
X104576190Y-78482902D01*
X104576190Y-78482902D02*
X104423809Y-78444807D01*
X104423809Y-78444807D02*
X104347619Y-78406712D01*
X104347619Y-78406712D02*
X104309524Y-78368617D01*
X104309524Y-78368617D02*
X104271428Y-78292426D01*
X104271428Y-78292426D02*
X104271428Y-78216236D01*
X104271428Y-78216236D02*
X104309524Y-78140045D01*
X104309524Y-78140045D02*
X104347619Y-78101950D01*
X104347619Y-78101950D02*
X104423809Y-78063855D01*
X104423809Y-78063855D02*
X104614286Y-78063855D01*
X104614286Y-78063855D02*
X104728571Y-78101950D01*
X105033333Y-78635283D02*
X105414286Y-78635283D01*
X104957143Y-78863855D02*
X105223810Y-78063855D01*
X105223810Y-78063855D02*
X105490476Y-78863855D01*
X106023809Y-78444807D02*
X105757143Y-78444807D01*
X105757143Y-78863855D02*
X105757143Y-78063855D01*
X105757143Y-78063855D02*
X106138095Y-78063855D01*
X106442857Y-78444807D02*
X106709523Y-78444807D01*
X106823809Y-78863855D02*
X106442857Y-78863855D01*
X106442857Y-78863855D02*
X106442857Y-78063855D01*
X106442857Y-78063855D02*
X106823809Y-78063855D01*
X108157143Y-78063855D02*
X107776191Y-78063855D01*
X107776191Y-78063855D02*
X107738095Y-78444807D01*
X107738095Y-78444807D02*
X107776191Y-78406712D01*
X107776191Y-78406712D02*
X107852381Y-78368617D01*
X107852381Y-78368617D02*
X108042857Y-78368617D01*
X108042857Y-78368617D02*
X108119048Y-78406712D01*
X108119048Y-78406712D02*
X108157143Y-78444807D01*
X108157143Y-78444807D02*
X108195238Y-78520998D01*
X108195238Y-78520998D02*
X108195238Y-78711474D01*
X108195238Y-78711474D02*
X108157143Y-78787664D01*
X108157143Y-78787664D02*
X108119048Y-78825760D01*
X108119048Y-78825760D02*
X108042857Y-78863855D01*
X108042857Y-78863855D02*
X107852381Y-78863855D01*
X107852381Y-78863855D02*
X107776191Y-78825760D01*
X107776191Y-78825760D02*
X107738095Y-78787664D01*
X108423810Y-78063855D02*
X108690477Y-78863855D01*
X108690477Y-78863855D02*
X108957143Y-78063855D01*
X99572619Y-81363855D02*
X99191667Y-81363855D01*
X99191667Y-81363855D02*
X99153571Y-81744807D01*
X99153571Y-81744807D02*
X99191667Y-81706712D01*
X99191667Y-81706712D02*
X99267857Y-81668617D01*
X99267857Y-81668617D02*
X99458333Y-81668617D01*
X99458333Y-81668617D02*
X99534524Y-81706712D01*
X99534524Y-81706712D02*
X99572619Y-81744807D01*
X99572619Y-81744807D02*
X99610714Y-81820998D01*
X99610714Y-81820998D02*
X99610714Y-82011474D01*
X99610714Y-82011474D02*
X99572619Y-82087664D01*
X99572619Y-82087664D02*
X99534524Y-82125760D01*
X99534524Y-82125760D02*
X99458333Y-82163855D01*
X99458333Y-82163855D02*
X99267857Y-82163855D01*
X99267857Y-82163855D02*
X99191667Y-82125760D01*
X99191667Y-82125760D02*
X99153571Y-82087664D01*
X99839286Y-81363855D02*
X100105953Y-82163855D01*
X100105953Y-82163855D02*
X100372619Y-81363855D01*
X101210714Y-82125760D02*
X101325000Y-82163855D01*
X101325000Y-82163855D02*
X101515476Y-82163855D01*
X101515476Y-82163855D02*
X101591667Y-82125760D01*
X101591667Y-82125760D02*
X101629762Y-82087664D01*
X101629762Y-82087664D02*
X101667857Y-82011474D01*
X101667857Y-82011474D02*
X101667857Y-81935283D01*
X101667857Y-81935283D02*
X101629762Y-81859093D01*
X101629762Y-81859093D02*
X101591667Y-81820998D01*
X101591667Y-81820998D02*
X101515476Y-81782902D01*
X101515476Y-81782902D02*
X101363095Y-81744807D01*
X101363095Y-81744807D02*
X101286905Y-81706712D01*
X101286905Y-81706712D02*
X101248810Y-81668617D01*
X101248810Y-81668617D02*
X101210714Y-81592426D01*
X101210714Y-81592426D02*
X101210714Y-81516236D01*
X101210714Y-81516236D02*
X101248810Y-81440045D01*
X101248810Y-81440045D02*
X101286905Y-81401950D01*
X101286905Y-81401950D02*
X101363095Y-81363855D01*
X101363095Y-81363855D02*
X101553572Y-81363855D01*
X101553572Y-81363855D02*
X101667857Y-81401950D01*
X102010715Y-82163855D02*
X102010715Y-81363855D01*
X102810714Y-81401950D02*
X102734524Y-81363855D01*
X102734524Y-81363855D02*
X102620238Y-81363855D01*
X102620238Y-81363855D02*
X102505952Y-81401950D01*
X102505952Y-81401950D02*
X102429762Y-81478140D01*
X102429762Y-81478140D02*
X102391667Y-81554331D01*
X102391667Y-81554331D02*
X102353571Y-81706712D01*
X102353571Y-81706712D02*
X102353571Y-81820998D01*
X102353571Y-81820998D02*
X102391667Y-81973379D01*
X102391667Y-81973379D02*
X102429762Y-82049569D01*
X102429762Y-82049569D02*
X102505952Y-82125760D01*
X102505952Y-82125760D02*
X102620238Y-82163855D01*
X102620238Y-82163855D02*
X102696429Y-82163855D01*
X102696429Y-82163855D02*
X102810714Y-82125760D01*
X102810714Y-82125760D02*
X102848810Y-82087664D01*
X102848810Y-82087664D02*
X102848810Y-81820998D01*
X102848810Y-81820998D02*
X102696429Y-81820998D01*
X104220238Y-81401950D02*
X104144048Y-81363855D01*
X104144048Y-81363855D02*
X104029762Y-81363855D01*
X104029762Y-81363855D02*
X103915476Y-81401950D01*
X103915476Y-81401950D02*
X103839286Y-81478140D01*
X103839286Y-81478140D02*
X103801191Y-81554331D01*
X103801191Y-81554331D02*
X103763095Y-81706712D01*
X103763095Y-81706712D02*
X103763095Y-81820998D01*
X103763095Y-81820998D02*
X103801191Y-81973379D01*
X103801191Y-81973379D02*
X103839286Y-82049569D01*
X103839286Y-82049569D02*
X103915476Y-82125760D01*
X103915476Y-82125760D02*
X104029762Y-82163855D01*
X104029762Y-82163855D02*
X104105953Y-82163855D01*
X104105953Y-82163855D02*
X104220238Y-82125760D01*
X104220238Y-82125760D02*
X104258334Y-82087664D01*
X104258334Y-82087664D02*
X104258334Y-81820998D01*
X104258334Y-81820998D02*
X104105953Y-81820998D01*
X104601191Y-82163855D02*
X104601191Y-81363855D01*
X104601191Y-81363855D02*
X105058334Y-82163855D01*
X105058334Y-82163855D02*
X105058334Y-81363855D01*
X105439286Y-82163855D02*
X105439286Y-81363855D01*
X105439286Y-81363855D02*
X105629762Y-81363855D01*
X105629762Y-81363855D02*
X105744048Y-81401950D01*
X105744048Y-81401950D02*
X105820238Y-81478140D01*
X105820238Y-81478140D02*
X105858333Y-81554331D01*
X105858333Y-81554331D02*
X105896429Y-81706712D01*
X105896429Y-81706712D02*
X105896429Y-81820998D01*
X105896429Y-81820998D02*
X105858333Y-81973379D01*
X105858333Y-81973379D02*
X105820238Y-82049569D01*
X105820238Y-82049569D02*
X105744048Y-82125760D01*
X105744048Y-82125760D02*
X105629762Y-82163855D01*
X105629762Y-82163855D02*
X105439286Y-82163855D01*
X112572619Y-81363855D02*
X112191667Y-81363855D01*
X112191667Y-81363855D02*
X112153571Y-81744807D01*
X112153571Y-81744807D02*
X112191667Y-81706712D01*
X112191667Y-81706712D02*
X112267857Y-81668617D01*
X112267857Y-81668617D02*
X112458333Y-81668617D01*
X112458333Y-81668617D02*
X112534524Y-81706712D01*
X112534524Y-81706712D02*
X112572619Y-81744807D01*
X112572619Y-81744807D02*
X112610714Y-81820998D01*
X112610714Y-81820998D02*
X112610714Y-82011474D01*
X112610714Y-82011474D02*
X112572619Y-82087664D01*
X112572619Y-82087664D02*
X112534524Y-82125760D01*
X112534524Y-82125760D02*
X112458333Y-82163855D01*
X112458333Y-82163855D02*
X112267857Y-82163855D01*
X112267857Y-82163855D02*
X112191667Y-82125760D01*
X112191667Y-82125760D02*
X112153571Y-82087664D01*
X112839286Y-81363855D02*
X113105953Y-82163855D01*
X113105953Y-82163855D02*
X113372619Y-81363855D01*
X114210714Y-82125760D02*
X114325000Y-82163855D01*
X114325000Y-82163855D02*
X114515476Y-82163855D01*
X114515476Y-82163855D02*
X114591667Y-82125760D01*
X114591667Y-82125760D02*
X114629762Y-82087664D01*
X114629762Y-82087664D02*
X114667857Y-82011474D01*
X114667857Y-82011474D02*
X114667857Y-81935283D01*
X114667857Y-81935283D02*
X114629762Y-81859093D01*
X114629762Y-81859093D02*
X114591667Y-81820998D01*
X114591667Y-81820998D02*
X114515476Y-81782902D01*
X114515476Y-81782902D02*
X114363095Y-81744807D01*
X114363095Y-81744807D02*
X114286905Y-81706712D01*
X114286905Y-81706712D02*
X114248810Y-81668617D01*
X114248810Y-81668617D02*
X114210714Y-81592426D01*
X114210714Y-81592426D02*
X114210714Y-81516236D01*
X114210714Y-81516236D02*
X114248810Y-81440045D01*
X114248810Y-81440045D02*
X114286905Y-81401950D01*
X114286905Y-81401950D02*
X114363095Y-81363855D01*
X114363095Y-81363855D02*
X114553572Y-81363855D01*
X114553572Y-81363855D02*
X114667857Y-81401950D01*
X115010715Y-82163855D02*
X115010715Y-81363855D01*
X115810714Y-81401950D02*
X115734524Y-81363855D01*
X115734524Y-81363855D02*
X115620238Y-81363855D01*
X115620238Y-81363855D02*
X115505952Y-81401950D01*
X115505952Y-81401950D02*
X115429762Y-81478140D01*
X115429762Y-81478140D02*
X115391667Y-81554331D01*
X115391667Y-81554331D02*
X115353571Y-81706712D01*
X115353571Y-81706712D02*
X115353571Y-81820998D01*
X115353571Y-81820998D02*
X115391667Y-81973379D01*
X115391667Y-81973379D02*
X115429762Y-82049569D01*
X115429762Y-82049569D02*
X115505952Y-82125760D01*
X115505952Y-82125760D02*
X115620238Y-82163855D01*
X115620238Y-82163855D02*
X115696429Y-82163855D01*
X115696429Y-82163855D02*
X115810714Y-82125760D01*
X115810714Y-82125760D02*
X115848810Y-82087664D01*
X115848810Y-82087664D02*
X115848810Y-81820998D01*
X115848810Y-81820998D02*
X115696429Y-81820998D01*
X117220238Y-81401950D02*
X117144048Y-81363855D01*
X117144048Y-81363855D02*
X117029762Y-81363855D01*
X117029762Y-81363855D02*
X116915476Y-81401950D01*
X116915476Y-81401950D02*
X116839286Y-81478140D01*
X116839286Y-81478140D02*
X116801191Y-81554331D01*
X116801191Y-81554331D02*
X116763095Y-81706712D01*
X116763095Y-81706712D02*
X116763095Y-81820998D01*
X116763095Y-81820998D02*
X116801191Y-81973379D01*
X116801191Y-81973379D02*
X116839286Y-82049569D01*
X116839286Y-82049569D02*
X116915476Y-82125760D01*
X116915476Y-82125760D02*
X117029762Y-82163855D01*
X117029762Y-82163855D02*
X117105953Y-82163855D01*
X117105953Y-82163855D02*
X117220238Y-82125760D01*
X117220238Y-82125760D02*
X117258334Y-82087664D01*
X117258334Y-82087664D02*
X117258334Y-81820998D01*
X117258334Y-81820998D02*
X117105953Y-81820998D01*
X117601191Y-82163855D02*
X117601191Y-81363855D01*
X117601191Y-81363855D02*
X118058334Y-82163855D01*
X118058334Y-82163855D02*
X118058334Y-81363855D01*
X118439286Y-82163855D02*
X118439286Y-81363855D01*
X118439286Y-81363855D02*
X118629762Y-81363855D01*
X118629762Y-81363855D02*
X118744048Y-81401950D01*
X118744048Y-81401950D02*
X118820238Y-81478140D01*
X118820238Y-81478140D02*
X118858333Y-81554331D01*
X118858333Y-81554331D02*
X118896429Y-81706712D01*
X118896429Y-81706712D02*
X118896429Y-81820998D01*
X118896429Y-81820998D02*
X118858333Y-81973379D01*
X118858333Y-81973379D02*
X118820238Y-82049569D01*
X118820238Y-82049569D02*
X118744048Y-82125760D01*
X118744048Y-82125760D02*
X118629762Y-82163855D01*
X118629762Y-82163855D02*
X118439286Y-82163855D01*
D11*
X78582143Y-57844742D02*
X78582143Y-58816171D01*
X78582143Y-58816171D02*
X78639286Y-58930457D01*
X78639286Y-58930457D02*
X78696429Y-58987600D01*
X78696429Y-58987600D02*
X78810714Y-59044742D01*
X78810714Y-59044742D02*
X79039286Y-59044742D01*
X79039286Y-59044742D02*
X79153571Y-58987600D01*
X79153571Y-58987600D02*
X79210714Y-58930457D01*
X79210714Y-58930457D02*
X79267857Y-58816171D01*
X79267857Y-58816171D02*
X79267857Y-57844742D01*
X79839286Y-59044742D02*
X79839286Y-57844742D01*
X79839286Y-57844742D02*
X80525000Y-59044742D01*
X80525000Y-59044742D02*
X80525000Y-57844742D01*
X81096429Y-59044742D02*
X81096429Y-57844742D01*
X81496429Y-57844742D02*
X81896429Y-59044742D01*
X81896429Y-59044742D02*
X82296429Y-57844742D01*
X82696429Y-58416171D02*
X83096429Y-58416171D01*
X83267857Y-59044742D02*
X82696429Y-59044742D01*
X82696429Y-59044742D02*
X82696429Y-57844742D01*
X82696429Y-57844742D02*
X83267857Y-57844742D01*
X84467857Y-59044742D02*
X84067857Y-58473314D01*
X83782143Y-59044742D02*
X83782143Y-57844742D01*
X83782143Y-57844742D02*
X84239286Y-57844742D01*
X84239286Y-57844742D02*
X84353571Y-57901885D01*
X84353571Y-57901885D02*
X84410714Y-57959028D01*
X84410714Y-57959028D02*
X84467857Y-58073314D01*
X84467857Y-58073314D02*
X84467857Y-58244742D01*
X84467857Y-58244742D02*
X84410714Y-58359028D01*
X84410714Y-58359028D02*
X84353571Y-58416171D01*
X84353571Y-58416171D02*
X84239286Y-58473314D01*
X84239286Y-58473314D02*
X83782143Y-58473314D01*
X84925000Y-58987600D02*
X85096429Y-59044742D01*
X85096429Y-59044742D02*
X85382143Y-59044742D01*
X85382143Y-59044742D02*
X85496429Y-58987600D01*
X85496429Y-58987600D02*
X85553571Y-58930457D01*
X85553571Y-58930457D02*
X85610714Y-58816171D01*
X85610714Y-58816171D02*
X85610714Y-58701885D01*
X85610714Y-58701885D02*
X85553571Y-58587600D01*
X85553571Y-58587600D02*
X85496429Y-58530457D01*
X85496429Y-58530457D02*
X85382143Y-58473314D01*
X85382143Y-58473314D02*
X85153571Y-58416171D01*
X85153571Y-58416171D02*
X85039286Y-58359028D01*
X85039286Y-58359028D02*
X84982143Y-58301885D01*
X84982143Y-58301885D02*
X84925000Y-58187600D01*
X84925000Y-58187600D02*
X84925000Y-58073314D01*
X84925000Y-58073314D02*
X84982143Y-57959028D01*
X84982143Y-57959028D02*
X85039286Y-57901885D01*
X85039286Y-57901885D02*
X85153571Y-57844742D01*
X85153571Y-57844742D02*
X85439286Y-57844742D01*
X85439286Y-57844742D02*
X85610714Y-57901885D01*
X86067857Y-58701885D02*
X86639286Y-58701885D01*
X85953571Y-59044742D02*
X86353571Y-57844742D01*
X86353571Y-57844742D02*
X86753571Y-59044742D01*
X87724999Y-59044742D02*
X87153571Y-59044742D01*
X87153571Y-59044742D02*
X87153571Y-57844742D01*
X89553572Y-58244742D02*
X89553572Y-59044742D01*
X89267857Y-57787600D02*
X88982143Y-58644742D01*
X88982143Y-58644742D02*
X89725000Y-58644742D01*
X90867857Y-58930457D02*
X90810714Y-58987600D01*
X90810714Y-58987600D02*
X90639286Y-59044742D01*
X90639286Y-59044742D02*
X90525000Y-59044742D01*
X90525000Y-59044742D02*
X90353571Y-58987600D01*
X90353571Y-58987600D02*
X90239286Y-58873314D01*
X90239286Y-58873314D02*
X90182143Y-58759028D01*
X90182143Y-58759028D02*
X90125000Y-58530457D01*
X90125000Y-58530457D02*
X90125000Y-58359028D01*
X90125000Y-58359028D02*
X90182143Y-58130457D01*
X90182143Y-58130457D02*
X90239286Y-58016171D01*
X90239286Y-58016171D02*
X90353571Y-57901885D01*
X90353571Y-57901885D02*
X90525000Y-57844742D01*
X90525000Y-57844742D02*
X90639286Y-57844742D01*
X90639286Y-57844742D02*
X90810714Y-57901885D01*
X90810714Y-57901885D02*
X90867857Y-57959028D01*
X91382143Y-59044742D02*
X91382143Y-57844742D01*
X91382143Y-58416171D02*
X92067857Y-58416171D01*
X92067857Y-59044742D02*
X92067857Y-57844742D01*
X94410715Y-58987600D02*
X94582144Y-59044742D01*
X94582144Y-59044742D02*
X94867858Y-59044742D01*
X94867858Y-59044742D02*
X94982144Y-58987600D01*
X94982144Y-58987600D02*
X95039286Y-58930457D01*
X95039286Y-58930457D02*
X95096429Y-58816171D01*
X95096429Y-58816171D02*
X95096429Y-58701885D01*
X95096429Y-58701885D02*
X95039286Y-58587600D01*
X95039286Y-58587600D02*
X94982144Y-58530457D01*
X94982144Y-58530457D02*
X94867858Y-58473314D01*
X94867858Y-58473314D02*
X94639286Y-58416171D01*
X94639286Y-58416171D02*
X94525001Y-58359028D01*
X94525001Y-58359028D02*
X94467858Y-58301885D01*
X94467858Y-58301885D02*
X94410715Y-58187600D01*
X94410715Y-58187600D02*
X94410715Y-58073314D01*
X94410715Y-58073314D02*
X94467858Y-57959028D01*
X94467858Y-57959028D02*
X94525001Y-57901885D01*
X94525001Y-57901885D02*
X94639286Y-57844742D01*
X94639286Y-57844742D02*
X94925001Y-57844742D01*
X94925001Y-57844742D02*
X95096429Y-57901885D01*
X95439286Y-57844742D02*
X96125001Y-57844742D01*
X95782143Y-59044742D02*
X95782143Y-57844742D01*
X96525001Y-59044742D02*
X96525001Y-57844742D01*
X96525001Y-57844742D02*
X96925001Y-58701885D01*
X96925001Y-58701885D02*
X97325001Y-57844742D01*
X97325001Y-57844742D02*
X97325001Y-59044742D01*
X97782144Y-57844742D02*
X98525001Y-57844742D01*
X98525001Y-57844742D02*
X98125001Y-58301885D01*
X98125001Y-58301885D02*
X98296430Y-58301885D01*
X98296430Y-58301885D02*
X98410716Y-58359028D01*
X98410716Y-58359028D02*
X98467858Y-58416171D01*
X98467858Y-58416171D02*
X98525001Y-58530457D01*
X98525001Y-58530457D02*
X98525001Y-58816171D01*
X98525001Y-58816171D02*
X98467858Y-58930457D01*
X98467858Y-58930457D02*
X98410716Y-58987600D01*
X98410716Y-58987600D02*
X98296430Y-59044742D01*
X98296430Y-59044742D02*
X97953573Y-59044742D01*
X97953573Y-59044742D02*
X97839287Y-58987600D01*
X97839287Y-58987600D02*
X97782144Y-58930457D01*
X98982144Y-57959028D02*
X99039287Y-57901885D01*
X99039287Y-57901885D02*
X99153573Y-57844742D01*
X99153573Y-57844742D02*
X99439287Y-57844742D01*
X99439287Y-57844742D02*
X99553573Y-57901885D01*
X99553573Y-57901885D02*
X99610715Y-57959028D01*
X99610715Y-57959028D02*
X99667858Y-58073314D01*
X99667858Y-58073314D02*
X99667858Y-58187600D01*
X99667858Y-58187600D02*
X99610715Y-58359028D01*
X99610715Y-58359028D02*
X98925001Y-59044742D01*
X98925001Y-59044742D02*
X99667858Y-59044742D01*
X100582144Y-58416171D02*
X100182144Y-58416171D01*
X100182144Y-59044742D02*
X100182144Y-57844742D01*
X100182144Y-57844742D02*
X100753572Y-57844742D01*
X101839286Y-59044742D02*
X101153572Y-59044742D01*
X101496429Y-59044742D02*
X101496429Y-57844742D01*
X101496429Y-57844742D02*
X101382143Y-58016171D01*
X101382143Y-58016171D02*
X101267858Y-58130457D01*
X101267858Y-58130457D02*
X101153572Y-58187600D01*
X102582143Y-57844742D02*
X102696429Y-57844742D01*
X102696429Y-57844742D02*
X102810715Y-57901885D01*
X102810715Y-57901885D02*
X102867858Y-57959028D01*
X102867858Y-57959028D02*
X102925000Y-58073314D01*
X102925000Y-58073314D02*
X102982143Y-58301885D01*
X102982143Y-58301885D02*
X102982143Y-58587600D01*
X102982143Y-58587600D02*
X102925000Y-58816171D01*
X102925000Y-58816171D02*
X102867858Y-58930457D01*
X102867858Y-58930457D02*
X102810715Y-58987600D01*
X102810715Y-58987600D02*
X102696429Y-59044742D01*
X102696429Y-59044742D02*
X102582143Y-59044742D01*
X102582143Y-59044742D02*
X102467858Y-58987600D01*
X102467858Y-58987600D02*
X102410715Y-58930457D01*
X102410715Y-58930457D02*
X102353572Y-58816171D01*
X102353572Y-58816171D02*
X102296429Y-58587600D01*
X102296429Y-58587600D02*
X102296429Y-58301885D01*
X102296429Y-58301885D02*
X102353572Y-58073314D01*
X102353572Y-58073314D02*
X102410715Y-57959028D01*
X102410715Y-57959028D02*
X102467858Y-57901885D01*
X102467858Y-57901885D02*
X102582143Y-57844742D01*
X103382143Y-57844742D02*
X104125000Y-57844742D01*
X104125000Y-57844742D02*
X103725000Y-58301885D01*
X103725000Y-58301885D02*
X103896429Y-58301885D01*
X103896429Y-58301885D02*
X104010715Y-58359028D01*
X104010715Y-58359028D02*
X104067857Y-58416171D01*
X104067857Y-58416171D02*
X104125000Y-58530457D01*
X104125000Y-58530457D02*
X104125000Y-58816171D01*
X104125000Y-58816171D02*
X104067857Y-58930457D01*
X104067857Y-58930457D02*
X104010715Y-58987600D01*
X104010715Y-58987600D02*
X103896429Y-59044742D01*
X103896429Y-59044742D02*
X103553572Y-59044742D01*
X103553572Y-59044742D02*
X103439286Y-58987600D01*
X103439286Y-58987600D02*
X103382143Y-58930457D01*
X105325000Y-59044742D02*
X104925000Y-58473314D01*
X104639286Y-59044742D02*
X104639286Y-57844742D01*
X104639286Y-57844742D02*
X105096429Y-57844742D01*
X105096429Y-57844742D02*
X105210714Y-57901885D01*
X105210714Y-57901885D02*
X105267857Y-57959028D01*
X105267857Y-57959028D02*
X105325000Y-58073314D01*
X105325000Y-58073314D02*
X105325000Y-58244742D01*
X105325000Y-58244742D02*
X105267857Y-58359028D01*
X105267857Y-58359028D02*
X105210714Y-58416171D01*
X105210714Y-58416171D02*
X105096429Y-58473314D01*
X105096429Y-58473314D02*
X104639286Y-58473314D01*
X106525000Y-58930457D02*
X106467857Y-58987600D01*
X106467857Y-58987600D02*
X106296429Y-59044742D01*
X106296429Y-59044742D02*
X106182143Y-59044742D01*
X106182143Y-59044742D02*
X106010714Y-58987600D01*
X106010714Y-58987600D02*
X105896429Y-58873314D01*
X105896429Y-58873314D02*
X105839286Y-58759028D01*
X105839286Y-58759028D02*
X105782143Y-58530457D01*
X105782143Y-58530457D02*
X105782143Y-58359028D01*
X105782143Y-58359028D02*
X105839286Y-58130457D01*
X105839286Y-58130457D02*
X105896429Y-58016171D01*
X105896429Y-58016171D02*
X106010714Y-57901885D01*
X106010714Y-57901885D02*
X106182143Y-57844742D01*
X106182143Y-57844742D02*
X106296429Y-57844742D01*
X106296429Y-57844742D02*
X106467857Y-57901885D01*
X106467857Y-57901885D02*
X106525000Y-57959028D01*
D12*
X101496428Y-90564895D02*
X101496428Y-91136323D01*
X101496428Y-91136323D02*
X101458333Y-91250609D01*
X101458333Y-91250609D02*
X101382142Y-91326800D01*
X101382142Y-91326800D02*
X101267857Y-91364895D01*
X101267857Y-91364895D02*
X101191666Y-91364895D01*
X101839285Y-90641085D02*
X101877381Y-90602990D01*
X101877381Y-90602990D02*
X101953571Y-90564895D01*
X101953571Y-90564895D02*
X102144047Y-90564895D01*
X102144047Y-90564895D02*
X102220238Y-90602990D01*
X102220238Y-90602990D02*
X102258333Y-90641085D01*
X102258333Y-90641085D02*
X102296428Y-90717276D01*
X102296428Y-90717276D02*
X102296428Y-90793466D01*
X102296428Y-90793466D02*
X102258333Y-90907752D01*
X102258333Y-90907752D02*
X101801190Y-91364895D01*
X101801190Y-91364895D02*
X102296428Y-91364895D01*
X102791667Y-90564895D02*
X102867857Y-90564895D01*
X102867857Y-90564895D02*
X102944048Y-90602990D01*
X102944048Y-90602990D02*
X102982143Y-90641085D01*
X102982143Y-90641085D02*
X103020238Y-90717276D01*
X103020238Y-90717276D02*
X103058333Y-90869657D01*
X103058333Y-90869657D02*
X103058333Y-91060133D01*
X103058333Y-91060133D02*
X103020238Y-91212514D01*
X103020238Y-91212514D02*
X102982143Y-91288704D01*
X102982143Y-91288704D02*
X102944048Y-91326800D01*
X102944048Y-91326800D02*
X102867857Y-91364895D01*
X102867857Y-91364895D02*
X102791667Y-91364895D01*
X102791667Y-91364895D02*
X102715476Y-91326800D01*
X102715476Y-91326800D02*
X102677381Y-91288704D01*
X102677381Y-91288704D02*
X102639286Y-91212514D01*
X102639286Y-91212514D02*
X102601190Y-91060133D01*
X102601190Y-91060133D02*
X102601190Y-90869657D01*
X102601190Y-90869657D02*
X102639286Y-90717276D01*
X102639286Y-90717276D02*
X102677381Y-90641085D01*
X102677381Y-90641085D02*
X102715476Y-90602990D01*
X102715476Y-90602990D02*
X102791667Y-90564895D01*
X103363095Y-90641085D02*
X103401191Y-90602990D01*
X103401191Y-90602990D02*
X103477381Y-90564895D01*
X103477381Y-90564895D02*
X103667857Y-90564895D01*
X103667857Y-90564895D02*
X103744048Y-90602990D01*
X103744048Y-90602990D02*
X103782143Y-90641085D01*
X103782143Y-90641085D02*
X103820238Y-90717276D01*
X103820238Y-90717276D02*
X103820238Y-90793466D01*
X103820238Y-90793466D02*
X103782143Y-90907752D01*
X103782143Y-90907752D02*
X103325000Y-91364895D01*
X103325000Y-91364895D02*
X103820238Y-91364895D01*
D13*
X72127295Y-61528571D02*
X72698723Y-61528571D01*
X72698723Y-61528571D02*
X72813009Y-61566666D01*
X72813009Y-61566666D02*
X72889200Y-61642857D01*
X72889200Y-61642857D02*
X72927295Y-61757142D01*
X72927295Y-61757142D02*
X72927295Y-61833333D01*
X72203485Y-61185714D02*
X72165390Y-61147618D01*
X72165390Y-61147618D02*
X72127295Y-61071428D01*
X72127295Y-61071428D02*
X72127295Y-60880952D01*
X72127295Y-60880952D02*
X72165390Y-60804761D01*
X72165390Y-60804761D02*
X72203485Y-60766666D01*
X72203485Y-60766666D02*
X72279676Y-60728571D01*
X72279676Y-60728571D02*
X72355866Y-60728571D01*
X72355866Y-60728571D02*
X72470152Y-60766666D01*
X72470152Y-60766666D02*
X72927295Y-61223809D01*
X72927295Y-61223809D02*
X72927295Y-60728571D01*
X72203485Y-60423809D02*
X72165390Y-60385713D01*
X72165390Y-60385713D02*
X72127295Y-60309523D01*
X72127295Y-60309523D02*
X72127295Y-60119047D01*
X72127295Y-60119047D02*
X72165390Y-60042856D01*
X72165390Y-60042856D02*
X72203485Y-60004761D01*
X72203485Y-60004761D02*
X72279676Y-59966666D01*
X72279676Y-59966666D02*
X72355866Y-59966666D01*
X72355866Y-59966666D02*
X72470152Y-60004761D01*
X72470152Y-60004761D02*
X72927295Y-60461904D01*
X72927295Y-60461904D02*
X72927295Y-59966666D01*
X72127295Y-59471427D02*
X72127295Y-59395237D01*
X72127295Y-59395237D02*
X72165390Y-59319046D01*
X72165390Y-59319046D02*
X72203485Y-59280951D01*
X72203485Y-59280951D02*
X72279676Y-59242856D01*
X72279676Y-59242856D02*
X72432057Y-59204761D01*
X72432057Y-59204761D02*
X72622533Y-59204761D01*
X72622533Y-59204761D02*
X72774914Y-59242856D01*
X72774914Y-59242856D02*
X72851104Y-59280951D01*
X72851104Y-59280951D02*
X72889200Y-59319046D01*
X72889200Y-59319046D02*
X72927295Y-59395237D01*
X72927295Y-59395237D02*
X72927295Y-59471427D01*
X72927295Y-59471427D02*
X72889200Y-59547618D01*
X72889200Y-59547618D02*
X72851104Y-59585713D01*
X72851104Y-59585713D02*
X72774914Y-59623808D01*
X72774914Y-59623808D02*
X72622533Y-59661904D01*
X72622533Y-59661904D02*
X72432057Y-59661904D01*
X72432057Y-59661904D02*
X72279676Y-59623808D01*
X72279676Y-59623808D02*
X72203485Y-59585713D01*
X72203485Y-59585713D02*
X72165390Y-59547618D01*
X72165390Y-59547618D02*
X72127295Y-59471427D01*
X122139795Y-59278571D02*
X122711223Y-59278571D01*
X122711223Y-59278571D02*
X122825509Y-59316666D01*
X122825509Y-59316666D02*
X122901700Y-59392857D01*
X122901700Y-59392857D02*
X122939795Y-59507142D01*
X122939795Y-59507142D02*
X122939795Y-59583333D01*
X122215985Y-58935714D02*
X122177890Y-58897618D01*
X122177890Y-58897618D02*
X122139795Y-58821428D01*
X122139795Y-58821428D02*
X122139795Y-58630952D01*
X122139795Y-58630952D02*
X122177890Y-58554761D01*
X122177890Y-58554761D02*
X122215985Y-58516666D01*
X122215985Y-58516666D02*
X122292176Y-58478571D01*
X122292176Y-58478571D02*
X122368366Y-58478571D01*
X122368366Y-58478571D02*
X122482652Y-58516666D01*
X122482652Y-58516666D02*
X122939795Y-58973809D01*
X122939795Y-58973809D02*
X122939795Y-58478571D01*
X122939795Y-57716666D02*
X122939795Y-58173809D01*
X122939795Y-57945237D02*
X122139795Y-57945237D01*
X122139795Y-57945237D02*
X122254080Y-58021428D01*
X122254080Y-58021428D02*
X122330271Y-58097618D01*
X122330271Y-58097618D02*
X122368366Y-58173809D01*
X122939795Y-56954761D02*
X122939795Y-57411904D01*
X122939795Y-57183332D02*
X122139795Y-57183332D01*
X122139795Y-57183332D02*
X122254080Y-57259523D01*
X122254080Y-57259523D02*
X122330271Y-57335713D01*
X122330271Y-57335713D02*
X122368366Y-57411904D01*
X26134524Y-29012295D02*
X26134524Y-28212295D01*
X26134524Y-28593247D02*
X26591667Y-28593247D01*
X26591667Y-29012295D02*
X26591667Y-28212295D01*
X26934523Y-28974200D02*
X27048809Y-29012295D01*
X27048809Y-29012295D02*
X27239285Y-29012295D01*
X27239285Y-29012295D02*
X27315476Y-28974200D01*
X27315476Y-28974200D02*
X27353571Y-28936104D01*
X27353571Y-28936104D02*
X27391666Y-28859914D01*
X27391666Y-28859914D02*
X27391666Y-28783723D01*
X27391666Y-28783723D02*
X27353571Y-28707533D01*
X27353571Y-28707533D02*
X27315476Y-28669438D01*
X27315476Y-28669438D02*
X27239285Y-28631342D01*
X27239285Y-28631342D02*
X27086904Y-28593247D01*
X27086904Y-28593247D02*
X27010714Y-28555152D01*
X27010714Y-28555152D02*
X26972619Y-28517057D01*
X26972619Y-28517057D02*
X26934523Y-28440866D01*
X26934523Y-28440866D02*
X26934523Y-28364676D01*
X26934523Y-28364676D02*
X26972619Y-28288485D01*
X26972619Y-28288485D02*
X27010714Y-28250390D01*
X27010714Y-28250390D02*
X27086904Y-28212295D01*
X27086904Y-28212295D02*
X27277381Y-28212295D01*
X27277381Y-28212295D02*
X27391666Y-28250390D01*
X28153571Y-29012295D02*
X27696428Y-29012295D01*
X27925000Y-29012295D02*
X27925000Y-28212295D01*
X27925000Y-28212295D02*
X27848809Y-28326580D01*
X27848809Y-28326580D02*
X27772619Y-28402771D01*
X27772619Y-28402771D02*
X27696428Y-28440866D01*
X28763095Y-28593247D02*
X28877381Y-28631342D01*
X28877381Y-28631342D02*
X28915476Y-28669438D01*
X28915476Y-28669438D02*
X28953572Y-28745628D01*
X28953572Y-28745628D02*
X28953572Y-28859914D01*
X28953572Y-28859914D02*
X28915476Y-28936104D01*
X28915476Y-28936104D02*
X28877381Y-28974200D01*
X28877381Y-28974200D02*
X28801191Y-29012295D01*
X28801191Y-29012295D02*
X28496429Y-29012295D01*
X28496429Y-29012295D02*
X28496429Y-28212295D01*
X28496429Y-28212295D02*
X28763095Y-28212295D01*
X28763095Y-28212295D02*
X28839286Y-28250390D01*
X28839286Y-28250390D02*
X28877381Y-28288485D01*
X28877381Y-28288485D02*
X28915476Y-28364676D01*
X28915476Y-28364676D02*
X28915476Y-28440866D01*
X28915476Y-28440866D02*
X28877381Y-28517057D01*
X28877381Y-28517057D02*
X28839286Y-28555152D01*
X28839286Y-28555152D02*
X28763095Y-28593247D01*
X28763095Y-28593247D02*
X28496429Y-28593247D01*
X57134524Y-29012295D02*
X57134524Y-28212295D01*
X57134524Y-28593247D02*
X57591667Y-28593247D01*
X57591667Y-29012295D02*
X57591667Y-28212295D01*
X57934523Y-28974200D02*
X58048809Y-29012295D01*
X58048809Y-29012295D02*
X58239285Y-29012295D01*
X58239285Y-29012295D02*
X58315476Y-28974200D01*
X58315476Y-28974200D02*
X58353571Y-28936104D01*
X58353571Y-28936104D02*
X58391666Y-28859914D01*
X58391666Y-28859914D02*
X58391666Y-28783723D01*
X58391666Y-28783723D02*
X58353571Y-28707533D01*
X58353571Y-28707533D02*
X58315476Y-28669438D01*
X58315476Y-28669438D02*
X58239285Y-28631342D01*
X58239285Y-28631342D02*
X58086904Y-28593247D01*
X58086904Y-28593247D02*
X58010714Y-28555152D01*
X58010714Y-28555152D02*
X57972619Y-28517057D01*
X57972619Y-28517057D02*
X57934523Y-28440866D01*
X57934523Y-28440866D02*
X57934523Y-28364676D01*
X57934523Y-28364676D02*
X57972619Y-28288485D01*
X57972619Y-28288485D02*
X58010714Y-28250390D01*
X58010714Y-28250390D02*
X58086904Y-28212295D01*
X58086904Y-28212295D02*
X58277381Y-28212295D01*
X58277381Y-28212295D02*
X58391666Y-28250390D01*
X58696428Y-28288485D02*
X58734524Y-28250390D01*
X58734524Y-28250390D02*
X58810714Y-28212295D01*
X58810714Y-28212295D02*
X59001190Y-28212295D01*
X59001190Y-28212295D02*
X59077381Y-28250390D01*
X59077381Y-28250390D02*
X59115476Y-28288485D01*
X59115476Y-28288485D02*
X59153571Y-28364676D01*
X59153571Y-28364676D02*
X59153571Y-28440866D01*
X59153571Y-28440866D02*
X59115476Y-28555152D01*
X59115476Y-28555152D02*
X58658333Y-29012295D01*
X58658333Y-29012295D02*
X59153571Y-29012295D01*
X59763095Y-28593247D02*
X59877381Y-28631342D01*
X59877381Y-28631342D02*
X59915476Y-28669438D01*
X59915476Y-28669438D02*
X59953572Y-28745628D01*
X59953572Y-28745628D02*
X59953572Y-28859914D01*
X59953572Y-28859914D02*
X59915476Y-28936104D01*
X59915476Y-28936104D02*
X59877381Y-28974200D01*
X59877381Y-28974200D02*
X59801191Y-29012295D01*
X59801191Y-29012295D02*
X59496429Y-29012295D01*
X59496429Y-29012295D02*
X59496429Y-28212295D01*
X59496429Y-28212295D02*
X59763095Y-28212295D01*
X59763095Y-28212295D02*
X59839286Y-28250390D01*
X59839286Y-28250390D02*
X59877381Y-28288485D01*
X59877381Y-28288485D02*
X59915476Y-28364676D01*
X59915476Y-28364676D02*
X59915476Y-28440866D01*
X59915476Y-28440866D02*
X59877381Y-28517057D01*
X59877381Y-28517057D02*
X59839286Y-28555152D01*
X59839286Y-28555152D02*
X59763095Y-28593247D01*
X59763095Y-28593247D02*
X59496429Y-28593247D01*
X9066428Y-81842295D02*
X9066428Y-82413723D01*
X9066428Y-82413723D02*
X9028333Y-82528009D01*
X9028333Y-82528009D02*
X8952142Y-82604200D01*
X8952142Y-82604200D02*
X8837857Y-82642295D01*
X8837857Y-82642295D02*
X8761666Y-82642295D01*
X9409285Y-81918485D02*
X9447381Y-81880390D01*
X9447381Y-81880390D02*
X9523571Y-81842295D01*
X9523571Y-81842295D02*
X9714047Y-81842295D01*
X9714047Y-81842295D02*
X9790238Y-81880390D01*
X9790238Y-81880390D02*
X9828333Y-81918485D01*
X9828333Y-81918485D02*
X9866428Y-81994676D01*
X9866428Y-81994676D02*
X9866428Y-82070866D01*
X9866428Y-82070866D02*
X9828333Y-82185152D01*
X9828333Y-82185152D02*
X9371190Y-82642295D01*
X9371190Y-82642295D02*
X9866428Y-82642295D01*
X10133095Y-81842295D02*
X10628333Y-81842295D01*
X10628333Y-81842295D02*
X10361667Y-82147057D01*
X10361667Y-82147057D02*
X10475952Y-82147057D01*
X10475952Y-82147057D02*
X10552143Y-82185152D01*
X10552143Y-82185152D02*
X10590238Y-82223247D01*
X10590238Y-82223247D02*
X10628333Y-82299438D01*
X10628333Y-82299438D02*
X10628333Y-82489914D01*
X10628333Y-82489914D02*
X10590238Y-82566104D01*
X10590238Y-82566104D02*
X10552143Y-82604200D01*
X10552143Y-82604200D02*
X10475952Y-82642295D01*
X10475952Y-82642295D02*
X10247381Y-82642295D01*
X10247381Y-82642295D02*
X10171190Y-82604200D01*
X10171190Y-82604200D02*
X10133095Y-82566104D01*
X11123572Y-81842295D02*
X11199762Y-81842295D01*
X11199762Y-81842295D02*
X11275953Y-81880390D01*
X11275953Y-81880390D02*
X11314048Y-81918485D01*
X11314048Y-81918485D02*
X11352143Y-81994676D01*
X11352143Y-81994676D02*
X11390238Y-82147057D01*
X11390238Y-82147057D02*
X11390238Y-82337533D01*
X11390238Y-82337533D02*
X11352143Y-82489914D01*
X11352143Y-82489914D02*
X11314048Y-82566104D01*
X11314048Y-82566104D02*
X11275953Y-82604200D01*
X11275953Y-82604200D02*
X11199762Y-82642295D01*
X11199762Y-82642295D02*
X11123572Y-82642295D01*
X11123572Y-82642295D02*
X11047381Y-82604200D01*
X11047381Y-82604200D02*
X11009286Y-82566104D01*
X11009286Y-82566104D02*
X10971191Y-82489914D01*
X10971191Y-82489914D02*
X10933095Y-82337533D01*
X10933095Y-82337533D02*
X10933095Y-82147057D01*
X10933095Y-82147057D02*
X10971191Y-81994676D01*
X10971191Y-81994676D02*
X11009286Y-81918485D01*
X11009286Y-81918485D02*
X11047381Y-81880390D01*
X11047381Y-81880390D02*
X11123572Y-81842295D01*
X122139795Y-68028571D02*
X122711223Y-68028571D01*
X122711223Y-68028571D02*
X122825509Y-68066666D01*
X122825509Y-68066666D02*
X122901700Y-68142857D01*
X122901700Y-68142857D02*
X122939795Y-68257142D01*
X122939795Y-68257142D02*
X122939795Y-68333333D01*
X122215985Y-67685714D02*
X122177890Y-67647618D01*
X122177890Y-67647618D02*
X122139795Y-67571428D01*
X122139795Y-67571428D02*
X122139795Y-67380952D01*
X122139795Y-67380952D02*
X122177890Y-67304761D01*
X122177890Y-67304761D02*
X122215985Y-67266666D01*
X122215985Y-67266666D02*
X122292176Y-67228571D01*
X122292176Y-67228571D02*
X122368366Y-67228571D01*
X122368366Y-67228571D02*
X122482652Y-67266666D01*
X122482652Y-67266666D02*
X122939795Y-67723809D01*
X122939795Y-67723809D02*
X122939795Y-67228571D01*
X122939795Y-66466666D02*
X122939795Y-66923809D01*
X122939795Y-66695237D02*
X122139795Y-66695237D01*
X122139795Y-66695237D02*
X122254080Y-66771428D01*
X122254080Y-66771428D02*
X122330271Y-66847618D01*
X122330271Y-66847618D02*
X122368366Y-66923809D01*
X122215985Y-66161904D02*
X122177890Y-66123808D01*
X122177890Y-66123808D02*
X122139795Y-66047618D01*
X122139795Y-66047618D02*
X122139795Y-65857142D01*
X122139795Y-65857142D02*
X122177890Y-65780951D01*
X122177890Y-65780951D02*
X122215985Y-65742856D01*
X122215985Y-65742856D02*
X122292176Y-65704761D01*
X122292176Y-65704761D02*
X122368366Y-65704761D01*
X122368366Y-65704761D02*
X122482652Y-65742856D01*
X122482652Y-65742856D02*
X122939795Y-66199999D01*
X122939795Y-66199999D02*
X122939795Y-65704761D01*
X64191667Y-20712295D02*
X64191667Y-19912295D01*
X64191667Y-20293247D02*
X64648810Y-20293247D01*
X64648810Y-20712295D02*
X64648810Y-19912295D01*
X64991666Y-20674200D02*
X65105952Y-20712295D01*
X65105952Y-20712295D02*
X65296428Y-20712295D01*
X65296428Y-20712295D02*
X65372619Y-20674200D01*
X65372619Y-20674200D02*
X65410714Y-20636104D01*
X65410714Y-20636104D02*
X65448809Y-20559914D01*
X65448809Y-20559914D02*
X65448809Y-20483723D01*
X65448809Y-20483723D02*
X65410714Y-20407533D01*
X65410714Y-20407533D02*
X65372619Y-20369438D01*
X65372619Y-20369438D02*
X65296428Y-20331342D01*
X65296428Y-20331342D02*
X65144047Y-20293247D01*
X65144047Y-20293247D02*
X65067857Y-20255152D01*
X65067857Y-20255152D02*
X65029762Y-20217057D01*
X65029762Y-20217057D02*
X64991666Y-20140866D01*
X64991666Y-20140866D02*
X64991666Y-20064676D01*
X64991666Y-20064676D02*
X65029762Y-19988485D01*
X65029762Y-19988485D02*
X65067857Y-19950390D01*
X65067857Y-19950390D02*
X65144047Y-19912295D01*
X65144047Y-19912295D02*
X65334524Y-19912295D01*
X65334524Y-19912295D02*
X65448809Y-19950390D01*
X65715476Y-19912295D02*
X66210714Y-19912295D01*
X66210714Y-19912295D02*
X65944048Y-20217057D01*
X65944048Y-20217057D02*
X66058333Y-20217057D01*
X66058333Y-20217057D02*
X66134524Y-20255152D01*
X66134524Y-20255152D02*
X66172619Y-20293247D01*
X66172619Y-20293247D02*
X66210714Y-20369438D01*
X66210714Y-20369438D02*
X66210714Y-20559914D01*
X66210714Y-20559914D02*
X66172619Y-20636104D01*
X66172619Y-20636104D02*
X66134524Y-20674200D01*
X66134524Y-20674200D02*
X66058333Y-20712295D01*
X66058333Y-20712295D02*
X65829762Y-20712295D01*
X65829762Y-20712295D02*
X65753571Y-20674200D01*
X65753571Y-20674200D02*
X65715476Y-20636104D01*
X66515476Y-20483723D02*
X66896429Y-20483723D01*
X66439286Y-20712295D02*
X66705953Y-19912295D01*
X66705953Y-19912295D02*
X66972619Y-20712295D01*
X15538247Y-78161071D02*
X15538247Y-78427737D01*
X15957295Y-78427737D02*
X15157295Y-78427737D01*
X15157295Y-78427737D02*
X15157295Y-78046785D01*
X15233485Y-77780119D02*
X15195390Y-77742023D01*
X15195390Y-77742023D02*
X15157295Y-77665833D01*
X15157295Y-77665833D02*
X15157295Y-77475357D01*
X15157295Y-77475357D02*
X15195390Y-77399166D01*
X15195390Y-77399166D02*
X15233485Y-77361071D01*
X15233485Y-77361071D02*
X15309676Y-77322976D01*
X15309676Y-77322976D02*
X15385866Y-77322976D01*
X15385866Y-77322976D02*
X15500152Y-77361071D01*
X15500152Y-77361071D02*
X15957295Y-77818214D01*
X15957295Y-77818214D02*
X15957295Y-77322976D01*
X15157295Y-77056309D02*
X15157295Y-76561071D01*
X15157295Y-76561071D02*
X15462057Y-76827737D01*
X15462057Y-76827737D02*
X15462057Y-76713452D01*
X15462057Y-76713452D02*
X15500152Y-76637261D01*
X15500152Y-76637261D02*
X15538247Y-76599166D01*
X15538247Y-76599166D02*
X15614438Y-76561071D01*
X15614438Y-76561071D02*
X15804914Y-76561071D01*
X15804914Y-76561071D02*
X15881104Y-76599166D01*
X15881104Y-76599166D02*
X15919200Y-76637261D01*
X15919200Y-76637261D02*
X15957295Y-76713452D01*
X15957295Y-76713452D02*
X15957295Y-76942023D01*
X15957295Y-76942023D02*
X15919200Y-77018214D01*
X15919200Y-77018214D02*
X15881104Y-77056309D01*
X15157295Y-76065832D02*
X15157295Y-75989642D01*
X15157295Y-75989642D02*
X15195390Y-75913451D01*
X15195390Y-75913451D02*
X15233485Y-75875356D01*
X15233485Y-75875356D02*
X15309676Y-75837261D01*
X15309676Y-75837261D02*
X15462057Y-75799166D01*
X15462057Y-75799166D02*
X15652533Y-75799166D01*
X15652533Y-75799166D02*
X15804914Y-75837261D01*
X15804914Y-75837261D02*
X15881104Y-75875356D01*
X15881104Y-75875356D02*
X15919200Y-75913451D01*
X15919200Y-75913451D02*
X15957295Y-75989642D01*
X15957295Y-75989642D02*
X15957295Y-76065832D01*
X15957295Y-76065832D02*
X15919200Y-76142023D01*
X15919200Y-76142023D02*
X15881104Y-76180118D01*
X15881104Y-76180118D02*
X15804914Y-76218213D01*
X15804914Y-76218213D02*
X15652533Y-76256309D01*
X15652533Y-76256309D02*
X15462057Y-76256309D01*
X15462057Y-76256309D02*
X15309676Y-76218213D01*
X15309676Y-76218213D02*
X15233485Y-76180118D01*
X15233485Y-76180118D02*
X15195390Y-76142023D01*
X15195390Y-76142023D02*
X15157295Y-76065832D01*
D12*
X42748809Y-45088704D02*
X42710713Y-45126800D01*
X42710713Y-45126800D02*
X42596428Y-45164895D01*
X42596428Y-45164895D02*
X42520237Y-45164895D01*
X42520237Y-45164895D02*
X42405951Y-45126800D01*
X42405951Y-45126800D02*
X42329761Y-45050609D01*
X42329761Y-45050609D02*
X42291666Y-44974419D01*
X42291666Y-44974419D02*
X42253570Y-44822038D01*
X42253570Y-44822038D02*
X42253570Y-44707752D01*
X42253570Y-44707752D02*
X42291666Y-44555371D01*
X42291666Y-44555371D02*
X42329761Y-44479180D01*
X42329761Y-44479180D02*
X42405951Y-44402990D01*
X42405951Y-44402990D02*
X42520237Y-44364895D01*
X42520237Y-44364895D02*
X42596428Y-44364895D01*
X42596428Y-44364895D02*
X42710713Y-44402990D01*
X42710713Y-44402990D02*
X42748809Y-44441085D01*
X43510713Y-45164895D02*
X43053570Y-45164895D01*
X43282142Y-45164895D02*
X43282142Y-44364895D01*
X43282142Y-44364895D02*
X43205951Y-44479180D01*
X43205951Y-44479180D02*
X43129761Y-44555371D01*
X43129761Y-44555371D02*
X43053570Y-44593466D01*
X43815475Y-44441085D02*
X43853571Y-44402990D01*
X43853571Y-44402990D02*
X43929761Y-44364895D01*
X43929761Y-44364895D02*
X44120237Y-44364895D01*
X44120237Y-44364895D02*
X44196428Y-44402990D01*
X44196428Y-44402990D02*
X44234523Y-44441085D01*
X44234523Y-44441085D02*
X44272618Y-44517276D01*
X44272618Y-44517276D02*
X44272618Y-44593466D01*
X44272618Y-44593466D02*
X44234523Y-44707752D01*
X44234523Y-44707752D02*
X43777380Y-45164895D01*
X43777380Y-45164895D02*
X44272618Y-45164895D01*
X44767857Y-44364895D02*
X44844047Y-44364895D01*
X44844047Y-44364895D02*
X44920238Y-44402990D01*
X44920238Y-44402990D02*
X44958333Y-44441085D01*
X44958333Y-44441085D02*
X44996428Y-44517276D01*
X44996428Y-44517276D02*
X45034523Y-44669657D01*
X45034523Y-44669657D02*
X45034523Y-44860133D01*
X45034523Y-44860133D02*
X44996428Y-45012514D01*
X44996428Y-45012514D02*
X44958333Y-45088704D01*
X44958333Y-45088704D02*
X44920238Y-45126800D01*
X44920238Y-45126800D02*
X44844047Y-45164895D01*
X44844047Y-45164895D02*
X44767857Y-45164895D01*
X44767857Y-45164895D02*
X44691666Y-45126800D01*
X44691666Y-45126800D02*
X44653571Y-45088704D01*
X44653571Y-45088704D02*
X44615476Y-45012514D01*
X44615476Y-45012514D02*
X44577380Y-44860133D01*
X44577380Y-44860133D02*
X44577380Y-44669657D01*
X44577380Y-44669657D02*
X44615476Y-44517276D01*
X44615476Y-44517276D02*
X44653571Y-44441085D01*
X44653571Y-44441085D02*
X44691666Y-44402990D01*
X44691666Y-44402990D02*
X44767857Y-44364895D01*
X45796428Y-45164895D02*
X45339285Y-45164895D01*
X45567857Y-45164895D02*
X45567857Y-44364895D01*
X45567857Y-44364895D02*
X45491666Y-44479180D01*
X45491666Y-44479180D02*
X45415476Y-44555371D01*
X45415476Y-44555371D02*
X45339285Y-44593466D01*
X11748809Y-45088704D02*
X11710713Y-45126800D01*
X11710713Y-45126800D02*
X11596428Y-45164895D01*
X11596428Y-45164895D02*
X11520237Y-45164895D01*
X11520237Y-45164895D02*
X11405951Y-45126800D01*
X11405951Y-45126800D02*
X11329761Y-45050609D01*
X11329761Y-45050609D02*
X11291666Y-44974419D01*
X11291666Y-44974419D02*
X11253570Y-44822038D01*
X11253570Y-44822038D02*
X11253570Y-44707752D01*
X11253570Y-44707752D02*
X11291666Y-44555371D01*
X11291666Y-44555371D02*
X11329761Y-44479180D01*
X11329761Y-44479180D02*
X11405951Y-44402990D01*
X11405951Y-44402990D02*
X11520237Y-44364895D01*
X11520237Y-44364895D02*
X11596428Y-44364895D01*
X11596428Y-44364895D02*
X11710713Y-44402990D01*
X11710713Y-44402990D02*
X11748809Y-44441085D01*
X12510713Y-45164895D02*
X12053570Y-45164895D01*
X12282142Y-45164895D02*
X12282142Y-44364895D01*
X12282142Y-44364895D02*
X12205951Y-44479180D01*
X12205951Y-44479180D02*
X12129761Y-44555371D01*
X12129761Y-44555371D02*
X12053570Y-44593466D01*
X13272618Y-45164895D02*
X12815475Y-45164895D01*
X13044047Y-45164895D02*
X13044047Y-44364895D01*
X13044047Y-44364895D02*
X12967856Y-44479180D01*
X12967856Y-44479180D02*
X12891666Y-44555371D01*
X12891666Y-44555371D02*
X12815475Y-44593466D01*
X13767857Y-44364895D02*
X13844047Y-44364895D01*
X13844047Y-44364895D02*
X13920238Y-44402990D01*
X13920238Y-44402990D02*
X13958333Y-44441085D01*
X13958333Y-44441085D02*
X13996428Y-44517276D01*
X13996428Y-44517276D02*
X14034523Y-44669657D01*
X14034523Y-44669657D02*
X14034523Y-44860133D01*
X14034523Y-44860133D02*
X13996428Y-45012514D01*
X13996428Y-45012514D02*
X13958333Y-45088704D01*
X13958333Y-45088704D02*
X13920238Y-45126800D01*
X13920238Y-45126800D02*
X13844047Y-45164895D01*
X13844047Y-45164895D02*
X13767857Y-45164895D01*
X13767857Y-45164895D02*
X13691666Y-45126800D01*
X13691666Y-45126800D02*
X13653571Y-45088704D01*
X13653571Y-45088704D02*
X13615476Y-45012514D01*
X13615476Y-45012514D02*
X13577380Y-44860133D01*
X13577380Y-44860133D02*
X13577380Y-44669657D01*
X13577380Y-44669657D02*
X13615476Y-44517276D01*
X13615476Y-44517276D02*
X13653571Y-44441085D01*
X13653571Y-44441085D02*
X13691666Y-44402990D01*
X13691666Y-44402990D02*
X13767857Y-44364895D01*
X14796428Y-45164895D02*
X14339285Y-45164895D01*
X14567857Y-45164895D02*
X14567857Y-44364895D01*
X14567857Y-44364895D02*
X14491666Y-44479180D01*
X14491666Y-44479180D02*
X14415476Y-44555371D01*
X14415476Y-44555371D02*
X14339285Y-44593466D01*
X88496428Y-90564895D02*
X88496428Y-91136323D01*
X88496428Y-91136323D02*
X88458333Y-91250609D01*
X88458333Y-91250609D02*
X88382142Y-91326800D01*
X88382142Y-91326800D02*
X88267857Y-91364895D01*
X88267857Y-91364895D02*
X88191666Y-91364895D01*
X88839285Y-90641085D02*
X88877381Y-90602990D01*
X88877381Y-90602990D02*
X88953571Y-90564895D01*
X88953571Y-90564895D02*
X89144047Y-90564895D01*
X89144047Y-90564895D02*
X89220238Y-90602990D01*
X89220238Y-90602990D02*
X89258333Y-90641085D01*
X89258333Y-90641085D02*
X89296428Y-90717276D01*
X89296428Y-90717276D02*
X89296428Y-90793466D01*
X89296428Y-90793466D02*
X89258333Y-90907752D01*
X89258333Y-90907752D02*
X88801190Y-91364895D01*
X88801190Y-91364895D02*
X89296428Y-91364895D01*
X89791667Y-90564895D02*
X89867857Y-90564895D01*
X89867857Y-90564895D02*
X89944048Y-90602990D01*
X89944048Y-90602990D02*
X89982143Y-90641085D01*
X89982143Y-90641085D02*
X90020238Y-90717276D01*
X90020238Y-90717276D02*
X90058333Y-90869657D01*
X90058333Y-90869657D02*
X90058333Y-91060133D01*
X90058333Y-91060133D02*
X90020238Y-91212514D01*
X90020238Y-91212514D02*
X89982143Y-91288704D01*
X89982143Y-91288704D02*
X89944048Y-91326800D01*
X89944048Y-91326800D02*
X89867857Y-91364895D01*
X89867857Y-91364895D02*
X89791667Y-91364895D01*
X89791667Y-91364895D02*
X89715476Y-91326800D01*
X89715476Y-91326800D02*
X89677381Y-91288704D01*
X89677381Y-91288704D02*
X89639286Y-91212514D01*
X89639286Y-91212514D02*
X89601190Y-91060133D01*
X89601190Y-91060133D02*
X89601190Y-90869657D01*
X89601190Y-90869657D02*
X89639286Y-90717276D01*
X89639286Y-90717276D02*
X89677381Y-90641085D01*
X89677381Y-90641085D02*
X89715476Y-90602990D01*
X89715476Y-90602990D02*
X89791667Y-90564895D01*
X90820238Y-91364895D02*
X90363095Y-91364895D01*
X90591667Y-91364895D02*
X90591667Y-90564895D01*
X90591667Y-90564895D02*
X90515476Y-90679180D01*
X90515476Y-90679180D02*
X90439286Y-90755371D01*
X90439286Y-90755371D02*
X90363095Y-90793466D01*
D13*
X95915476Y-72862295D02*
X95915476Y-72062295D01*
X95915476Y-72443247D02*
X96372619Y-72443247D01*
X96372619Y-72862295D02*
X96372619Y-72062295D01*
X97096428Y-72328961D02*
X97096428Y-72862295D01*
X96905952Y-72024200D02*
X96715475Y-72595628D01*
X96715475Y-72595628D02*
X97210714Y-72595628D01*
X33915476Y-12362295D02*
X33915476Y-11562295D01*
X33915476Y-11943247D02*
X34372619Y-11943247D01*
X34372619Y-12362295D02*
X34372619Y-11562295D01*
X35172618Y-12362295D02*
X34715475Y-12362295D01*
X34944047Y-12362295D02*
X34944047Y-11562295D01*
X34944047Y-11562295D02*
X34867856Y-11676580D01*
X34867856Y-11676580D02*
X34791666Y-11752771D01*
X34791666Y-11752771D02*
X34715475Y-11790866D01*
X95191667Y-20712295D02*
X95191667Y-19912295D01*
X95191667Y-20293247D02*
X95648810Y-20293247D01*
X95648810Y-20712295D02*
X95648810Y-19912295D01*
X95991666Y-20674200D02*
X96105952Y-20712295D01*
X96105952Y-20712295D02*
X96296428Y-20712295D01*
X96296428Y-20712295D02*
X96372619Y-20674200D01*
X96372619Y-20674200D02*
X96410714Y-20636104D01*
X96410714Y-20636104D02*
X96448809Y-20559914D01*
X96448809Y-20559914D02*
X96448809Y-20483723D01*
X96448809Y-20483723D02*
X96410714Y-20407533D01*
X96410714Y-20407533D02*
X96372619Y-20369438D01*
X96372619Y-20369438D02*
X96296428Y-20331342D01*
X96296428Y-20331342D02*
X96144047Y-20293247D01*
X96144047Y-20293247D02*
X96067857Y-20255152D01*
X96067857Y-20255152D02*
X96029762Y-20217057D01*
X96029762Y-20217057D02*
X95991666Y-20140866D01*
X95991666Y-20140866D02*
X95991666Y-20064676D01*
X95991666Y-20064676D02*
X96029762Y-19988485D01*
X96029762Y-19988485D02*
X96067857Y-19950390D01*
X96067857Y-19950390D02*
X96144047Y-19912295D01*
X96144047Y-19912295D02*
X96334524Y-19912295D01*
X96334524Y-19912295D02*
X96448809Y-19950390D01*
X97134524Y-20178961D02*
X97134524Y-20712295D01*
X96944048Y-19874200D02*
X96753571Y-20445628D01*
X96753571Y-20445628D02*
X97248810Y-20445628D01*
X97515476Y-20483723D02*
X97896429Y-20483723D01*
X97439286Y-20712295D02*
X97705953Y-19912295D01*
X97705953Y-19912295D02*
X97972619Y-20712295D01*
X44246428Y-81842295D02*
X44246428Y-82413723D01*
X44246428Y-82413723D02*
X44208333Y-82528009D01*
X44208333Y-82528009D02*
X44132142Y-82604200D01*
X44132142Y-82604200D02*
X44017857Y-82642295D01*
X44017857Y-82642295D02*
X43941666Y-82642295D01*
X44589285Y-81918485D02*
X44627381Y-81880390D01*
X44627381Y-81880390D02*
X44703571Y-81842295D01*
X44703571Y-81842295D02*
X44894047Y-81842295D01*
X44894047Y-81842295D02*
X44970238Y-81880390D01*
X44970238Y-81880390D02*
X45008333Y-81918485D01*
X45008333Y-81918485D02*
X45046428Y-81994676D01*
X45046428Y-81994676D02*
X45046428Y-82070866D01*
X45046428Y-82070866D02*
X45008333Y-82185152D01*
X45008333Y-82185152D02*
X44551190Y-82642295D01*
X44551190Y-82642295D02*
X45046428Y-82642295D01*
X45732143Y-82108961D02*
X45732143Y-82642295D01*
X45541667Y-81804200D02*
X45351190Y-82375628D01*
X45351190Y-82375628D02*
X45846429Y-82375628D01*
X46303572Y-81842295D02*
X46379762Y-81842295D01*
X46379762Y-81842295D02*
X46455953Y-81880390D01*
X46455953Y-81880390D02*
X46494048Y-81918485D01*
X46494048Y-81918485D02*
X46532143Y-81994676D01*
X46532143Y-81994676D02*
X46570238Y-82147057D01*
X46570238Y-82147057D02*
X46570238Y-82337533D01*
X46570238Y-82337533D02*
X46532143Y-82489914D01*
X46532143Y-82489914D02*
X46494048Y-82566104D01*
X46494048Y-82566104D02*
X46455953Y-82604200D01*
X46455953Y-82604200D02*
X46379762Y-82642295D01*
X46379762Y-82642295D02*
X46303572Y-82642295D01*
X46303572Y-82642295D02*
X46227381Y-82604200D01*
X46227381Y-82604200D02*
X46189286Y-82566104D01*
X46189286Y-82566104D02*
X46151191Y-82489914D01*
X46151191Y-82489914D02*
X46113095Y-82337533D01*
X46113095Y-82337533D02*
X46113095Y-82147057D01*
X46113095Y-82147057D02*
X46151191Y-81994676D01*
X46151191Y-81994676D02*
X46189286Y-81918485D01*
X46189286Y-81918485D02*
X46227381Y-81880390D01*
X46227381Y-81880390D02*
X46303572Y-81842295D01*
X119134524Y-29012295D02*
X119134524Y-28212295D01*
X119134524Y-28593247D02*
X119591667Y-28593247D01*
X119591667Y-29012295D02*
X119591667Y-28212295D01*
X119934523Y-28974200D02*
X120048809Y-29012295D01*
X120048809Y-29012295D02*
X120239285Y-29012295D01*
X120239285Y-29012295D02*
X120315476Y-28974200D01*
X120315476Y-28974200D02*
X120353571Y-28936104D01*
X120353571Y-28936104D02*
X120391666Y-28859914D01*
X120391666Y-28859914D02*
X120391666Y-28783723D01*
X120391666Y-28783723D02*
X120353571Y-28707533D01*
X120353571Y-28707533D02*
X120315476Y-28669438D01*
X120315476Y-28669438D02*
X120239285Y-28631342D01*
X120239285Y-28631342D02*
X120086904Y-28593247D01*
X120086904Y-28593247D02*
X120010714Y-28555152D01*
X120010714Y-28555152D02*
X119972619Y-28517057D01*
X119972619Y-28517057D02*
X119934523Y-28440866D01*
X119934523Y-28440866D02*
X119934523Y-28364676D01*
X119934523Y-28364676D02*
X119972619Y-28288485D01*
X119972619Y-28288485D02*
X120010714Y-28250390D01*
X120010714Y-28250390D02*
X120086904Y-28212295D01*
X120086904Y-28212295D02*
X120277381Y-28212295D01*
X120277381Y-28212295D02*
X120391666Y-28250390D01*
X121077381Y-28478961D02*
X121077381Y-29012295D01*
X120886905Y-28174200D02*
X120696428Y-28745628D01*
X120696428Y-28745628D02*
X121191667Y-28745628D01*
X121763095Y-28593247D02*
X121877381Y-28631342D01*
X121877381Y-28631342D02*
X121915476Y-28669438D01*
X121915476Y-28669438D02*
X121953572Y-28745628D01*
X121953572Y-28745628D02*
X121953572Y-28859914D01*
X121953572Y-28859914D02*
X121915476Y-28936104D01*
X121915476Y-28936104D02*
X121877381Y-28974200D01*
X121877381Y-28974200D02*
X121801191Y-29012295D01*
X121801191Y-29012295D02*
X121496429Y-29012295D01*
X121496429Y-29012295D02*
X121496429Y-28212295D01*
X121496429Y-28212295D02*
X121763095Y-28212295D01*
X121763095Y-28212295D02*
X121839286Y-28250390D01*
X121839286Y-28250390D02*
X121877381Y-28288485D01*
X121877381Y-28288485D02*
X121915476Y-28364676D01*
X121915476Y-28364676D02*
X121915476Y-28440866D01*
X121915476Y-28440866D02*
X121877381Y-28517057D01*
X121877381Y-28517057D02*
X121839286Y-28555152D01*
X121839286Y-28555152D02*
X121763095Y-28593247D01*
X121763095Y-28593247D02*
X121496429Y-28593247D01*
D12*
X73748809Y-45088704D02*
X73710713Y-45126800D01*
X73710713Y-45126800D02*
X73596428Y-45164895D01*
X73596428Y-45164895D02*
X73520237Y-45164895D01*
X73520237Y-45164895D02*
X73405951Y-45126800D01*
X73405951Y-45126800D02*
X73329761Y-45050609D01*
X73329761Y-45050609D02*
X73291666Y-44974419D01*
X73291666Y-44974419D02*
X73253570Y-44822038D01*
X73253570Y-44822038D02*
X73253570Y-44707752D01*
X73253570Y-44707752D02*
X73291666Y-44555371D01*
X73291666Y-44555371D02*
X73329761Y-44479180D01*
X73329761Y-44479180D02*
X73405951Y-44402990D01*
X73405951Y-44402990D02*
X73520237Y-44364895D01*
X73520237Y-44364895D02*
X73596428Y-44364895D01*
X73596428Y-44364895D02*
X73710713Y-44402990D01*
X73710713Y-44402990D02*
X73748809Y-44441085D01*
X74510713Y-45164895D02*
X74053570Y-45164895D01*
X74282142Y-45164895D02*
X74282142Y-44364895D01*
X74282142Y-44364895D02*
X74205951Y-44479180D01*
X74205951Y-44479180D02*
X74129761Y-44555371D01*
X74129761Y-44555371D02*
X74053570Y-44593466D01*
X74777380Y-44364895D02*
X75272618Y-44364895D01*
X75272618Y-44364895D02*
X75005952Y-44669657D01*
X75005952Y-44669657D02*
X75120237Y-44669657D01*
X75120237Y-44669657D02*
X75196428Y-44707752D01*
X75196428Y-44707752D02*
X75234523Y-44745847D01*
X75234523Y-44745847D02*
X75272618Y-44822038D01*
X75272618Y-44822038D02*
X75272618Y-45012514D01*
X75272618Y-45012514D02*
X75234523Y-45088704D01*
X75234523Y-45088704D02*
X75196428Y-45126800D01*
X75196428Y-45126800D02*
X75120237Y-45164895D01*
X75120237Y-45164895D02*
X74891666Y-45164895D01*
X74891666Y-45164895D02*
X74815475Y-45126800D01*
X74815475Y-45126800D02*
X74777380Y-45088704D01*
X75767857Y-44364895D02*
X75844047Y-44364895D01*
X75844047Y-44364895D02*
X75920238Y-44402990D01*
X75920238Y-44402990D02*
X75958333Y-44441085D01*
X75958333Y-44441085D02*
X75996428Y-44517276D01*
X75996428Y-44517276D02*
X76034523Y-44669657D01*
X76034523Y-44669657D02*
X76034523Y-44860133D01*
X76034523Y-44860133D02*
X75996428Y-45012514D01*
X75996428Y-45012514D02*
X75958333Y-45088704D01*
X75958333Y-45088704D02*
X75920238Y-45126800D01*
X75920238Y-45126800D02*
X75844047Y-45164895D01*
X75844047Y-45164895D02*
X75767857Y-45164895D01*
X75767857Y-45164895D02*
X75691666Y-45126800D01*
X75691666Y-45126800D02*
X75653571Y-45088704D01*
X75653571Y-45088704D02*
X75615476Y-45012514D01*
X75615476Y-45012514D02*
X75577380Y-44860133D01*
X75577380Y-44860133D02*
X75577380Y-44669657D01*
X75577380Y-44669657D02*
X75615476Y-44517276D01*
X75615476Y-44517276D02*
X75653571Y-44441085D01*
X75653571Y-44441085D02*
X75691666Y-44402990D01*
X75691666Y-44402990D02*
X75767857Y-44364895D01*
X76796428Y-45164895D02*
X76339285Y-45164895D01*
X76567857Y-45164895D02*
X76567857Y-44364895D01*
X76567857Y-44364895D02*
X76491666Y-44479180D01*
X76491666Y-44479180D02*
X76415476Y-44555371D01*
X76415476Y-44555371D02*
X76339285Y-44593466D01*
D13*
X21587295Y-62290475D02*
X20787295Y-62290475D01*
X20787295Y-62290475D02*
X20787295Y-62099999D01*
X20787295Y-62099999D02*
X20825390Y-61985713D01*
X20825390Y-61985713D02*
X20901580Y-61909523D01*
X20901580Y-61909523D02*
X20977771Y-61871428D01*
X20977771Y-61871428D02*
X21130152Y-61833332D01*
X21130152Y-61833332D02*
X21244438Y-61833332D01*
X21244438Y-61833332D02*
X21396819Y-61871428D01*
X21396819Y-61871428D02*
X21473009Y-61909523D01*
X21473009Y-61909523D02*
X21549200Y-61985713D01*
X21549200Y-61985713D02*
X21587295Y-62099999D01*
X21587295Y-62099999D02*
X21587295Y-62290475D01*
X21511104Y-61033332D02*
X21549200Y-61071428D01*
X21549200Y-61071428D02*
X21587295Y-61185713D01*
X21587295Y-61185713D02*
X21587295Y-61261904D01*
X21587295Y-61261904D02*
X21549200Y-61376190D01*
X21549200Y-61376190D02*
X21473009Y-61452380D01*
X21473009Y-61452380D02*
X21396819Y-61490475D01*
X21396819Y-61490475D02*
X21244438Y-61528571D01*
X21244438Y-61528571D02*
X21130152Y-61528571D01*
X21130152Y-61528571D02*
X20977771Y-61490475D01*
X20977771Y-61490475D02*
X20901580Y-61452380D01*
X20901580Y-61452380D02*
X20825390Y-61376190D01*
X20825390Y-61376190D02*
X20787295Y-61261904D01*
X20787295Y-61261904D02*
X20787295Y-61185713D01*
X20787295Y-61185713D02*
X20825390Y-61071428D01*
X20825390Y-61071428D02*
X20863485Y-61033332D01*
X21587295Y-60271428D02*
X21587295Y-60728571D01*
X21587295Y-60499999D02*
X20787295Y-60499999D01*
X20787295Y-60499999D02*
X20901580Y-60576190D01*
X20901580Y-60576190D02*
X20977771Y-60652380D01*
X20977771Y-60652380D02*
X21015866Y-60728571D01*
D14*
X27388335Y-56264284D02*
X26588335Y-56264284D01*
X27388335Y-55883332D02*
X26588335Y-55883332D01*
X26588335Y-55883332D02*
X27388335Y-55426189D01*
X27388335Y-55426189D02*
X26588335Y-55426189D01*
X27083573Y-55045237D02*
X27083573Y-54435714D01*
X27388335Y-54740475D02*
X26778811Y-54740475D01*
X26588335Y-68545237D02*
X26588335Y-68392856D01*
X26588335Y-68392856D02*
X26626430Y-68316666D01*
X26626430Y-68316666D02*
X26702620Y-68240475D01*
X26702620Y-68240475D02*
X26855001Y-68202380D01*
X26855001Y-68202380D02*
X27121668Y-68202380D01*
X27121668Y-68202380D02*
X27274049Y-68240475D01*
X27274049Y-68240475D02*
X27350240Y-68316666D01*
X27350240Y-68316666D02*
X27388335Y-68392856D01*
X27388335Y-68392856D02*
X27388335Y-68545237D01*
X27388335Y-68545237D02*
X27350240Y-68621428D01*
X27350240Y-68621428D02*
X27274049Y-68697618D01*
X27274049Y-68697618D02*
X27121668Y-68735714D01*
X27121668Y-68735714D02*
X26855001Y-68735714D01*
X26855001Y-68735714D02*
X26702620Y-68697618D01*
X26702620Y-68697618D02*
X26626430Y-68621428D01*
X26626430Y-68621428D02*
X26588335Y-68545237D01*
X26588335Y-67859523D02*
X27235954Y-67859523D01*
X27235954Y-67859523D02*
X27312144Y-67821428D01*
X27312144Y-67821428D02*
X27350240Y-67783333D01*
X27350240Y-67783333D02*
X27388335Y-67707142D01*
X27388335Y-67707142D02*
X27388335Y-67554761D01*
X27388335Y-67554761D02*
X27350240Y-67478571D01*
X27350240Y-67478571D02*
X27312144Y-67440476D01*
X27312144Y-67440476D02*
X27235954Y-67402380D01*
X27235954Y-67402380D02*
X26588335Y-67402380D01*
X26588335Y-67135714D02*
X26588335Y-66678571D01*
X27388335Y-66907143D02*
X26588335Y-66907143D01*
X27083573Y-66411904D02*
X27083573Y-65802381D01*
X36388335Y-56264284D02*
X35588335Y-56264284D01*
X36388335Y-55883332D02*
X35588335Y-55883332D01*
X35588335Y-55883332D02*
X36388335Y-55426189D01*
X36388335Y-55426189D02*
X35588335Y-55426189D01*
X36083573Y-55045237D02*
X36083573Y-54435714D01*
X35588335Y-68545237D02*
X35588335Y-68392856D01*
X35588335Y-68392856D02*
X35626430Y-68316666D01*
X35626430Y-68316666D02*
X35702620Y-68240475D01*
X35702620Y-68240475D02*
X35855001Y-68202380D01*
X35855001Y-68202380D02*
X36121668Y-68202380D01*
X36121668Y-68202380D02*
X36274049Y-68240475D01*
X36274049Y-68240475D02*
X36350240Y-68316666D01*
X36350240Y-68316666D02*
X36388335Y-68392856D01*
X36388335Y-68392856D02*
X36388335Y-68545237D01*
X36388335Y-68545237D02*
X36350240Y-68621428D01*
X36350240Y-68621428D02*
X36274049Y-68697618D01*
X36274049Y-68697618D02*
X36121668Y-68735714D01*
X36121668Y-68735714D02*
X35855001Y-68735714D01*
X35855001Y-68735714D02*
X35702620Y-68697618D01*
X35702620Y-68697618D02*
X35626430Y-68621428D01*
X35626430Y-68621428D02*
X35588335Y-68545237D01*
X35588335Y-67859523D02*
X36235954Y-67859523D01*
X36235954Y-67859523D02*
X36312144Y-67821428D01*
X36312144Y-67821428D02*
X36350240Y-67783333D01*
X36350240Y-67783333D02*
X36388335Y-67707142D01*
X36388335Y-67707142D02*
X36388335Y-67554761D01*
X36388335Y-67554761D02*
X36350240Y-67478571D01*
X36350240Y-67478571D02*
X36312144Y-67440476D01*
X36312144Y-67440476D02*
X36235954Y-67402380D01*
X36235954Y-67402380D02*
X35588335Y-67402380D01*
X35588335Y-67135714D02*
X35588335Y-66678571D01*
X36388335Y-66907143D02*
X35588335Y-66907143D01*
X36083573Y-66411904D02*
X36083573Y-65802381D01*
X36388335Y-66107142D02*
X35778811Y-66107142D01*
D13*
X33191667Y-20712295D02*
X33191667Y-19912295D01*
X33191667Y-20293247D02*
X33648810Y-20293247D01*
X33648810Y-20712295D02*
X33648810Y-19912295D01*
X33991666Y-20674200D02*
X34105952Y-20712295D01*
X34105952Y-20712295D02*
X34296428Y-20712295D01*
X34296428Y-20712295D02*
X34372619Y-20674200D01*
X34372619Y-20674200D02*
X34410714Y-20636104D01*
X34410714Y-20636104D02*
X34448809Y-20559914D01*
X34448809Y-20559914D02*
X34448809Y-20483723D01*
X34448809Y-20483723D02*
X34410714Y-20407533D01*
X34410714Y-20407533D02*
X34372619Y-20369438D01*
X34372619Y-20369438D02*
X34296428Y-20331342D01*
X34296428Y-20331342D02*
X34144047Y-20293247D01*
X34144047Y-20293247D02*
X34067857Y-20255152D01*
X34067857Y-20255152D02*
X34029762Y-20217057D01*
X34029762Y-20217057D02*
X33991666Y-20140866D01*
X33991666Y-20140866D02*
X33991666Y-20064676D01*
X33991666Y-20064676D02*
X34029762Y-19988485D01*
X34029762Y-19988485D02*
X34067857Y-19950390D01*
X34067857Y-19950390D02*
X34144047Y-19912295D01*
X34144047Y-19912295D02*
X34334524Y-19912295D01*
X34334524Y-19912295D02*
X34448809Y-19950390D01*
X34753571Y-19988485D02*
X34791667Y-19950390D01*
X34791667Y-19950390D02*
X34867857Y-19912295D01*
X34867857Y-19912295D02*
X35058333Y-19912295D01*
X35058333Y-19912295D02*
X35134524Y-19950390D01*
X35134524Y-19950390D02*
X35172619Y-19988485D01*
X35172619Y-19988485D02*
X35210714Y-20064676D01*
X35210714Y-20064676D02*
X35210714Y-20140866D01*
X35210714Y-20140866D02*
X35172619Y-20255152D01*
X35172619Y-20255152D02*
X34715476Y-20712295D01*
X34715476Y-20712295D02*
X35210714Y-20712295D01*
X35515476Y-20483723D02*
X35896429Y-20483723D01*
X35439286Y-20712295D02*
X35705953Y-19912295D01*
X35705953Y-19912295D02*
X35972619Y-20712295D01*
X108298333Y-462295D02*
X108298333Y-1033723D01*
X108298333Y-1033723D02*
X108260238Y-1148009D01*
X108260238Y-1148009D02*
X108184047Y-1224200D01*
X108184047Y-1224200D02*
X108069762Y-1262295D01*
X108069762Y-1262295D02*
X107993571Y-1262295D01*
X109022143Y-728961D02*
X109022143Y-1262295D01*
X108831667Y-424200D02*
X108641190Y-995628D01*
X108641190Y-995628D02*
X109136429Y-995628D01*
X99878333Y-3807533D02*
X100487857Y-3807533D01*
X100183095Y-4112295D02*
X100183095Y-3502771D01*
X101287856Y-4112295D02*
X100830713Y-4112295D01*
X101059285Y-4112295D02*
X101059285Y-3312295D01*
X101059285Y-3312295D02*
X100983094Y-3426580D01*
X100983094Y-3426580D02*
X100906904Y-3502771D01*
X100906904Y-3502771D02*
X100830713Y-3540866D01*
X101592618Y-3388485D02*
X101630714Y-3350390D01*
X101630714Y-3350390D02*
X101706904Y-3312295D01*
X101706904Y-3312295D02*
X101897380Y-3312295D01*
X101897380Y-3312295D02*
X101973571Y-3350390D01*
X101973571Y-3350390D02*
X102011666Y-3388485D01*
X102011666Y-3388485D02*
X102049761Y-3464676D01*
X102049761Y-3464676D02*
X102049761Y-3540866D01*
X102049761Y-3540866D02*
X102011666Y-3655152D01*
X102011666Y-3655152D02*
X101554523Y-4112295D01*
X101554523Y-4112295D02*
X102049761Y-4112295D01*
X105415476Y-3350390D02*
X105339286Y-3312295D01*
X105339286Y-3312295D02*
X105225000Y-3312295D01*
X105225000Y-3312295D02*
X105110714Y-3350390D01*
X105110714Y-3350390D02*
X105034524Y-3426580D01*
X105034524Y-3426580D02*
X104996429Y-3502771D01*
X104996429Y-3502771D02*
X104958333Y-3655152D01*
X104958333Y-3655152D02*
X104958333Y-3769438D01*
X104958333Y-3769438D02*
X104996429Y-3921819D01*
X104996429Y-3921819D02*
X105034524Y-3998009D01*
X105034524Y-3998009D02*
X105110714Y-4074200D01*
X105110714Y-4074200D02*
X105225000Y-4112295D01*
X105225000Y-4112295D02*
X105301191Y-4112295D01*
X105301191Y-4112295D02*
X105415476Y-4074200D01*
X105415476Y-4074200D02*
X105453572Y-4036104D01*
X105453572Y-4036104D02*
X105453572Y-3769438D01*
X105453572Y-3769438D02*
X105301191Y-3769438D01*
X105796429Y-4112295D02*
X105796429Y-3312295D01*
X105796429Y-3312295D02*
X106253572Y-4112295D01*
X106253572Y-4112295D02*
X106253572Y-3312295D01*
X106634524Y-4112295D02*
X106634524Y-3312295D01*
X106634524Y-3312295D02*
X106825000Y-3312295D01*
X106825000Y-3312295D02*
X106939286Y-3350390D01*
X106939286Y-3350390D02*
X107015476Y-3426580D01*
X107015476Y-3426580D02*
X107053571Y-3502771D01*
X107053571Y-3502771D02*
X107091667Y-3655152D01*
X107091667Y-3655152D02*
X107091667Y-3769438D01*
X107091667Y-3769438D02*
X107053571Y-3921819D01*
X107053571Y-3921819D02*
X107015476Y-3998009D01*
X107015476Y-3998009D02*
X106939286Y-4074200D01*
X106939286Y-4074200D02*
X106825000Y-4112295D01*
X106825000Y-4112295D02*
X106634524Y-4112295D01*
X110495476Y-4112295D02*
X110495476Y-3312295D01*
X110495476Y-3312295D02*
X110762142Y-3883723D01*
X110762142Y-3883723D02*
X111028809Y-3312295D01*
X111028809Y-3312295D02*
X111028809Y-4112295D01*
X111371666Y-3883723D02*
X111752619Y-3883723D01*
X111295476Y-4112295D02*
X111562143Y-3312295D01*
X111562143Y-3312295D02*
X111828809Y-4112295D01*
X115518333Y-4112295D02*
X115518333Y-3312295D01*
X115518333Y-3312295D02*
X115784999Y-3883723D01*
X115784999Y-3883723D02*
X116051666Y-3312295D01*
X116051666Y-3312295D02*
X116051666Y-4112295D01*
X116699285Y-3693247D02*
X116813571Y-3731342D01*
X116813571Y-3731342D02*
X116851666Y-3769438D01*
X116851666Y-3769438D02*
X116889762Y-3845628D01*
X116889762Y-3845628D02*
X116889762Y-3959914D01*
X116889762Y-3959914D02*
X116851666Y-4036104D01*
X116851666Y-4036104D02*
X116813571Y-4074200D01*
X116813571Y-4074200D02*
X116737381Y-4112295D01*
X116737381Y-4112295D02*
X116432619Y-4112295D01*
X116432619Y-4112295D02*
X116432619Y-3312295D01*
X116432619Y-3312295D02*
X116699285Y-3312295D01*
X116699285Y-3312295D02*
X116775476Y-3350390D01*
X116775476Y-3350390D02*
X116813571Y-3388485D01*
X116813571Y-3388485D02*
X116851666Y-3464676D01*
X116851666Y-3464676D02*
X116851666Y-3540866D01*
X116851666Y-3540866D02*
X116813571Y-3617057D01*
X116813571Y-3617057D02*
X116775476Y-3655152D01*
X116775476Y-3655152D02*
X116699285Y-3693247D01*
X116699285Y-3693247D02*
X116432619Y-3693247D01*
X25915476Y-81362295D02*
X25915476Y-80562295D01*
X25915476Y-80943247D02*
X26372619Y-80943247D01*
X26372619Y-81362295D02*
X26372619Y-80562295D01*
X26677380Y-80562295D02*
X27172618Y-80562295D01*
X27172618Y-80562295D02*
X26905952Y-80867057D01*
X26905952Y-80867057D02*
X27020237Y-80867057D01*
X27020237Y-80867057D02*
X27096428Y-80905152D01*
X27096428Y-80905152D02*
X27134523Y-80943247D01*
X27134523Y-80943247D02*
X27172618Y-81019438D01*
X27172618Y-81019438D02*
X27172618Y-81209914D01*
X27172618Y-81209914D02*
X27134523Y-81286104D01*
X27134523Y-81286104D02*
X27096428Y-81324200D01*
X27096428Y-81324200D02*
X27020237Y-81362295D01*
X27020237Y-81362295D02*
X26791666Y-81362295D01*
X26791666Y-81362295D02*
X26715475Y-81324200D01*
X26715475Y-81324200D02*
X26677380Y-81286104D01*
X88415476Y-2862295D02*
X88415476Y-2062295D01*
X88415476Y-2443247D02*
X88872619Y-2443247D01*
X88872619Y-2862295D02*
X88872619Y-2062295D01*
X89215475Y-2138485D02*
X89253571Y-2100390D01*
X89253571Y-2100390D02*
X89329761Y-2062295D01*
X89329761Y-2062295D02*
X89520237Y-2062295D01*
X89520237Y-2062295D02*
X89596428Y-2100390D01*
X89596428Y-2100390D02*
X89634523Y-2138485D01*
X89634523Y-2138485D02*
X89672618Y-2214676D01*
X89672618Y-2214676D02*
X89672618Y-2290866D01*
X89672618Y-2290866D02*
X89634523Y-2405152D01*
X89634523Y-2405152D02*
X89177380Y-2862295D01*
X89177380Y-2862295D02*
X89672618Y-2862295D01*
X54736104Y-82895237D02*
X54774200Y-82933333D01*
X54774200Y-82933333D02*
X54812295Y-83047618D01*
X54812295Y-83047618D02*
X54812295Y-83123809D01*
X54812295Y-83123809D02*
X54774200Y-83238095D01*
X54774200Y-83238095D02*
X54698009Y-83314285D01*
X54698009Y-83314285D02*
X54621819Y-83352380D01*
X54621819Y-83352380D02*
X54469438Y-83390476D01*
X54469438Y-83390476D02*
X54355152Y-83390476D01*
X54355152Y-83390476D02*
X54202771Y-83352380D01*
X54202771Y-83352380D02*
X54126580Y-83314285D01*
X54126580Y-83314285D02*
X54050390Y-83238095D01*
X54050390Y-83238095D02*
X54012295Y-83123809D01*
X54012295Y-83123809D02*
X54012295Y-83047618D01*
X54012295Y-83047618D02*
X54050390Y-82933333D01*
X54050390Y-82933333D02*
X54088485Y-82895237D01*
X54088485Y-82590476D02*
X54050390Y-82552380D01*
X54050390Y-82552380D02*
X54012295Y-82476190D01*
X54012295Y-82476190D02*
X54012295Y-82285714D01*
X54012295Y-82285714D02*
X54050390Y-82209523D01*
X54050390Y-82209523D02*
X54088485Y-82171428D01*
X54088485Y-82171428D02*
X54164676Y-82133333D01*
X54164676Y-82133333D02*
X54240866Y-82133333D01*
X54240866Y-82133333D02*
X54355152Y-82171428D01*
X54355152Y-82171428D02*
X54812295Y-82628571D01*
X54812295Y-82628571D02*
X54812295Y-82133333D01*
X54012295Y-81866666D02*
X54012295Y-81371428D01*
X54012295Y-81371428D02*
X54317057Y-81638094D01*
X54317057Y-81638094D02*
X54317057Y-81523809D01*
X54317057Y-81523809D02*
X54355152Y-81447618D01*
X54355152Y-81447618D02*
X54393247Y-81409523D01*
X54393247Y-81409523D02*
X54469438Y-81371428D01*
X54469438Y-81371428D02*
X54659914Y-81371428D01*
X54659914Y-81371428D02*
X54736104Y-81409523D01*
X54736104Y-81409523D02*
X54774200Y-81447618D01*
X54774200Y-81447618D02*
X54812295Y-81523809D01*
X54812295Y-81523809D02*
X54812295Y-81752380D01*
X54812295Y-81752380D02*
X54774200Y-81828571D01*
X54774200Y-81828571D02*
X54736104Y-81866666D01*
X54012295Y-80876189D02*
X54012295Y-80799999D01*
X54012295Y-80799999D02*
X54050390Y-80723808D01*
X54050390Y-80723808D02*
X54088485Y-80685713D01*
X54088485Y-80685713D02*
X54164676Y-80647618D01*
X54164676Y-80647618D02*
X54317057Y-80609523D01*
X54317057Y-80609523D02*
X54507533Y-80609523D01*
X54507533Y-80609523D02*
X54659914Y-80647618D01*
X54659914Y-80647618D02*
X54736104Y-80685713D01*
X54736104Y-80685713D02*
X54774200Y-80723808D01*
X54774200Y-80723808D02*
X54812295Y-80799999D01*
X54812295Y-80799999D02*
X54812295Y-80876189D01*
X54812295Y-80876189D02*
X54774200Y-80952380D01*
X54774200Y-80952380D02*
X54736104Y-80990475D01*
X54736104Y-80990475D02*
X54659914Y-81028570D01*
X54659914Y-81028570D02*
X54507533Y-81066666D01*
X54507533Y-81066666D02*
X54317057Y-81066666D01*
X54317057Y-81066666D02*
X54164676Y-81028570D01*
X54164676Y-81028570D02*
X54088485Y-80990475D01*
X54088485Y-80990475D02*
X54050390Y-80952380D01*
X54050390Y-80952380D02*
X54012295Y-80876189D01*
D12*
X103301109Y-45088704D02*
X103263013Y-45126800D01*
X103263013Y-45126800D02*
X103148728Y-45164895D01*
X103148728Y-45164895D02*
X103072537Y-45164895D01*
X103072537Y-45164895D02*
X102958251Y-45126800D01*
X102958251Y-45126800D02*
X102882061Y-45050609D01*
X102882061Y-45050609D02*
X102843966Y-44974419D01*
X102843966Y-44974419D02*
X102805870Y-44822038D01*
X102805870Y-44822038D02*
X102805870Y-44707752D01*
X102805870Y-44707752D02*
X102843966Y-44555371D01*
X102843966Y-44555371D02*
X102882061Y-44479180D01*
X102882061Y-44479180D02*
X102958251Y-44402990D01*
X102958251Y-44402990D02*
X103072537Y-44364895D01*
X103072537Y-44364895D02*
X103148728Y-44364895D01*
X103148728Y-44364895D02*
X103263013Y-44402990D01*
X103263013Y-44402990D02*
X103301109Y-44441085D01*
X104063013Y-45164895D02*
X103605870Y-45164895D01*
X103834442Y-45164895D02*
X103834442Y-44364895D01*
X103834442Y-44364895D02*
X103758251Y-44479180D01*
X103758251Y-44479180D02*
X103682061Y-44555371D01*
X103682061Y-44555371D02*
X103605870Y-44593466D01*
X104748728Y-44631561D02*
X104748728Y-45164895D01*
X104558252Y-44326800D02*
X104367775Y-44898228D01*
X104367775Y-44898228D02*
X104863014Y-44898228D01*
X105320157Y-44364895D02*
X105396347Y-44364895D01*
X105396347Y-44364895D02*
X105472538Y-44402990D01*
X105472538Y-44402990D02*
X105510633Y-44441085D01*
X105510633Y-44441085D02*
X105548728Y-44517276D01*
X105548728Y-44517276D02*
X105586823Y-44669657D01*
X105586823Y-44669657D02*
X105586823Y-44860133D01*
X105586823Y-44860133D02*
X105548728Y-45012514D01*
X105548728Y-45012514D02*
X105510633Y-45088704D01*
X105510633Y-45088704D02*
X105472538Y-45126800D01*
X105472538Y-45126800D02*
X105396347Y-45164895D01*
X105396347Y-45164895D02*
X105320157Y-45164895D01*
X105320157Y-45164895D02*
X105243966Y-45126800D01*
X105243966Y-45126800D02*
X105205871Y-45088704D01*
X105205871Y-45088704D02*
X105167776Y-45012514D01*
X105167776Y-45012514D02*
X105129680Y-44860133D01*
X105129680Y-44860133D02*
X105129680Y-44669657D01*
X105129680Y-44669657D02*
X105167776Y-44517276D01*
X105167776Y-44517276D02*
X105205871Y-44441085D01*
X105205871Y-44441085D02*
X105243966Y-44402990D01*
X105243966Y-44402990D02*
X105320157Y-44364895D01*
X106348728Y-45164895D02*
X105891585Y-45164895D01*
X106120157Y-45164895D02*
X106120157Y-44364895D01*
X106120157Y-44364895D02*
X106043966Y-44479180D01*
X106043966Y-44479180D02*
X105967776Y-44555371D01*
X105967776Y-44555371D02*
X105891585Y-44593466D01*
D13*
X2191667Y-20712295D02*
X2191667Y-19912295D01*
X2191667Y-20293247D02*
X2648810Y-20293247D01*
X2648810Y-20712295D02*
X2648810Y-19912295D01*
X2991666Y-20674200D02*
X3105952Y-20712295D01*
X3105952Y-20712295D02*
X3296428Y-20712295D01*
X3296428Y-20712295D02*
X3372619Y-20674200D01*
X3372619Y-20674200D02*
X3410714Y-20636104D01*
X3410714Y-20636104D02*
X3448809Y-20559914D01*
X3448809Y-20559914D02*
X3448809Y-20483723D01*
X3448809Y-20483723D02*
X3410714Y-20407533D01*
X3410714Y-20407533D02*
X3372619Y-20369438D01*
X3372619Y-20369438D02*
X3296428Y-20331342D01*
X3296428Y-20331342D02*
X3144047Y-20293247D01*
X3144047Y-20293247D02*
X3067857Y-20255152D01*
X3067857Y-20255152D02*
X3029762Y-20217057D01*
X3029762Y-20217057D02*
X2991666Y-20140866D01*
X2991666Y-20140866D02*
X2991666Y-20064676D01*
X2991666Y-20064676D02*
X3029762Y-19988485D01*
X3029762Y-19988485D02*
X3067857Y-19950390D01*
X3067857Y-19950390D02*
X3144047Y-19912295D01*
X3144047Y-19912295D02*
X3334524Y-19912295D01*
X3334524Y-19912295D02*
X3448809Y-19950390D01*
X4210714Y-20712295D02*
X3753571Y-20712295D01*
X3982143Y-20712295D02*
X3982143Y-19912295D01*
X3982143Y-19912295D02*
X3905952Y-20026580D01*
X3905952Y-20026580D02*
X3829762Y-20102771D01*
X3829762Y-20102771D02*
X3753571Y-20140866D01*
X4515476Y-20483723D02*
X4896429Y-20483723D01*
X4439286Y-20712295D02*
X4705953Y-19912295D01*
X4705953Y-19912295D02*
X4972619Y-20712295D01*
X50138333Y-462295D02*
X50138333Y-1033723D01*
X50138333Y-1033723D02*
X50100238Y-1148009D01*
X50100238Y-1148009D02*
X50024047Y-1224200D01*
X50024047Y-1224200D02*
X49909762Y-1262295D01*
X49909762Y-1262295D02*
X49833571Y-1262295D01*
X50481190Y-538485D02*
X50519286Y-500390D01*
X50519286Y-500390D02*
X50595476Y-462295D01*
X50595476Y-462295D02*
X50785952Y-462295D01*
X50785952Y-462295D02*
X50862143Y-500390D01*
X50862143Y-500390D02*
X50900238Y-538485D01*
X50900238Y-538485D02*
X50938333Y-614676D01*
X50938333Y-614676D02*
X50938333Y-690866D01*
X50938333Y-690866D02*
X50900238Y-805152D01*
X50900238Y-805152D02*
X50443095Y-1262295D01*
X50443095Y-1262295D02*
X50938333Y-1262295D01*
X41718333Y-3807533D02*
X42327857Y-3807533D01*
X42023095Y-4112295D02*
X42023095Y-3502771D01*
X43127856Y-4112295D02*
X42670713Y-4112295D01*
X42899285Y-4112295D02*
X42899285Y-3312295D01*
X42899285Y-3312295D02*
X42823094Y-3426580D01*
X42823094Y-3426580D02*
X42746904Y-3502771D01*
X42746904Y-3502771D02*
X42670713Y-3540866D01*
X43432618Y-3388485D02*
X43470714Y-3350390D01*
X43470714Y-3350390D02*
X43546904Y-3312295D01*
X43546904Y-3312295D02*
X43737380Y-3312295D01*
X43737380Y-3312295D02*
X43813571Y-3350390D01*
X43813571Y-3350390D02*
X43851666Y-3388485D01*
X43851666Y-3388485D02*
X43889761Y-3464676D01*
X43889761Y-3464676D02*
X43889761Y-3540866D01*
X43889761Y-3540866D02*
X43851666Y-3655152D01*
X43851666Y-3655152D02*
X43394523Y-4112295D01*
X43394523Y-4112295D02*
X43889761Y-4112295D01*
X47255476Y-3350390D02*
X47179286Y-3312295D01*
X47179286Y-3312295D02*
X47065000Y-3312295D01*
X47065000Y-3312295D02*
X46950714Y-3350390D01*
X46950714Y-3350390D02*
X46874524Y-3426580D01*
X46874524Y-3426580D02*
X46836429Y-3502771D01*
X46836429Y-3502771D02*
X46798333Y-3655152D01*
X46798333Y-3655152D02*
X46798333Y-3769438D01*
X46798333Y-3769438D02*
X46836429Y-3921819D01*
X46836429Y-3921819D02*
X46874524Y-3998009D01*
X46874524Y-3998009D02*
X46950714Y-4074200D01*
X46950714Y-4074200D02*
X47065000Y-4112295D01*
X47065000Y-4112295D02*
X47141191Y-4112295D01*
X47141191Y-4112295D02*
X47255476Y-4074200D01*
X47255476Y-4074200D02*
X47293572Y-4036104D01*
X47293572Y-4036104D02*
X47293572Y-3769438D01*
X47293572Y-3769438D02*
X47141191Y-3769438D01*
X47636429Y-4112295D02*
X47636429Y-3312295D01*
X47636429Y-3312295D02*
X48093572Y-4112295D01*
X48093572Y-4112295D02*
X48093572Y-3312295D01*
X48474524Y-4112295D02*
X48474524Y-3312295D01*
X48474524Y-3312295D02*
X48665000Y-3312295D01*
X48665000Y-3312295D02*
X48779286Y-3350390D01*
X48779286Y-3350390D02*
X48855476Y-3426580D01*
X48855476Y-3426580D02*
X48893571Y-3502771D01*
X48893571Y-3502771D02*
X48931667Y-3655152D01*
X48931667Y-3655152D02*
X48931667Y-3769438D01*
X48931667Y-3769438D02*
X48893571Y-3921819D01*
X48893571Y-3921819D02*
X48855476Y-3998009D01*
X48855476Y-3998009D02*
X48779286Y-4074200D01*
X48779286Y-4074200D02*
X48665000Y-4112295D01*
X48665000Y-4112295D02*
X48474524Y-4112295D01*
X52335476Y-4112295D02*
X52335476Y-3312295D01*
X52335476Y-3312295D02*
X52602142Y-3883723D01*
X52602142Y-3883723D02*
X52868809Y-3312295D01*
X52868809Y-3312295D02*
X52868809Y-4112295D01*
X53211666Y-3883723D02*
X53592619Y-3883723D01*
X53135476Y-4112295D02*
X53402143Y-3312295D01*
X53402143Y-3312295D02*
X53668809Y-4112295D01*
X57358333Y-4112295D02*
X57358333Y-3312295D01*
X57358333Y-3312295D02*
X57624999Y-3883723D01*
X57624999Y-3883723D02*
X57891666Y-3312295D01*
X57891666Y-3312295D02*
X57891666Y-4112295D01*
X58539285Y-3693247D02*
X58653571Y-3731342D01*
X58653571Y-3731342D02*
X58691666Y-3769438D01*
X58691666Y-3769438D02*
X58729762Y-3845628D01*
X58729762Y-3845628D02*
X58729762Y-3959914D01*
X58729762Y-3959914D02*
X58691666Y-4036104D01*
X58691666Y-4036104D02*
X58653571Y-4074200D01*
X58653571Y-4074200D02*
X58577381Y-4112295D01*
X58577381Y-4112295D02*
X58272619Y-4112295D01*
X58272619Y-4112295D02*
X58272619Y-3312295D01*
X58272619Y-3312295D02*
X58539285Y-3312295D01*
X58539285Y-3312295D02*
X58615476Y-3350390D01*
X58615476Y-3350390D02*
X58653571Y-3388485D01*
X58653571Y-3388485D02*
X58691666Y-3464676D01*
X58691666Y-3464676D02*
X58691666Y-3540866D01*
X58691666Y-3540866D02*
X58653571Y-3617057D01*
X58653571Y-3617057D02*
X58615476Y-3655152D01*
X58615476Y-3655152D02*
X58539285Y-3693247D01*
X58539285Y-3693247D02*
X58272619Y-3693247D01*
X122139795Y-77028571D02*
X122711223Y-77028571D01*
X122711223Y-77028571D02*
X122825509Y-77066666D01*
X122825509Y-77066666D02*
X122901700Y-77142857D01*
X122901700Y-77142857D02*
X122939795Y-77257142D01*
X122939795Y-77257142D02*
X122939795Y-77333333D01*
X122215985Y-76685714D02*
X122177890Y-76647618D01*
X122177890Y-76647618D02*
X122139795Y-76571428D01*
X122139795Y-76571428D02*
X122139795Y-76380952D01*
X122139795Y-76380952D02*
X122177890Y-76304761D01*
X122177890Y-76304761D02*
X122215985Y-76266666D01*
X122215985Y-76266666D02*
X122292176Y-76228571D01*
X122292176Y-76228571D02*
X122368366Y-76228571D01*
X122368366Y-76228571D02*
X122482652Y-76266666D01*
X122482652Y-76266666D02*
X122939795Y-76723809D01*
X122939795Y-76723809D02*
X122939795Y-76228571D01*
X122939795Y-75466666D02*
X122939795Y-75923809D01*
X122939795Y-75695237D02*
X122139795Y-75695237D01*
X122139795Y-75695237D02*
X122254080Y-75771428D01*
X122254080Y-75771428D02*
X122330271Y-75847618D01*
X122330271Y-75847618D02*
X122368366Y-75923809D01*
X122139795Y-75199999D02*
X122139795Y-74704761D01*
X122139795Y-74704761D02*
X122444557Y-74971427D01*
X122444557Y-74971427D02*
X122444557Y-74857142D01*
X122444557Y-74857142D02*
X122482652Y-74780951D01*
X122482652Y-74780951D02*
X122520747Y-74742856D01*
X122520747Y-74742856D02*
X122596938Y-74704761D01*
X122596938Y-74704761D02*
X122787414Y-74704761D01*
X122787414Y-74704761D02*
X122863604Y-74742856D01*
X122863604Y-74742856D02*
X122901700Y-74780951D01*
X122901700Y-74780951D02*
X122939795Y-74857142D01*
X122939795Y-74857142D02*
X122939795Y-75085713D01*
X122939795Y-75085713D02*
X122901700Y-75161904D01*
X122901700Y-75161904D02*
X122863604Y-75199999D01*
X88134524Y-29012295D02*
X88134524Y-28212295D01*
X88134524Y-28593247D02*
X88591667Y-28593247D01*
X88591667Y-29012295D02*
X88591667Y-28212295D01*
X88934523Y-28974200D02*
X89048809Y-29012295D01*
X89048809Y-29012295D02*
X89239285Y-29012295D01*
X89239285Y-29012295D02*
X89315476Y-28974200D01*
X89315476Y-28974200D02*
X89353571Y-28936104D01*
X89353571Y-28936104D02*
X89391666Y-28859914D01*
X89391666Y-28859914D02*
X89391666Y-28783723D01*
X89391666Y-28783723D02*
X89353571Y-28707533D01*
X89353571Y-28707533D02*
X89315476Y-28669438D01*
X89315476Y-28669438D02*
X89239285Y-28631342D01*
X89239285Y-28631342D02*
X89086904Y-28593247D01*
X89086904Y-28593247D02*
X89010714Y-28555152D01*
X89010714Y-28555152D02*
X88972619Y-28517057D01*
X88972619Y-28517057D02*
X88934523Y-28440866D01*
X88934523Y-28440866D02*
X88934523Y-28364676D01*
X88934523Y-28364676D02*
X88972619Y-28288485D01*
X88972619Y-28288485D02*
X89010714Y-28250390D01*
X89010714Y-28250390D02*
X89086904Y-28212295D01*
X89086904Y-28212295D02*
X89277381Y-28212295D01*
X89277381Y-28212295D02*
X89391666Y-28250390D01*
X89658333Y-28212295D02*
X90153571Y-28212295D01*
X90153571Y-28212295D02*
X89886905Y-28517057D01*
X89886905Y-28517057D02*
X90001190Y-28517057D01*
X90001190Y-28517057D02*
X90077381Y-28555152D01*
X90077381Y-28555152D02*
X90115476Y-28593247D01*
X90115476Y-28593247D02*
X90153571Y-28669438D01*
X90153571Y-28669438D02*
X90153571Y-28859914D01*
X90153571Y-28859914D02*
X90115476Y-28936104D01*
X90115476Y-28936104D02*
X90077381Y-28974200D01*
X90077381Y-28974200D02*
X90001190Y-29012295D01*
X90001190Y-29012295D02*
X89772619Y-29012295D01*
X89772619Y-29012295D02*
X89696428Y-28974200D01*
X89696428Y-28974200D02*
X89658333Y-28936104D01*
X90763095Y-28593247D02*
X90877381Y-28631342D01*
X90877381Y-28631342D02*
X90915476Y-28669438D01*
X90915476Y-28669438D02*
X90953572Y-28745628D01*
X90953572Y-28745628D02*
X90953572Y-28859914D01*
X90953572Y-28859914D02*
X90915476Y-28936104D01*
X90915476Y-28936104D02*
X90877381Y-28974200D01*
X90877381Y-28974200D02*
X90801191Y-29012295D01*
X90801191Y-29012295D02*
X90496429Y-29012295D01*
X90496429Y-29012295D02*
X90496429Y-28212295D01*
X90496429Y-28212295D02*
X90763095Y-28212295D01*
X90763095Y-28212295D02*
X90839286Y-28250390D01*
X90839286Y-28250390D02*
X90877381Y-28288485D01*
X90877381Y-28288485D02*
X90915476Y-28364676D01*
X90915476Y-28364676D02*
X90915476Y-28440866D01*
X90915476Y-28440866D02*
X90877381Y-28517057D01*
X90877381Y-28517057D02*
X90839286Y-28555152D01*
X90839286Y-28555152D02*
X90763095Y-28593247D01*
X90763095Y-28593247D02*
X90496429Y-28593247D01*
X75147062Y-66036104D02*
X75108966Y-66074200D01*
X75108966Y-66074200D02*
X74994681Y-66112295D01*
X74994681Y-66112295D02*
X74918490Y-66112295D01*
X74918490Y-66112295D02*
X74804204Y-66074200D01*
X74804204Y-66074200D02*
X74728014Y-65998009D01*
X74728014Y-65998009D02*
X74689919Y-65921819D01*
X74689919Y-65921819D02*
X74651823Y-65769438D01*
X74651823Y-65769438D02*
X74651823Y-65655152D01*
X74651823Y-65655152D02*
X74689919Y-65502771D01*
X74689919Y-65502771D02*
X74728014Y-65426580D01*
X74728014Y-65426580D02*
X74804204Y-65350390D01*
X74804204Y-65350390D02*
X74918490Y-65312295D01*
X74918490Y-65312295D02*
X74994681Y-65312295D01*
X74994681Y-65312295D02*
X75108966Y-65350390D01*
X75108966Y-65350390D02*
X75147062Y-65388485D01*
X75451823Y-65388485D02*
X75489919Y-65350390D01*
X75489919Y-65350390D02*
X75566109Y-65312295D01*
X75566109Y-65312295D02*
X75756585Y-65312295D01*
X75756585Y-65312295D02*
X75832776Y-65350390D01*
X75832776Y-65350390D02*
X75870871Y-65388485D01*
X75870871Y-65388485D02*
X75908966Y-65464676D01*
X75908966Y-65464676D02*
X75908966Y-65540866D01*
X75908966Y-65540866D02*
X75870871Y-65655152D01*
X75870871Y-65655152D02*
X75413728Y-66112295D01*
X75413728Y-66112295D02*
X75908966Y-66112295D01*
X76175633Y-65312295D02*
X76670871Y-65312295D01*
X76670871Y-65312295D02*
X76404205Y-65617057D01*
X76404205Y-65617057D02*
X76518490Y-65617057D01*
X76518490Y-65617057D02*
X76594681Y-65655152D01*
X76594681Y-65655152D02*
X76632776Y-65693247D01*
X76632776Y-65693247D02*
X76670871Y-65769438D01*
X76670871Y-65769438D02*
X76670871Y-65959914D01*
X76670871Y-65959914D02*
X76632776Y-66036104D01*
X76632776Y-66036104D02*
X76594681Y-66074200D01*
X76594681Y-66074200D02*
X76518490Y-66112295D01*
X76518490Y-66112295D02*
X76289919Y-66112295D01*
X76289919Y-66112295D02*
X76213728Y-66074200D01*
X76213728Y-66074200D02*
X76175633Y-66036104D01*
X76937538Y-65312295D02*
X77432776Y-65312295D01*
X77432776Y-65312295D02*
X77166110Y-65617057D01*
X77166110Y-65617057D02*
X77280395Y-65617057D01*
X77280395Y-65617057D02*
X77356586Y-65655152D01*
X77356586Y-65655152D02*
X77394681Y-65693247D01*
X77394681Y-65693247D02*
X77432776Y-65769438D01*
X77432776Y-65769438D02*
X77432776Y-65959914D01*
X77432776Y-65959914D02*
X77394681Y-66036104D01*
X77394681Y-66036104D02*
X77356586Y-66074200D01*
X77356586Y-66074200D02*
X77280395Y-66112295D01*
X77280395Y-66112295D02*
X77051824Y-66112295D01*
X77051824Y-66112295D02*
X76975633Y-66074200D01*
X76975633Y-66074200D02*
X76937538Y-66036104D01*
X90981104Y-78395237D02*
X91019200Y-78433333D01*
X91019200Y-78433333D02*
X91057295Y-78547618D01*
X91057295Y-78547618D02*
X91057295Y-78623809D01*
X91057295Y-78623809D02*
X91019200Y-78738095D01*
X91019200Y-78738095D02*
X90943009Y-78814285D01*
X90943009Y-78814285D02*
X90866819Y-78852380D01*
X90866819Y-78852380D02*
X90714438Y-78890476D01*
X90714438Y-78890476D02*
X90600152Y-78890476D01*
X90600152Y-78890476D02*
X90447771Y-78852380D01*
X90447771Y-78852380D02*
X90371580Y-78814285D01*
X90371580Y-78814285D02*
X90295390Y-78738095D01*
X90295390Y-78738095D02*
X90257295Y-78623809D01*
X90257295Y-78623809D02*
X90257295Y-78547618D01*
X90257295Y-78547618D02*
X90295390Y-78433333D01*
X90295390Y-78433333D02*
X90333485Y-78395237D01*
X90333485Y-78090476D02*
X90295390Y-78052380D01*
X90295390Y-78052380D02*
X90257295Y-77976190D01*
X90257295Y-77976190D02*
X90257295Y-77785714D01*
X90257295Y-77785714D02*
X90295390Y-77709523D01*
X90295390Y-77709523D02*
X90333485Y-77671428D01*
X90333485Y-77671428D02*
X90409676Y-77633333D01*
X90409676Y-77633333D02*
X90485866Y-77633333D01*
X90485866Y-77633333D02*
X90600152Y-77671428D01*
X90600152Y-77671428D02*
X91057295Y-78128571D01*
X91057295Y-78128571D02*
X91057295Y-77633333D01*
X90600152Y-77176190D02*
X90562057Y-77252380D01*
X90562057Y-77252380D02*
X90523961Y-77290475D01*
X90523961Y-77290475D02*
X90447771Y-77328571D01*
X90447771Y-77328571D02*
X90409676Y-77328571D01*
X90409676Y-77328571D02*
X90333485Y-77290475D01*
X90333485Y-77290475D02*
X90295390Y-77252380D01*
X90295390Y-77252380D02*
X90257295Y-77176190D01*
X90257295Y-77176190D02*
X90257295Y-77023809D01*
X90257295Y-77023809D02*
X90295390Y-76947618D01*
X90295390Y-76947618D02*
X90333485Y-76909523D01*
X90333485Y-76909523D02*
X90409676Y-76871428D01*
X90409676Y-76871428D02*
X90447771Y-76871428D01*
X90447771Y-76871428D02*
X90523961Y-76909523D01*
X90523961Y-76909523D02*
X90562057Y-76947618D01*
X90562057Y-76947618D02*
X90600152Y-77023809D01*
X90600152Y-77023809D02*
X90600152Y-77176190D01*
X90600152Y-77176190D02*
X90638247Y-77252380D01*
X90638247Y-77252380D02*
X90676342Y-77290475D01*
X90676342Y-77290475D02*
X90752533Y-77328571D01*
X90752533Y-77328571D02*
X90904914Y-77328571D01*
X90904914Y-77328571D02*
X90981104Y-77290475D01*
X90981104Y-77290475D02*
X91019200Y-77252380D01*
X91019200Y-77252380D02*
X91057295Y-77176190D01*
X91057295Y-77176190D02*
X91057295Y-77023809D01*
X91057295Y-77023809D02*
X91019200Y-76947618D01*
X91019200Y-76947618D02*
X90981104Y-76909523D01*
X90981104Y-76909523D02*
X90904914Y-76871428D01*
X90904914Y-76871428D02*
X90752533Y-76871428D01*
X90752533Y-76871428D02*
X90676342Y-76909523D01*
X90676342Y-76909523D02*
X90638247Y-76947618D01*
X90638247Y-76947618D02*
X90600152Y-77023809D01*
X90257295Y-76376189D02*
X90257295Y-76299999D01*
X90257295Y-76299999D02*
X90295390Y-76223808D01*
X90295390Y-76223808D02*
X90333485Y-76185713D01*
X90333485Y-76185713D02*
X90409676Y-76147618D01*
X90409676Y-76147618D02*
X90562057Y-76109523D01*
X90562057Y-76109523D02*
X90752533Y-76109523D01*
X90752533Y-76109523D02*
X90904914Y-76147618D01*
X90904914Y-76147618D02*
X90981104Y-76185713D01*
X90981104Y-76185713D02*
X91019200Y-76223808D01*
X91019200Y-76223808D02*
X91057295Y-76299999D01*
X91057295Y-76299999D02*
X91057295Y-76376189D01*
X91057295Y-76376189D02*
X91019200Y-76452380D01*
X91019200Y-76452380D02*
X90981104Y-76490475D01*
X90981104Y-76490475D02*
X90904914Y-76528570D01*
X90904914Y-76528570D02*
X90752533Y-76566666D01*
X90752533Y-76566666D02*
X90562057Y-76566666D01*
X90562057Y-76566666D02*
X90409676Y-76528570D01*
X90409676Y-76528570D02*
X90333485Y-76490475D01*
X90333485Y-76490475D02*
X90295390Y-76452380D01*
X90295390Y-76452380D02*
X90257295Y-76376189D01*
X17798333Y-962295D02*
X17798333Y-1533723D01*
X17798333Y-1533723D02*
X17760238Y-1648009D01*
X17760238Y-1648009D02*
X17684047Y-1724200D01*
X17684047Y-1724200D02*
X17569762Y-1762295D01*
X17569762Y-1762295D02*
X17493571Y-1762295D01*
X18598333Y-1762295D02*
X18141190Y-1762295D01*
X18369762Y-1762295D02*
X18369762Y-962295D01*
X18369762Y-962295D02*
X18293571Y-1076580D01*
X18293571Y-1076580D02*
X18217381Y-1152771D01*
X18217381Y-1152771D02*
X18141190Y-1190866D01*
X9378333Y-4307533D02*
X9987857Y-4307533D01*
X9683095Y-4612295D02*
X9683095Y-4002771D01*
X10787856Y-4612295D02*
X10330713Y-4612295D01*
X10559285Y-4612295D02*
X10559285Y-3812295D01*
X10559285Y-3812295D02*
X10483094Y-3926580D01*
X10483094Y-3926580D02*
X10406904Y-4002771D01*
X10406904Y-4002771D02*
X10330713Y-4040866D01*
X11092618Y-3888485D02*
X11130714Y-3850390D01*
X11130714Y-3850390D02*
X11206904Y-3812295D01*
X11206904Y-3812295D02*
X11397380Y-3812295D01*
X11397380Y-3812295D02*
X11473571Y-3850390D01*
X11473571Y-3850390D02*
X11511666Y-3888485D01*
X11511666Y-3888485D02*
X11549761Y-3964676D01*
X11549761Y-3964676D02*
X11549761Y-4040866D01*
X11549761Y-4040866D02*
X11511666Y-4155152D01*
X11511666Y-4155152D02*
X11054523Y-4612295D01*
X11054523Y-4612295D02*
X11549761Y-4612295D01*
X14915476Y-3850390D02*
X14839286Y-3812295D01*
X14839286Y-3812295D02*
X14725000Y-3812295D01*
X14725000Y-3812295D02*
X14610714Y-3850390D01*
X14610714Y-3850390D02*
X14534524Y-3926580D01*
X14534524Y-3926580D02*
X14496429Y-4002771D01*
X14496429Y-4002771D02*
X14458333Y-4155152D01*
X14458333Y-4155152D02*
X14458333Y-4269438D01*
X14458333Y-4269438D02*
X14496429Y-4421819D01*
X14496429Y-4421819D02*
X14534524Y-4498009D01*
X14534524Y-4498009D02*
X14610714Y-4574200D01*
X14610714Y-4574200D02*
X14725000Y-4612295D01*
X14725000Y-4612295D02*
X14801191Y-4612295D01*
X14801191Y-4612295D02*
X14915476Y-4574200D01*
X14915476Y-4574200D02*
X14953572Y-4536104D01*
X14953572Y-4536104D02*
X14953572Y-4269438D01*
X14953572Y-4269438D02*
X14801191Y-4269438D01*
X15296429Y-4612295D02*
X15296429Y-3812295D01*
X15296429Y-3812295D02*
X15753572Y-4612295D01*
X15753572Y-4612295D02*
X15753572Y-3812295D01*
X16134524Y-4612295D02*
X16134524Y-3812295D01*
X16134524Y-3812295D02*
X16325000Y-3812295D01*
X16325000Y-3812295D02*
X16439286Y-3850390D01*
X16439286Y-3850390D02*
X16515476Y-3926580D01*
X16515476Y-3926580D02*
X16553571Y-4002771D01*
X16553571Y-4002771D02*
X16591667Y-4155152D01*
X16591667Y-4155152D02*
X16591667Y-4269438D01*
X16591667Y-4269438D02*
X16553571Y-4421819D01*
X16553571Y-4421819D02*
X16515476Y-4498009D01*
X16515476Y-4498009D02*
X16439286Y-4574200D01*
X16439286Y-4574200D02*
X16325000Y-4612295D01*
X16325000Y-4612295D02*
X16134524Y-4612295D01*
X19995476Y-4612295D02*
X19995476Y-3812295D01*
X19995476Y-3812295D02*
X20262142Y-4383723D01*
X20262142Y-4383723D02*
X20528809Y-3812295D01*
X20528809Y-3812295D02*
X20528809Y-4612295D01*
X20871666Y-4383723D02*
X21252619Y-4383723D01*
X20795476Y-4612295D02*
X21062143Y-3812295D01*
X21062143Y-3812295D02*
X21328809Y-4612295D01*
X25018333Y-4612295D02*
X25018333Y-3812295D01*
X25018333Y-3812295D02*
X25284999Y-4383723D01*
X25284999Y-4383723D02*
X25551666Y-3812295D01*
X25551666Y-3812295D02*
X25551666Y-4612295D01*
X26199285Y-4193247D02*
X26313571Y-4231342D01*
X26313571Y-4231342D02*
X26351666Y-4269438D01*
X26351666Y-4269438D02*
X26389762Y-4345628D01*
X26389762Y-4345628D02*
X26389762Y-4459914D01*
X26389762Y-4459914D02*
X26351666Y-4536104D01*
X26351666Y-4536104D02*
X26313571Y-4574200D01*
X26313571Y-4574200D02*
X26237381Y-4612295D01*
X26237381Y-4612295D02*
X25932619Y-4612295D01*
X25932619Y-4612295D02*
X25932619Y-3812295D01*
X25932619Y-3812295D02*
X26199285Y-3812295D01*
X26199285Y-3812295D02*
X26275476Y-3850390D01*
X26275476Y-3850390D02*
X26313571Y-3888485D01*
X26313571Y-3888485D02*
X26351666Y-3964676D01*
X26351666Y-3964676D02*
X26351666Y-4040866D01*
X26351666Y-4040866D02*
X26313571Y-4117057D01*
X26313571Y-4117057D02*
X26275476Y-4155152D01*
X26275476Y-4155152D02*
X26199285Y-4193247D01*
X26199285Y-4193247D02*
X25932619Y-4193247D01*
X74798333Y-462295D02*
X74798333Y-1033723D01*
X74798333Y-1033723D02*
X74760238Y-1148009D01*
X74760238Y-1148009D02*
X74684047Y-1224200D01*
X74684047Y-1224200D02*
X74569762Y-1262295D01*
X74569762Y-1262295D02*
X74493571Y-1262295D01*
X75103095Y-462295D02*
X75598333Y-462295D01*
X75598333Y-462295D02*
X75331667Y-767057D01*
X75331667Y-767057D02*
X75445952Y-767057D01*
X75445952Y-767057D02*
X75522143Y-805152D01*
X75522143Y-805152D02*
X75560238Y-843247D01*
X75560238Y-843247D02*
X75598333Y-919438D01*
X75598333Y-919438D02*
X75598333Y-1109914D01*
X75598333Y-1109914D02*
X75560238Y-1186104D01*
X75560238Y-1186104D02*
X75522143Y-1224200D01*
X75522143Y-1224200D02*
X75445952Y-1262295D01*
X75445952Y-1262295D02*
X75217381Y-1262295D01*
X75217381Y-1262295D02*
X75141190Y-1224200D01*
X75141190Y-1224200D02*
X75103095Y-1186104D01*
X66378333Y-3807533D02*
X66987857Y-3807533D01*
X66683095Y-4112295D02*
X66683095Y-3502771D01*
X67787856Y-4112295D02*
X67330713Y-4112295D01*
X67559285Y-4112295D02*
X67559285Y-3312295D01*
X67559285Y-3312295D02*
X67483094Y-3426580D01*
X67483094Y-3426580D02*
X67406904Y-3502771D01*
X67406904Y-3502771D02*
X67330713Y-3540866D01*
X68092618Y-3388485D02*
X68130714Y-3350390D01*
X68130714Y-3350390D02*
X68206904Y-3312295D01*
X68206904Y-3312295D02*
X68397380Y-3312295D01*
X68397380Y-3312295D02*
X68473571Y-3350390D01*
X68473571Y-3350390D02*
X68511666Y-3388485D01*
X68511666Y-3388485D02*
X68549761Y-3464676D01*
X68549761Y-3464676D02*
X68549761Y-3540866D01*
X68549761Y-3540866D02*
X68511666Y-3655152D01*
X68511666Y-3655152D02*
X68054523Y-4112295D01*
X68054523Y-4112295D02*
X68549761Y-4112295D01*
X71915476Y-3350390D02*
X71839286Y-3312295D01*
X71839286Y-3312295D02*
X71725000Y-3312295D01*
X71725000Y-3312295D02*
X71610714Y-3350390D01*
X71610714Y-3350390D02*
X71534524Y-3426580D01*
X71534524Y-3426580D02*
X71496429Y-3502771D01*
X71496429Y-3502771D02*
X71458333Y-3655152D01*
X71458333Y-3655152D02*
X71458333Y-3769438D01*
X71458333Y-3769438D02*
X71496429Y-3921819D01*
X71496429Y-3921819D02*
X71534524Y-3998009D01*
X71534524Y-3998009D02*
X71610714Y-4074200D01*
X71610714Y-4074200D02*
X71725000Y-4112295D01*
X71725000Y-4112295D02*
X71801191Y-4112295D01*
X71801191Y-4112295D02*
X71915476Y-4074200D01*
X71915476Y-4074200D02*
X71953572Y-4036104D01*
X71953572Y-4036104D02*
X71953572Y-3769438D01*
X71953572Y-3769438D02*
X71801191Y-3769438D01*
X72296429Y-4112295D02*
X72296429Y-3312295D01*
X72296429Y-3312295D02*
X72753572Y-4112295D01*
X72753572Y-4112295D02*
X72753572Y-3312295D01*
X73134524Y-4112295D02*
X73134524Y-3312295D01*
X73134524Y-3312295D02*
X73325000Y-3312295D01*
X73325000Y-3312295D02*
X73439286Y-3350390D01*
X73439286Y-3350390D02*
X73515476Y-3426580D01*
X73515476Y-3426580D02*
X73553571Y-3502771D01*
X73553571Y-3502771D02*
X73591667Y-3655152D01*
X73591667Y-3655152D02*
X73591667Y-3769438D01*
X73591667Y-3769438D02*
X73553571Y-3921819D01*
X73553571Y-3921819D02*
X73515476Y-3998009D01*
X73515476Y-3998009D02*
X73439286Y-4074200D01*
X73439286Y-4074200D02*
X73325000Y-4112295D01*
X73325000Y-4112295D02*
X73134524Y-4112295D01*
X76995476Y-4112295D02*
X76995476Y-3312295D01*
X76995476Y-3312295D02*
X77262142Y-3883723D01*
X77262142Y-3883723D02*
X77528809Y-3312295D01*
X77528809Y-3312295D02*
X77528809Y-4112295D01*
X77871666Y-3883723D02*
X78252619Y-3883723D01*
X77795476Y-4112295D02*
X78062143Y-3312295D01*
X78062143Y-3312295D02*
X78328809Y-4112295D01*
X82018333Y-4112295D02*
X82018333Y-3312295D01*
X82018333Y-3312295D02*
X82284999Y-3883723D01*
X82284999Y-3883723D02*
X82551666Y-3312295D01*
X82551666Y-3312295D02*
X82551666Y-4112295D01*
X83199285Y-3693247D02*
X83313571Y-3731342D01*
X83313571Y-3731342D02*
X83351666Y-3769438D01*
X83351666Y-3769438D02*
X83389762Y-3845628D01*
X83389762Y-3845628D02*
X83389762Y-3959914D01*
X83389762Y-3959914D02*
X83351666Y-4036104D01*
X83351666Y-4036104D02*
X83313571Y-4074200D01*
X83313571Y-4074200D02*
X83237381Y-4112295D01*
X83237381Y-4112295D02*
X82932619Y-4112295D01*
X82932619Y-4112295D02*
X82932619Y-3312295D01*
X82932619Y-3312295D02*
X83199285Y-3312295D01*
X83199285Y-3312295D02*
X83275476Y-3350390D01*
X83275476Y-3350390D02*
X83313571Y-3388485D01*
X83313571Y-3388485D02*
X83351666Y-3464676D01*
X83351666Y-3464676D02*
X83351666Y-3540866D01*
X83351666Y-3540866D02*
X83313571Y-3617057D01*
X83313571Y-3617057D02*
X83275476Y-3655152D01*
X83275476Y-3655152D02*
X83199285Y-3693247D01*
X83199285Y-3693247D02*
X82932619Y-3693247D01*
D12*
X114496428Y-90564895D02*
X114496428Y-91136323D01*
X114496428Y-91136323D02*
X114458333Y-91250609D01*
X114458333Y-91250609D02*
X114382142Y-91326800D01*
X114382142Y-91326800D02*
X114267857Y-91364895D01*
X114267857Y-91364895D02*
X114191666Y-91364895D01*
X114839285Y-90641085D02*
X114877381Y-90602990D01*
X114877381Y-90602990D02*
X114953571Y-90564895D01*
X114953571Y-90564895D02*
X115144047Y-90564895D01*
X115144047Y-90564895D02*
X115220238Y-90602990D01*
X115220238Y-90602990D02*
X115258333Y-90641085D01*
X115258333Y-90641085D02*
X115296428Y-90717276D01*
X115296428Y-90717276D02*
X115296428Y-90793466D01*
X115296428Y-90793466D02*
X115258333Y-90907752D01*
X115258333Y-90907752D02*
X114801190Y-91364895D01*
X114801190Y-91364895D02*
X115296428Y-91364895D01*
X115791667Y-90564895D02*
X115867857Y-90564895D01*
X115867857Y-90564895D02*
X115944048Y-90602990D01*
X115944048Y-90602990D02*
X115982143Y-90641085D01*
X115982143Y-90641085D02*
X116020238Y-90717276D01*
X116020238Y-90717276D02*
X116058333Y-90869657D01*
X116058333Y-90869657D02*
X116058333Y-91060133D01*
X116058333Y-91060133D02*
X116020238Y-91212514D01*
X116020238Y-91212514D02*
X115982143Y-91288704D01*
X115982143Y-91288704D02*
X115944048Y-91326800D01*
X115944048Y-91326800D02*
X115867857Y-91364895D01*
X115867857Y-91364895D02*
X115791667Y-91364895D01*
X115791667Y-91364895D02*
X115715476Y-91326800D01*
X115715476Y-91326800D02*
X115677381Y-91288704D01*
X115677381Y-91288704D02*
X115639286Y-91212514D01*
X115639286Y-91212514D02*
X115601190Y-91060133D01*
X115601190Y-91060133D02*
X115601190Y-90869657D01*
X115601190Y-90869657D02*
X115639286Y-90717276D01*
X115639286Y-90717276D02*
X115677381Y-90641085D01*
X115677381Y-90641085D02*
X115715476Y-90602990D01*
X115715476Y-90602990D02*
X115791667Y-90564895D01*
X116325000Y-90564895D02*
X116820238Y-90564895D01*
X116820238Y-90564895D02*
X116553572Y-90869657D01*
X116553572Y-90869657D02*
X116667857Y-90869657D01*
X116667857Y-90869657D02*
X116744048Y-90907752D01*
X116744048Y-90907752D02*
X116782143Y-90945847D01*
X116782143Y-90945847D02*
X116820238Y-91022038D01*
X116820238Y-91022038D02*
X116820238Y-91212514D01*
X116820238Y-91212514D02*
X116782143Y-91288704D01*
X116782143Y-91288704D02*
X116744048Y-91326800D01*
X116744048Y-91326800D02*
X116667857Y-91364895D01*
X116667857Y-91364895D02*
X116439286Y-91364895D01*
X116439286Y-91364895D02*
X116363095Y-91326800D01*
X116363095Y-91326800D02*
X116325000Y-91288704D01*
D13*
X49609762Y-57546104D02*
X49571666Y-57584200D01*
X49571666Y-57584200D02*
X49457381Y-57622295D01*
X49457381Y-57622295D02*
X49381190Y-57622295D01*
X49381190Y-57622295D02*
X49266904Y-57584200D01*
X49266904Y-57584200D02*
X49190714Y-57508009D01*
X49190714Y-57508009D02*
X49152619Y-57431819D01*
X49152619Y-57431819D02*
X49114523Y-57279438D01*
X49114523Y-57279438D02*
X49114523Y-57165152D01*
X49114523Y-57165152D02*
X49152619Y-57012771D01*
X49152619Y-57012771D02*
X49190714Y-56936580D01*
X49190714Y-56936580D02*
X49266904Y-56860390D01*
X49266904Y-56860390D02*
X49381190Y-56822295D01*
X49381190Y-56822295D02*
X49457381Y-56822295D01*
X49457381Y-56822295D02*
X49571666Y-56860390D01*
X49571666Y-56860390D02*
X49609762Y-56898485D01*
X49914523Y-57393723D02*
X50295476Y-57393723D01*
X49838333Y-57622295D02*
X50105000Y-56822295D01*
X50105000Y-56822295D02*
X50371666Y-57622295D01*
X50638333Y-57622295D02*
X50638333Y-56822295D01*
X50638333Y-56822295D02*
X51095476Y-57622295D01*
X51095476Y-57622295D02*
X51095476Y-56822295D01*
X51895475Y-57622295D02*
X51438332Y-57622295D01*
X51666904Y-57622295D02*
X51666904Y-56822295D01*
X51666904Y-56822295D02*
X51590713Y-56936580D01*
X51590713Y-56936580D02*
X51514523Y-57012771D01*
X51514523Y-57012771D02*
X51438332Y-57050866D01*
D14*
X46564523Y-60023335D02*
X47059761Y-60023335D01*
X47059761Y-60023335D02*
X46793095Y-60328097D01*
X46793095Y-60328097D02*
X46907380Y-60328097D01*
X46907380Y-60328097D02*
X46983571Y-60366192D01*
X46983571Y-60366192D02*
X47021666Y-60404287D01*
X47021666Y-60404287D02*
X47059761Y-60480478D01*
X47059761Y-60480478D02*
X47059761Y-60670954D01*
X47059761Y-60670954D02*
X47021666Y-60747144D01*
X47021666Y-60747144D02*
X46983571Y-60785240D01*
X46983571Y-60785240D02*
X46907380Y-60823335D01*
X46907380Y-60823335D02*
X46678809Y-60823335D01*
X46678809Y-60823335D02*
X46602618Y-60785240D01*
X46602618Y-60785240D02*
X46564523Y-60747144D01*
X47288333Y-60023335D02*
X47555000Y-60823335D01*
X47555000Y-60823335D02*
X47821666Y-60023335D01*
X48012142Y-60023335D02*
X48507380Y-60023335D01*
X48507380Y-60023335D02*
X48240714Y-60328097D01*
X48240714Y-60328097D02*
X48354999Y-60328097D01*
X48354999Y-60328097D02*
X48431190Y-60366192D01*
X48431190Y-60366192D02*
X48469285Y-60404287D01*
X48469285Y-60404287D02*
X48507380Y-60480478D01*
X48507380Y-60480478D02*
X48507380Y-60670954D01*
X48507380Y-60670954D02*
X48469285Y-60747144D01*
X48469285Y-60747144D02*
X48431190Y-60785240D01*
X48431190Y-60785240D02*
X48354999Y-60823335D01*
X48354999Y-60823335D02*
X48126428Y-60823335D01*
X48126428Y-60823335D02*
X48050237Y-60785240D01*
X48050237Y-60785240D02*
X48012142Y-60747144D01*
X47116905Y-73447144D02*
X47078809Y-73485240D01*
X47078809Y-73485240D02*
X46964524Y-73523335D01*
X46964524Y-73523335D02*
X46888333Y-73523335D01*
X46888333Y-73523335D02*
X46774047Y-73485240D01*
X46774047Y-73485240D02*
X46697857Y-73409049D01*
X46697857Y-73409049D02*
X46659762Y-73332859D01*
X46659762Y-73332859D02*
X46621666Y-73180478D01*
X46621666Y-73180478D02*
X46621666Y-73066192D01*
X46621666Y-73066192D02*
X46659762Y-72913811D01*
X46659762Y-72913811D02*
X46697857Y-72837620D01*
X46697857Y-72837620D02*
X46774047Y-72761430D01*
X46774047Y-72761430D02*
X46888333Y-72723335D01*
X46888333Y-72723335D02*
X46964524Y-72723335D01*
X46964524Y-72723335D02*
X47078809Y-72761430D01*
X47078809Y-72761430D02*
X47116905Y-72799525D01*
X47421666Y-73294763D02*
X47802619Y-73294763D01*
X47345476Y-73523335D02*
X47612143Y-72723335D01*
X47612143Y-72723335D02*
X47878809Y-73523335D01*
X48145476Y-73523335D02*
X48145476Y-72723335D01*
X48145476Y-72723335D02*
X48602619Y-73523335D01*
X48602619Y-73523335D02*
X48602619Y-72723335D01*
X49364523Y-73523335D02*
X48983571Y-73523335D01*
X48983571Y-73523335D02*
X48983571Y-72723335D01*
D12*
X69172619Y-72864895D02*
X69172619Y-72064895D01*
X69172619Y-72064895D02*
X69363095Y-72064895D01*
X69363095Y-72064895D02*
X69477381Y-72102990D01*
X69477381Y-72102990D02*
X69553571Y-72179180D01*
X69553571Y-72179180D02*
X69591666Y-72255371D01*
X69591666Y-72255371D02*
X69629762Y-72407752D01*
X69629762Y-72407752D02*
X69629762Y-72522038D01*
X69629762Y-72522038D02*
X69591666Y-72674419D01*
X69591666Y-72674419D02*
X69553571Y-72750609D01*
X69553571Y-72750609D02*
X69477381Y-72826800D01*
X69477381Y-72826800D02*
X69363095Y-72864895D01*
X69363095Y-72864895D02*
X69172619Y-72864895D01*
X69934523Y-72141085D02*
X69972619Y-72102990D01*
X69972619Y-72102990D02*
X70048809Y-72064895D01*
X70048809Y-72064895D02*
X70239285Y-72064895D01*
X70239285Y-72064895D02*
X70315476Y-72102990D01*
X70315476Y-72102990D02*
X70353571Y-72141085D01*
X70353571Y-72141085D02*
X70391666Y-72217276D01*
X70391666Y-72217276D02*
X70391666Y-72293466D01*
X70391666Y-72293466D02*
X70353571Y-72407752D01*
X70353571Y-72407752D02*
X69896428Y-72864895D01*
X69896428Y-72864895D02*
X70391666Y-72864895D01*
X70848809Y-72407752D02*
X70772619Y-72369657D01*
X70772619Y-72369657D02*
X70734524Y-72331561D01*
X70734524Y-72331561D02*
X70696428Y-72255371D01*
X70696428Y-72255371D02*
X70696428Y-72217276D01*
X70696428Y-72217276D02*
X70734524Y-72141085D01*
X70734524Y-72141085D02*
X70772619Y-72102990D01*
X70772619Y-72102990D02*
X70848809Y-72064895D01*
X70848809Y-72064895D02*
X71001190Y-72064895D01*
X71001190Y-72064895D02*
X71077381Y-72102990D01*
X71077381Y-72102990D02*
X71115476Y-72141085D01*
X71115476Y-72141085D02*
X71153571Y-72217276D01*
X71153571Y-72217276D02*
X71153571Y-72255371D01*
X71153571Y-72255371D02*
X71115476Y-72331561D01*
X71115476Y-72331561D02*
X71077381Y-72369657D01*
X71077381Y-72369657D02*
X71001190Y-72407752D01*
X71001190Y-72407752D02*
X70848809Y-72407752D01*
X70848809Y-72407752D02*
X70772619Y-72445847D01*
X70772619Y-72445847D02*
X70734524Y-72483942D01*
X70734524Y-72483942D02*
X70696428Y-72560133D01*
X70696428Y-72560133D02*
X70696428Y-72712514D01*
X70696428Y-72712514D02*
X70734524Y-72788704D01*
X70734524Y-72788704D02*
X70772619Y-72826800D01*
X70772619Y-72826800D02*
X70848809Y-72864895D01*
X70848809Y-72864895D02*
X71001190Y-72864895D01*
X71001190Y-72864895D02*
X71077381Y-72826800D01*
X71077381Y-72826800D02*
X71115476Y-72788704D01*
X71115476Y-72788704D02*
X71153571Y-72712514D01*
X71153571Y-72712514D02*
X71153571Y-72560133D01*
X71153571Y-72560133D02*
X71115476Y-72483942D01*
X71115476Y-72483942D02*
X71077381Y-72445847D01*
X71077381Y-72445847D02*
X71001190Y-72407752D01*
X71648810Y-72064895D02*
X71725000Y-72064895D01*
X71725000Y-72064895D02*
X71801191Y-72102990D01*
X71801191Y-72102990D02*
X71839286Y-72141085D01*
X71839286Y-72141085D02*
X71877381Y-72217276D01*
X71877381Y-72217276D02*
X71915476Y-72369657D01*
X71915476Y-72369657D02*
X71915476Y-72560133D01*
X71915476Y-72560133D02*
X71877381Y-72712514D01*
X71877381Y-72712514D02*
X71839286Y-72788704D01*
X71839286Y-72788704D02*
X71801191Y-72826800D01*
X71801191Y-72826800D02*
X71725000Y-72864895D01*
X71725000Y-72864895D02*
X71648810Y-72864895D01*
X71648810Y-72864895D02*
X71572619Y-72826800D01*
X71572619Y-72826800D02*
X71534524Y-72788704D01*
X71534524Y-72788704D02*
X71496429Y-72712514D01*
X71496429Y-72712514D02*
X71458333Y-72560133D01*
X71458333Y-72560133D02*
X71458333Y-72369657D01*
X71458333Y-72369657D02*
X71496429Y-72217276D01*
X71496429Y-72217276D02*
X71534524Y-72141085D01*
X71534524Y-72141085D02*
X71572619Y-72102990D01*
X71572619Y-72102990D02*
X71648810Y-72064895D01*
%TO.C,J220*%
D10*
X73565000Y-61880000D02*
X73565000Y-60500000D01*
X74945000Y-61880000D02*
X73565000Y-61880000D01*
X76215000Y-59120000D02*
X86485000Y-59120000D01*
X76215000Y-61880000D02*
X76215000Y-59120000D01*
X76215000Y-61880000D02*
X86485000Y-61880000D01*
X86485000Y-61880000D02*
X86485000Y-59120000D01*
%TO.C,J230*%
X6475000Y-83280000D02*
X13715000Y-83280000D01*
X6475000Y-89500000D02*
X13715000Y-89500000D01*
X6475000Y-90600000D02*
X13715000Y-90600000D01*
X6475000Y-91120000D02*
X6475000Y-83280000D01*
X8045000Y-91120000D02*
X6475000Y-91120000D01*
X13715000Y-83280000D02*
X13715000Y-91120000D01*
X13715000Y-91120000D02*
X8645000Y-91120000D01*
X8345000Y-91120000D02*
X8785000Y-91730000D01*
X7905000Y-91730000D01*
X8345000Y-91120000D01*
G36*
X8785000Y-91730000D02*
G01*
X7905000Y-91730000D01*
X8345000Y-91120000D01*
X8785000Y-91730000D01*
G37*
%TO.C,F230*%
X7555000Y-57262500D02*
X12635000Y-57262500D01*
X7555000Y-58032500D02*
X7555000Y-57262500D01*
X7555000Y-60632500D02*
X7555000Y-62262500D01*
X7555000Y-62262500D02*
X12635000Y-62262500D01*
X7555000Y-74202500D02*
X7555000Y-75832500D01*
X7555000Y-74202500D02*
X12635000Y-74202500D01*
X7555000Y-78432500D02*
X7555000Y-79202500D01*
X7595000Y-62262500D02*
X7595000Y-74202500D01*
X12595000Y-62262500D02*
X12595000Y-74202500D01*
X12635000Y-58032500D02*
X12635000Y-57262500D01*
X12635000Y-60632500D02*
X12635000Y-62262500D01*
X12635000Y-74202500D02*
X12635000Y-75832500D01*
X12635000Y-78432500D02*
X12635000Y-79202500D01*
X12635000Y-79202500D02*
X7555000Y-79202500D01*
%TO.C,C1201*%
X41045354Y-47625000D02*
X42045354Y-47625000D01*
X41545354Y-47125000D02*
X41545354Y-48125000D01*
X46525000Y-45420000D02*
X46525000Y-55580000D01*
X46565000Y-45420000D02*
X46565000Y-55580000D01*
X46605000Y-45421000D02*
X46605000Y-55579000D01*
X46645000Y-45421000D02*
X46645000Y-55579000D01*
X46685000Y-45423000D02*
X46685000Y-55577000D01*
X46725000Y-45424000D02*
X46725000Y-55576000D01*
X46765000Y-45426000D02*
X46765000Y-55574000D01*
X46805000Y-45428000D02*
X46805000Y-55572000D01*
X46845000Y-45430000D02*
X46845000Y-55570000D01*
X46885000Y-45433000D02*
X46885000Y-55567000D01*
X46925000Y-45436000D02*
X46925000Y-55564000D01*
X46965000Y-45439000D02*
X46965000Y-55561000D01*
X47005000Y-45443000D02*
X47005000Y-55557000D01*
X47045000Y-45446000D02*
X47045000Y-55554000D01*
X47085000Y-45451000D02*
X47085000Y-55549000D01*
X47125000Y-45455000D02*
X47125000Y-55545000D01*
X47165000Y-45460000D02*
X47165000Y-55540000D01*
X47205000Y-45465000D02*
X47205000Y-55535000D01*
X47245000Y-45471000D02*
X47245000Y-55529000D01*
X47285000Y-45477000D02*
X47285000Y-55523000D01*
X47325000Y-45483000D02*
X47325000Y-55517000D01*
X47365000Y-45489000D02*
X47365000Y-55511000D01*
X47405000Y-45496000D02*
X47405000Y-55504000D01*
X47445000Y-45503000D02*
X47445000Y-55497000D01*
X47485000Y-45511000D02*
X47485000Y-55489000D01*
X47525000Y-45519000D02*
X47525000Y-55481000D01*
X47565000Y-45527000D02*
X47565000Y-55473000D01*
X47605000Y-45535000D02*
X47605000Y-55465000D01*
X47645000Y-45544000D02*
X47645000Y-55456000D01*
X47685000Y-45553000D02*
X47685000Y-55447000D01*
X47725000Y-45563000D02*
X47725000Y-55437000D01*
X47765000Y-45572000D02*
X47765000Y-55428000D01*
X47805000Y-45583000D02*
X47805000Y-49260000D01*
X47805000Y-51740000D02*
X47805000Y-55417000D01*
X47845000Y-45593000D02*
X47845000Y-49260000D01*
X47845000Y-51740000D02*
X47845000Y-55407000D01*
X47885000Y-45604000D02*
X47885000Y-49260000D01*
X47885000Y-51740000D02*
X47885000Y-55396000D01*
X47925000Y-45615000D02*
X47925000Y-49260000D01*
X47925000Y-51740000D02*
X47925000Y-55385000D01*
X47965000Y-45627000D02*
X47965000Y-49260000D01*
X47965000Y-51740000D02*
X47965000Y-55373000D01*
X48005000Y-45639000D02*
X48005000Y-49260000D01*
X48005000Y-51740000D02*
X48005000Y-55361000D01*
X48045000Y-45651000D02*
X48045000Y-49260000D01*
X48045000Y-51740000D02*
X48045000Y-55349000D01*
X48085000Y-45663000D02*
X48085000Y-49260000D01*
X48085000Y-51740000D02*
X48085000Y-55337000D01*
X48125000Y-45676000D02*
X48125000Y-49260000D01*
X48125000Y-51740000D02*
X48125000Y-55324000D01*
X48165000Y-45690000D02*
X48165000Y-49260000D01*
X48165000Y-51740000D02*
X48165000Y-55310000D01*
X48205000Y-45703000D02*
X48205000Y-49260000D01*
X48205000Y-51740000D02*
X48205000Y-55297000D01*
X48245000Y-45718000D02*
X48245000Y-49260000D01*
X48245000Y-51740000D02*
X48245000Y-55282000D01*
X48285000Y-45732000D02*
X48285000Y-49260000D01*
X48285000Y-51740000D02*
X48285000Y-55268000D01*
X48325000Y-45747000D02*
X48325000Y-49260000D01*
X48325000Y-51740000D02*
X48325000Y-55253000D01*
X48365000Y-45762000D02*
X48365000Y-49260000D01*
X48365000Y-51740000D02*
X48365000Y-55238000D01*
X48405000Y-45778000D02*
X48405000Y-49260000D01*
X48405000Y-51740000D02*
X48405000Y-55222000D01*
X48445000Y-45794000D02*
X48445000Y-49260000D01*
X48445000Y-51740000D02*
X48445000Y-55206000D01*
X48485000Y-45810000D02*
X48485000Y-49260000D01*
X48485000Y-51740000D02*
X48485000Y-55190000D01*
X48525000Y-45827000D02*
X48525000Y-49260000D01*
X48525000Y-51740000D02*
X48525000Y-55173000D01*
X48565000Y-45844000D02*
X48565000Y-49260000D01*
X48565000Y-51740000D02*
X48565000Y-55156000D01*
X48605000Y-45862000D02*
X48605000Y-49260000D01*
X48605000Y-51740000D02*
X48605000Y-55138000D01*
X48645000Y-45880000D02*
X48645000Y-49260000D01*
X48645000Y-51740000D02*
X48645000Y-55120000D01*
X48685000Y-45898000D02*
X48685000Y-49260000D01*
X48685000Y-51740000D02*
X48685000Y-55102000D01*
X48725000Y-45917000D02*
X48725000Y-49260000D01*
X48725000Y-51740000D02*
X48725000Y-55083000D01*
X48765000Y-45936000D02*
X48765000Y-49260000D01*
X48765000Y-51740000D02*
X48765000Y-55064000D01*
X48805000Y-45956000D02*
X48805000Y-49260000D01*
X48805000Y-51740000D02*
X48805000Y-55044000D01*
X48845000Y-45976000D02*
X48845000Y-49260000D01*
X48845000Y-51740000D02*
X48845000Y-55024000D01*
X48885000Y-45996000D02*
X48885000Y-49260000D01*
X48885000Y-51740000D02*
X48885000Y-55004000D01*
X48925000Y-46017000D02*
X48925000Y-49260000D01*
X48925000Y-51740000D02*
X48925000Y-54983000D01*
X48965000Y-46039000D02*
X48965000Y-49260000D01*
X48965000Y-51740000D02*
X48965000Y-54961000D01*
X49005000Y-46061000D02*
X49005000Y-49260000D01*
X49005000Y-51740000D02*
X49005000Y-54939000D01*
X49045000Y-46083000D02*
X49045000Y-49260000D01*
X49045000Y-51740000D02*
X49045000Y-54917000D01*
X49085000Y-46106000D02*
X49085000Y-49260000D01*
X49085000Y-51740000D02*
X49085000Y-54894000D01*
X49125000Y-46129000D02*
X49125000Y-49260000D01*
X49125000Y-51740000D02*
X49125000Y-54871000D01*
X49165000Y-46153000D02*
X49165000Y-49260000D01*
X49165000Y-51740000D02*
X49165000Y-54847000D01*
X49205000Y-46177000D02*
X49205000Y-49260000D01*
X49205000Y-51740000D02*
X49205000Y-54823000D01*
X49245000Y-46202000D02*
X49245000Y-49260000D01*
X49245000Y-51740000D02*
X49245000Y-54798000D01*
X49285000Y-46228000D02*
X49285000Y-49260000D01*
X49285000Y-51740000D02*
X49285000Y-54772000D01*
X49325000Y-46253000D02*
X49325000Y-49260000D01*
X49325000Y-51740000D02*
X49325000Y-54747000D01*
X49365000Y-46280000D02*
X49365000Y-49260000D01*
X49365000Y-51740000D02*
X49365000Y-54720000D01*
X49405000Y-46307000D02*
X49405000Y-49260000D01*
X49405000Y-51740000D02*
X49405000Y-54693000D01*
X49445000Y-46334000D02*
X49445000Y-49260000D01*
X49445000Y-51740000D02*
X49445000Y-54666000D01*
X49485000Y-46362000D02*
X49485000Y-49260000D01*
X49485000Y-51740000D02*
X49485000Y-54638000D01*
X49525000Y-46391000D02*
X49525000Y-49260000D01*
X49525000Y-51740000D02*
X49525000Y-54609000D01*
X49565000Y-46420000D02*
X49565000Y-49260000D01*
X49565000Y-51740000D02*
X49565000Y-54580000D01*
X49605000Y-46450000D02*
X49605000Y-49260000D01*
X49605000Y-51740000D02*
X49605000Y-54550000D01*
X49645000Y-46480000D02*
X49645000Y-49260000D01*
X49645000Y-51740000D02*
X49645000Y-54520000D01*
X49685000Y-46512000D02*
X49685000Y-49260000D01*
X49685000Y-51740000D02*
X49685000Y-54488000D01*
X49725000Y-46543000D02*
X49725000Y-49260000D01*
X49725000Y-51740000D02*
X49725000Y-54457000D01*
X49765000Y-46576000D02*
X49765000Y-49260000D01*
X49765000Y-51740000D02*
X49765000Y-54424000D01*
X49805000Y-46609000D02*
X49805000Y-49260000D01*
X49805000Y-51740000D02*
X49805000Y-54391000D01*
X49845000Y-46642000D02*
X49845000Y-49260000D01*
X49845000Y-51740000D02*
X49845000Y-54358000D01*
X49885000Y-46677000D02*
X49885000Y-49260000D01*
X49885000Y-51740000D02*
X49885000Y-54323000D01*
X49925000Y-46712000D02*
X49925000Y-49260000D01*
X49925000Y-51740000D02*
X49925000Y-54288000D01*
X49965000Y-46748000D02*
X49965000Y-49260000D01*
X49965000Y-51740000D02*
X49965000Y-54252000D01*
X50005000Y-46784000D02*
X50005000Y-49260000D01*
X50005000Y-51740000D02*
X50005000Y-54216000D01*
X50045000Y-46822000D02*
X50045000Y-49260000D01*
X50045000Y-51740000D02*
X50045000Y-54178000D01*
X50085000Y-46860000D02*
X50085000Y-49260000D01*
X50085000Y-51740000D02*
X50085000Y-54140000D01*
X50125000Y-46899000D02*
X50125000Y-49260000D01*
X50125000Y-51740000D02*
X50125000Y-54101000D01*
X50165000Y-46939000D02*
X50165000Y-49260000D01*
X50165000Y-51740000D02*
X50165000Y-54061000D01*
X50205000Y-46980000D02*
X50205000Y-49260000D01*
X50205000Y-51740000D02*
X50205000Y-54020000D01*
X50245000Y-47022000D02*
X50245000Y-49260000D01*
X50245000Y-51740000D02*
X50245000Y-53978000D01*
X50285000Y-47065000D02*
X50285000Y-53935000D01*
X50325000Y-47109000D02*
X50325000Y-53891000D01*
X50365000Y-47153000D02*
X50365000Y-53847000D01*
X50405000Y-47199000D02*
X50405000Y-53801000D01*
X50445000Y-47246000D02*
X50445000Y-53754000D01*
X50485000Y-47295000D02*
X50485000Y-53705000D01*
X50525000Y-47344000D02*
X50525000Y-53656000D01*
X50565000Y-47395000D02*
X50565000Y-53605000D01*
X50605000Y-47447000D02*
X50605000Y-53553000D01*
X50645000Y-47500000D02*
X50645000Y-53500000D01*
X50685000Y-47555000D02*
X50685000Y-53445000D01*
X50725000Y-47612000D02*
X50725000Y-53388000D01*
X50765000Y-47670000D02*
X50765000Y-53330000D01*
X50805000Y-47730000D02*
X50805000Y-53270000D01*
X50845000Y-47792000D02*
X50845000Y-53208000D01*
X50885000Y-47856000D02*
X50885000Y-53144000D01*
X50925000Y-47922000D02*
X50925000Y-53078000D01*
X50965000Y-47990000D02*
X50965000Y-53010000D01*
X51005000Y-48061000D02*
X51005000Y-52939000D01*
X51045000Y-48135000D02*
X51045000Y-52865000D01*
X51085000Y-48212000D02*
X51085000Y-52788000D01*
X51125000Y-48292000D02*
X51125000Y-52708000D01*
X51165000Y-48376000D02*
X51165000Y-52624000D01*
X51205000Y-48463000D02*
X51205000Y-52537000D01*
X51245000Y-48556000D02*
X51245000Y-52444000D01*
X51285000Y-48654000D02*
X51285000Y-52346000D01*
X51325000Y-48758000D02*
X51325000Y-52242000D01*
X51365000Y-48870000D02*
X51365000Y-52130000D01*
X51405000Y-48991000D02*
X51405000Y-52009000D01*
X51445000Y-49123000D02*
X51445000Y-51877000D01*
X51485000Y-49270000D02*
X51485000Y-51730000D01*
X51525000Y-49438000D02*
X51525000Y-51562000D01*
X51565000Y-49638000D02*
X51565000Y-51362000D01*
X51605000Y-49901000D02*
X51605000Y-51099000D01*
X51645000Y-50500000D02*
G75*
G02*
X41405000Y-50500000I-5120000J0D01*
G01*
X41405000Y-50500000D02*
G75*
G02*
X51645000Y-50500000I5120000J0D01*
G01*
%TO.C,C1101*%
X10045354Y-47625000D02*
X11045354Y-47625000D01*
X10545354Y-47125000D02*
X10545354Y-48125000D01*
X15525000Y-45420000D02*
X15525000Y-55580000D01*
X15565000Y-45420000D02*
X15565000Y-55580000D01*
X15605000Y-45421000D02*
X15605000Y-55579000D01*
X15645000Y-45421000D02*
X15645000Y-55579000D01*
X15685000Y-45423000D02*
X15685000Y-55577000D01*
X15725000Y-45424000D02*
X15725000Y-55576000D01*
X15765000Y-45426000D02*
X15765000Y-55574000D01*
X15805000Y-45428000D02*
X15805000Y-55572000D01*
X15845000Y-45430000D02*
X15845000Y-55570000D01*
X15885000Y-45433000D02*
X15885000Y-55567000D01*
X15925000Y-45436000D02*
X15925000Y-55564000D01*
X15965000Y-45439000D02*
X15965000Y-55561000D01*
X16005000Y-45443000D02*
X16005000Y-55557000D01*
X16045000Y-45446000D02*
X16045000Y-55554000D01*
X16085000Y-45451000D02*
X16085000Y-55549000D01*
X16125000Y-45455000D02*
X16125000Y-55545000D01*
X16165000Y-45460000D02*
X16165000Y-55540000D01*
X16205000Y-45465000D02*
X16205000Y-55535000D01*
X16245000Y-45471000D02*
X16245000Y-55529000D01*
X16285000Y-45477000D02*
X16285000Y-55523000D01*
X16325000Y-45483000D02*
X16325000Y-55517000D01*
X16365000Y-45489000D02*
X16365000Y-55511000D01*
X16405000Y-45496000D02*
X16405000Y-55504000D01*
X16445000Y-45503000D02*
X16445000Y-55497000D01*
X16485000Y-45511000D02*
X16485000Y-55489000D01*
X16525000Y-45519000D02*
X16525000Y-55481000D01*
X16565000Y-45527000D02*
X16565000Y-55473000D01*
X16605000Y-45535000D02*
X16605000Y-55465000D01*
X16645000Y-45544000D02*
X16645000Y-55456000D01*
X16685000Y-45553000D02*
X16685000Y-55447000D01*
X16725000Y-45563000D02*
X16725000Y-55437000D01*
X16765000Y-45572000D02*
X16765000Y-55428000D01*
X16805000Y-45583000D02*
X16805000Y-49260000D01*
X16805000Y-51740000D02*
X16805000Y-55417000D01*
X16845000Y-45593000D02*
X16845000Y-49260000D01*
X16845000Y-51740000D02*
X16845000Y-55407000D01*
X16885000Y-45604000D02*
X16885000Y-49260000D01*
X16885000Y-51740000D02*
X16885000Y-55396000D01*
X16925000Y-45615000D02*
X16925000Y-49260000D01*
X16925000Y-51740000D02*
X16925000Y-55385000D01*
X16965000Y-45627000D02*
X16965000Y-49260000D01*
X16965000Y-51740000D02*
X16965000Y-55373000D01*
X17005000Y-45639000D02*
X17005000Y-49260000D01*
X17005000Y-51740000D02*
X17005000Y-55361000D01*
X17045000Y-45651000D02*
X17045000Y-49260000D01*
X17045000Y-51740000D02*
X17045000Y-55349000D01*
X17085000Y-45663000D02*
X17085000Y-49260000D01*
X17085000Y-51740000D02*
X17085000Y-55337000D01*
X17125000Y-45676000D02*
X17125000Y-49260000D01*
X17125000Y-51740000D02*
X17125000Y-55324000D01*
X17165000Y-45690000D02*
X17165000Y-49260000D01*
X17165000Y-51740000D02*
X17165000Y-55310000D01*
X17205000Y-45703000D02*
X17205000Y-49260000D01*
X17205000Y-51740000D02*
X17205000Y-55297000D01*
X17245000Y-45718000D02*
X17245000Y-49260000D01*
X17245000Y-51740000D02*
X17245000Y-55282000D01*
X17285000Y-45732000D02*
X17285000Y-49260000D01*
X17285000Y-51740000D02*
X17285000Y-55268000D01*
X17325000Y-45747000D02*
X17325000Y-49260000D01*
X17325000Y-51740000D02*
X17325000Y-55253000D01*
X17365000Y-45762000D02*
X17365000Y-49260000D01*
X17365000Y-51740000D02*
X17365000Y-55238000D01*
X17405000Y-45778000D02*
X17405000Y-49260000D01*
X17405000Y-51740000D02*
X17405000Y-55222000D01*
X17445000Y-45794000D02*
X17445000Y-49260000D01*
X17445000Y-51740000D02*
X17445000Y-55206000D01*
X17485000Y-45810000D02*
X17485000Y-49260000D01*
X17485000Y-51740000D02*
X17485000Y-55190000D01*
X17525000Y-45827000D02*
X17525000Y-49260000D01*
X17525000Y-51740000D02*
X17525000Y-55173000D01*
X17565000Y-45844000D02*
X17565000Y-49260000D01*
X17565000Y-51740000D02*
X17565000Y-55156000D01*
X17605000Y-45862000D02*
X17605000Y-49260000D01*
X17605000Y-51740000D02*
X17605000Y-55138000D01*
X17645000Y-45880000D02*
X17645000Y-49260000D01*
X17645000Y-51740000D02*
X17645000Y-55120000D01*
X17685000Y-45898000D02*
X17685000Y-49260000D01*
X17685000Y-51740000D02*
X17685000Y-55102000D01*
X17725000Y-45917000D02*
X17725000Y-49260000D01*
X17725000Y-51740000D02*
X17725000Y-55083000D01*
X17765000Y-45936000D02*
X17765000Y-49260000D01*
X17765000Y-51740000D02*
X17765000Y-55064000D01*
X17805000Y-45956000D02*
X17805000Y-49260000D01*
X17805000Y-51740000D02*
X17805000Y-55044000D01*
X17845000Y-45976000D02*
X17845000Y-49260000D01*
X17845000Y-51740000D02*
X17845000Y-55024000D01*
X17885000Y-45996000D02*
X17885000Y-49260000D01*
X17885000Y-51740000D02*
X17885000Y-55004000D01*
X17925000Y-46017000D02*
X17925000Y-49260000D01*
X17925000Y-51740000D02*
X17925000Y-54983000D01*
X17965000Y-46039000D02*
X17965000Y-49260000D01*
X17965000Y-51740000D02*
X17965000Y-54961000D01*
X18005000Y-46061000D02*
X18005000Y-49260000D01*
X18005000Y-51740000D02*
X18005000Y-54939000D01*
X18045000Y-46083000D02*
X18045000Y-49260000D01*
X18045000Y-51740000D02*
X18045000Y-54917000D01*
X18085000Y-46106000D02*
X18085000Y-49260000D01*
X18085000Y-51740000D02*
X18085000Y-54894000D01*
X18125000Y-46129000D02*
X18125000Y-49260000D01*
X18125000Y-51740000D02*
X18125000Y-54871000D01*
X18165000Y-46153000D02*
X18165000Y-49260000D01*
X18165000Y-51740000D02*
X18165000Y-54847000D01*
X18205000Y-46177000D02*
X18205000Y-49260000D01*
X18205000Y-51740000D02*
X18205000Y-54823000D01*
X18245000Y-46202000D02*
X18245000Y-49260000D01*
X18245000Y-51740000D02*
X18245000Y-54798000D01*
X18285000Y-46228000D02*
X18285000Y-49260000D01*
X18285000Y-51740000D02*
X18285000Y-54772000D01*
X18325000Y-46253000D02*
X18325000Y-49260000D01*
X18325000Y-51740000D02*
X18325000Y-54747000D01*
X18365000Y-46280000D02*
X18365000Y-49260000D01*
X18365000Y-51740000D02*
X18365000Y-54720000D01*
X18405000Y-46307000D02*
X18405000Y-49260000D01*
X18405000Y-51740000D02*
X18405000Y-54693000D01*
X18445000Y-46334000D02*
X18445000Y-49260000D01*
X18445000Y-51740000D02*
X18445000Y-54666000D01*
X18485000Y-46362000D02*
X18485000Y-49260000D01*
X18485000Y-51740000D02*
X18485000Y-54638000D01*
X18525000Y-46391000D02*
X18525000Y-49260000D01*
X18525000Y-51740000D02*
X18525000Y-54609000D01*
X18565000Y-46420000D02*
X18565000Y-49260000D01*
X18565000Y-51740000D02*
X18565000Y-54580000D01*
X18605000Y-46450000D02*
X18605000Y-49260000D01*
X18605000Y-51740000D02*
X18605000Y-54550000D01*
X18645000Y-46480000D02*
X18645000Y-49260000D01*
X18645000Y-51740000D02*
X18645000Y-54520000D01*
X18685000Y-46512000D02*
X18685000Y-49260000D01*
X18685000Y-51740000D02*
X18685000Y-54488000D01*
X18725000Y-46543000D02*
X18725000Y-49260000D01*
X18725000Y-51740000D02*
X18725000Y-54457000D01*
X18765000Y-46576000D02*
X18765000Y-49260000D01*
X18765000Y-51740000D02*
X18765000Y-54424000D01*
X18805000Y-46609000D02*
X18805000Y-49260000D01*
X18805000Y-51740000D02*
X18805000Y-54391000D01*
X18845000Y-46642000D02*
X18845000Y-49260000D01*
X18845000Y-51740000D02*
X18845000Y-54358000D01*
X18885000Y-46677000D02*
X18885000Y-49260000D01*
X18885000Y-51740000D02*
X18885000Y-54323000D01*
X18925000Y-46712000D02*
X18925000Y-49260000D01*
X18925000Y-51740000D02*
X18925000Y-54288000D01*
X18965000Y-46748000D02*
X18965000Y-49260000D01*
X18965000Y-51740000D02*
X18965000Y-54252000D01*
X19005000Y-46784000D02*
X19005000Y-49260000D01*
X19005000Y-51740000D02*
X19005000Y-54216000D01*
X19045000Y-46822000D02*
X19045000Y-49260000D01*
X19045000Y-51740000D02*
X19045000Y-54178000D01*
X19085000Y-46860000D02*
X19085000Y-49260000D01*
X19085000Y-51740000D02*
X19085000Y-54140000D01*
X19125000Y-46899000D02*
X19125000Y-49260000D01*
X19125000Y-51740000D02*
X19125000Y-54101000D01*
X19165000Y-46939000D02*
X19165000Y-49260000D01*
X19165000Y-51740000D02*
X19165000Y-54061000D01*
X19205000Y-46980000D02*
X19205000Y-49260000D01*
X19205000Y-51740000D02*
X19205000Y-54020000D01*
X19245000Y-47022000D02*
X19245000Y-49260000D01*
X19245000Y-51740000D02*
X19245000Y-53978000D01*
X19285000Y-47065000D02*
X19285000Y-53935000D01*
X19325000Y-47109000D02*
X19325000Y-53891000D01*
X19365000Y-47153000D02*
X19365000Y-53847000D01*
X19405000Y-47199000D02*
X19405000Y-53801000D01*
X19445000Y-47246000D02*
X19445000Y-53754000D01*
X19485000Y-47295000D02*
X19485000Y-53705000D01*
X19525000Y-47344000D02*
X19525000Y-53656000D01*
X19565000Y-47395000D02*
X19565000Y-53605000D01*
X19605000Y-47447000D02*
X19605000Y-53553000D01*
X19645000Y-47500000D02*
X19645000Y-53500000D01*
X19685000Y-47555000D02*
X19685000Y-53445000D01*
X19725000Y-47612000D02*
X19725000Y-53388000D01*
X19765000Y-47670000D02*
X19765000Y-53330000D01*
X19805000Y-47730000D02*
X19805000Y-53270000D01*
X19845000Y-47792000D02*
X19845000Y-53208000D01*
X19885000Y-47856000D02*
X19885000Y-53144000D01*
X19925000Y-47922000D02*
X19925000Y-53078000D01*
X19965000Y-47990000D02*
X19965000Y-53010000D01*
X20005000Y-48061000D02*
X20005000Y-52939000D01*
X20045000Y-48135000D02*
X20045000Y-52865000D01*
X20085000Y-48212000D02*
X20085000Y-52788000D01*
X20125000Y-48292000D02*
X20125000Y-52708000D01*
X20165000Y-48376000D02*
X20165000Y-52624000D01*
X20205000Y-48463000D02*
X20205000Y-52537000D01*
X20245000Y-48556000D02*
X20245000Y-52444000D01*
X20285000Y-48654000D02*
X20285000Y-52346000D01*
X20325000Y-48758000D02*
X20325000Y-52242000D01*
X20365000Y-48870000D02*
X20365000Y-52130000D01*
X20405000Y-48991000D02*
X20405000Y-52009000D01*
X20445000Y-49123000D02*
X20445000Y-51877000D01*
X20485000Y-49270000D02*
X20485000Y-51730000D01*
X20525000Y-49438000D02*
X20525000Y-51562000D01*
X20565000Y-49638000D02*
X20565000Y-51362000D01*
X20605000Y-49901000D02*
X20605000Y-51099000D01*
X20645000Y-50500000D02*
G75*
G02*
X10405000Y-50500000I-5120000J0D01*
G01*
X10405000Y-50500000D02*
G75*
G02*
X20645000Y-50500000I5120000J0D01*
G01*
%TO.C,H1*%
D15*
X38525000Y-7000000D02*
G75*
G02*
X30525000Y-7000000I-4000000J0D01*
G01*
X30525000Y-7000000D02*
G75*
G02*
X38525000Y-7000000I4000000J0D01*
G01*
%TO.C,C1301*%
D10*
X72045354Y-47625000D02*
X73045354Y-47625000D01*
X72545354Y-47125000D02*
X72545354Y-48125000D01*
X77525000Y-45420000D02*
X77525000Y-55580000D01*
X77565000Y-45420000D02*
X77565000Y-55580000D01*
X77605000Y-45421000D02*
X77605000Y-55579000D01*
X77645000Y-45421000D02*
X77645000Y-55579000D01*
X77685000Y-45423000D02*
X77685000Y-55577000D01*
X77725000Y-45424000D02*
X77725000Y-55576000D01*
X77765000Y-45426000D02*
X77765000Y-55574000D01*
X77805000Y-45428000D02*
X77805000Y-55572000D01*
X77845000Y-45430000D02*
X77845000Y-55570000D01*
X77885000Y-45433000D02*
X77885000Y-55567000D01*
X77925000Y-45436000D02*
X77925000Y-55564000D01*
X77965000Y-45439000D02*
X77965000Y-55561000D01*
X78005000Y-45443000D02*
X78005000Y-55557000D01*
X78045000Y-45446000D02*
X78045000Y-55554000D01*
X78085000Y-45451000D02*
X78085000Y-55549000D01*
X78125000Y-45455000D02*
X78125000Y-55545000D01*
X78165000Y-45460000D02*
X78165000Y-55540000D01*
X78205000Y-45465000D02*
X78205000Y-55535000D01*
X78245000Y-45471000D02*
X78245000Y-55529000D01*
X78285000Y-45477000D02*
X78285000Y-55523000D01*
X78325000Y-45483000D02*
X78325000Y-55517000D01*
X78365000Y-45489000D02*
X78365000Y-55511000D01*
X78405000Y-45496000D02*
X78405000Y-55504000D01*
X78445000Y-45503000D02*
X78445000Y-55497000D01*
X78485000Y-45511000D02*
X78485000Y-55489000D01*
X78525000Y-45519000D02*
X78525000Y-55481000D01*
X78565000Y-45527000D02*
X78565000Y-55473000D01*
X78605000Y-45535000D02*
X78605000Y-55465000D01*
X78645000Y-45544000D02*
X78645000Y-55456000D01*
X78685000Y-45553000D02*
X78685000Y-55447000D01*
X78725000Y-45563000D02*
X78725000Y-55437000D01*
X78765000Y-45572000D02*
X78765000Y-55428000D01*
X78805000Y-45583000D02*
X78805000Y-49260000D01*
X78805000Y-51740000D02*
X78805000Y-55417000D01*
X78845000Y-45593000D02*
X78845000Y-49260000D01*
X78845000Y-51740000D02*
X78845000Y-55407000D01*
X78885000Y-45604000D02*
X78885000Y-49260000D01*
X78885000Y-51740000D02*
X78885000Y-55396000D01*
X78925000Y-45615000D02*
X78925000Y-49260000D01*
X78925000Y-51740000D02*
X78925000Y-55385000D01*
X78965000Y-45627000D02*
X78965000Y-49260000D01*
X78965000Y-51740000D02*
X78965000Y-55373000D01*
X79005000Y-45639000D02*
X79005000Y-49260000D01*
X79005000Y-51740000D02*
X79005000Y-55361000D01*
X79045000Y-45651000D02*
X79045000Y-49260000D01*
X79045000Y-51740000D02*
X79045000Y-55349000D01*
X79085000Y-45663000D02*
X79085000Y-49260000D01*
X79085000Y-51740000D02*
X79085000Y-55337000D01*
X79125000Y-45676000D02*
X79125000Y-49260000D01*
X79125000Y-51740000D02*
X79125000Y-55324000D01*
X79165000Y-45690000D02*
X79165000Y-49260000D01*
X79165000Y-51740000D02*
X79165000Y-55310000D01*
X79205000Y-45703000D02*
X79205000Y-49260000D01*
X79205000Y-51740000D02*
X79205000Y-55297000D01*
X79245000Y-45718000D02*
X79245000Y-49260000D01*
X79245000Y-51740000D02*
X79245000Y-55282000D01*
X79285000Y-45732000D02*
X79285000Y-49260000D01*
X79285000Y-51740000D02*
X79285000Y-55268000D01*
X79325000Y-45747000D02*
X79325000Y-49260000D01*
X79325000Y-51740000D02*
X79325000Y-55253000D01*
X79365000Y-45762000D02*
X79365000Y-49260000D01*
X79365000Y-51740000D02*
X79365000Y-55238000D01*
X79405000Y-45778000D02*
X79405000Y-49260000D01*
X79405000Y-51740000D02*
X79405000Y-55222000D01*
X79445000Y-45794000D02*
X79445000Y-49260000D01*
X79445000Y-51740000D02*
X79445000Y-55206000D01*
X79485000Y-45810000D02*
X79485000Y-49260000D01*
X79485000Y-51740000D02*
X79485000Y-55190000D01*
X79525000Y-45827000D02*
X79525000Y-49260000D01*
X79525000Y-51740000D02*
X79525000Y-55173000D01*
X79565000Y-45844000D02*
X79565000Y-49260000D01*
X79565000Y-51740000D02*
X79565000Y-55156000D01*
X79605000Y-45862000D02*
X79605000Y-49260000D01*
X79605000Y-51740000D02*
X79605000Y-55138000D01*
X79645000Y-45880000D02*
X79645000Y-49260000D01*
X79645000Y-51740000D02*
X79645000Y-55120000D01*
X79685000Y-45898000D02*
X79685000Y-49260000D01*
X79685000Y-51740000D02*
X79685000Y-55102000D01*
X79725000Y-45917000D02*
X79725000Y-49260000D01*
X79725000Y-51740000D02*
X79725000Y-55083000D01*
X79765000Y-45936000D02*
X79765000Y-49260000D01*
X79765000Y-51740000D02*
X79765000Y-55064000D01*
X79805000Y-45956000D02*
X79805000Y-49260000D01*
X79805000Y-51740000D02*
X79805000Y-55044000D01*
X79845000Y-45976000D02*
X79845000Y-49260000D01*
X79845000Y-51740000D02*
X79845000Y-55024000D01*
X79885000Y-45996000D02*
X79885000Y-49260000D01*
X79885000Y-51740000D02*
X79885000Y-55004000D01*
X79925000Y-46017000D02*
X79925000Y-49260000D01*
X79925000Y-51740000D02*
X79925000Y-54983000D01*
X79965000Y-46039000D02*
X79965000Y-49260000D01*
X79965000Y-51740000D02*
X79965000Y-54961000D01*
X80005000Y-46061000D02*
X80005000Y-49260000D01*
X80005000Y-51740000D02*
X80005000Y-54939000D01*
X80045000Y-46083000D02*
X80045000Y-49260000D01*
X80045000Y-51740000D02*
X80045000Y-54917000D01*
X80085000Y-46106000D02*
X80085000Y-49260000D01*
X80085000Y-51740000D02*
X80085000Y-54894000D01*
X80125000Y-46129000D02*
X80125000Y-49260000D01*
X80125000Y-51740000D02*
X80125000Y-54871000D01*
X80165000Y-46153000D02*
X80165000Y-49260000D01*
X80165000Y-51740000D02*
X80165000Y-54847000D01*
X80205000Y-46177000D02*
X80205000Y-49260000D01*
X80205000Y-51740000D02*
X80205000Y-54823000D01*
X80245000Y-46202000D02*
X80245000Y-49260000D01*
X80245000Y-51740000D02*
X80245000Y-54798000D01*
X80285000Y-46228000D02*
X80285000Y-49260000D01*
X80285000Y-51740000D02*
X80285000Y-54772000D01*
X80325000Y-46253000D02*
X80325000Y-49260000D01*
X80325000Y-51740000D02*
X80325000Y-54747000D01*
X80365000Y-46280000D02*
X80365000Y-49260000D01*
X80365000Y-51740000D02*
X80365000Y-54720000D01*
X80405000Y-46307000D02*
X80405000Y-49260000D01*
X80405000Y-51740000D02*
X80405000Y-54693000D01*
X80445000Y-46334000D02*
X80445000Y-49260000D01*
X80445000Y-51740000D02*
X80445000Y-54666000D01*
X80485000Y-46362000D02*
X80485000Y-49260000D01*
X80485000Y-51740000D02*
X80485000Y-54638000D01*
X80525000Y-46391000D02*
X80525000Y-49260000D01*
X80525000Y-51740000D02*
X80525000Y-54609000D01*
X80565000Y-46420000D02*
X80565000Y-49260000D01*
X80565000Y-51740000D02*
X80565000Y-54580000D01*
X80605000Y-46450000D02*
X80605000Y-49260000D01*
X80605000Y-51740000D02*
X80605000Y-54550000D01*
X80645000Y-46480000D02*
X80645000Y-49260000D01*
X80645000Y-51740000D02*
X80645000Y-54520000D01*
X80685000Y-46512000D02*
X80685000Y-49260000D01*
X80685000Y-51740000D02*
X80685000Y-54488000D01*
X80725000Y-46543000D02*
X80725000Y-49260000D01*
X80725000Y-51740000D02*
X80725000Y-54457000D01*
X80765000Y-46576000D02*
X80765000Y-49260000D01*
X80765000Y-51740000D02*
X80765000Y-54424000D01*
X80805000Y-46609000D02*
X80805000Y-49260000D01*
X80805000Y-51740000D02*
X80805000Y-54391000D01*
X80845000Y-46642000D02*
X80845000Y-49260000D01*
X80845000Y-51740000D02*
X80845000Y-54358000D01*
X80885000Y-46677000D02*
X80885000Y-49260000D01*
X80885000Y-51740000D02*
X80885000Y-54323000D01*
X80925000Y-46712000D02*
X80925000Y-49260000D01*
X80925000Y-51740000D02*
X80925000Y-54288000D01*
X80965000Y-46748000D02*
X80965000Y-49260000D01*
X80965000Y-51740000D02*
X80965000Y-54252000D01*
X81005000Y-46784000D02*
X81005000Y-49260000D01*
X81005000Y-51740000D02*
X81005000Y-54216000D01*
X81045000Y-46822000D02*
X81045000Y-49260000D01*
X81045000Y-51740000D02*
X81045000Y-54178000D01*
X81085000Y-46860000D02*
X81085000Y-49260000D01*
X81085000Y-51740000D02*
X81085000Y-54140000D01*
X81125000Y-46899000D02*
X81125000Y-49260000D01*
X81125000Y-51740000D02*
X81125000Y-54101000D01*
X81165000Y-46939000D02*
X81165000Y-49260000D01*
X81165000Y-51740000D02*
X81165000Y-54061000D01*
X81205000Y-46980000D02*
X81205000Y-49260000D01*
X81205000Y-51740000D02*
X81205000Y-54020000D01*
X81245000Y-47022000D02*
X81245000Y-49260000D01*
X81245000Y-51740000D02*
X81245000Y-53978000D01*
X81285000Y-47065000D02*
X81285000Y-53935000D01*
X81325000Y-47109000D02*
X81325000Y-53891000D01*
X81365000Y-47153000D02*
X81365000Y-53847000D01*
X81405000Y-47199000D02*
X81405000Y-53801000D01*
X81445000Y-47246000D02*
X81445000Y-53754000D01*
X81485000Y-47295000D02*
X81485000Y-53705000D01*
X81525000Y-47344000D02*
X81525000Y-53656000D01*
X81565000Y-47395000D02*
X81565000Y-53605000D01*
X81605000Y-47447000D02*
X81605000Y-53553000D01*
X81645000Y-47500000D02*
X81645000Y-53500000D01*
X81685000Y-47555000D02*
X81685000Y-53445000D01*
X81725000Y-47612000D02*
X81725000Y-53388000D01*
X81765000Y-47670000D02*
X81765000Y-53330000D01*
X81805000Y-47730000D02*
X81805000Y-53270000D01*
X81845000Y-47792000D02*
X81845000Y-53208000D01*
X81885000Y-47856000D02*
X81885000Y-53144000D01*
X81925000Y-47922000D02*
X81925000Y-53078000D01*
X81965000Y-47990000D02*
X81965000Y-53010000D01*
X82005000Y-48061000D02*
X82005000Y-52939000D01*
X82045000Y-48135000D02*
X82045000Y-52865000D01*
X82085000Y-48212000D02*
X82085000Y-52788000D01*
X82125000Y-48292000D02*
X82125000Y-52708000D01*
X82165000Y-48376000D02*
X82165000Y-52624000D01*
X82205000Y-48463000D02*
X82205000Y-52537000D01*
X82245000Y-48556000D02*
X82245000Y-52444000D01*
X82285000Y-48654000D02*
X82285000Y-52346000D01*
X82325000Y-48758000D02*
X82325000Y-52242000D01*
X82365000Y-48870000D02*
X82365000Y-52130000D01*
X82405000Y-48991000D02*
X82405000Y-52009000D01*
X82445000Y-49123000D02*
X82445000Y-51877000D01*
X82485000Y-49270000D02*
X82485000Y-51730000D01*
X82525000Y-49438000D02*
X82525000Y-51562000D01*
X82565000Y-49638000D02*
X82565000Y-51362000D01*
X82605000Y-49901000D02*
X82605000Y-51099000D01*
X82645000Y-50500000D02*
G75*
G02*
X72405000Y-50500000I-5120000J0D01*
G01*
X72405000Y-50500000D02*
G75*
G02*
X82645000Y-50500000I5120000J0D01*
G01*
%TO.C,DC1*%
D15*
X31525000Y-65450000D02*
X31525000Y-57150000D01*
%TO.C,J4*%
X98545000Y-2000000D02*
X98545000Y-14000000D01*
X97595000Y-2000000D02*
X119535000Y-2000000D01*
X119535000Y-14000000D01*
X97595000Y-14000000D01*
X97595000Y-2000000D01*
%TO.C,H3*%
X30525000Y-85500000D02*
G75*
G02*
X22525000Y-85500000I-4000000J0D01*
G01*
X22525000Y-85500000D02*
G75*
G02*
X30525000Y-85500000I4000000J0D01*
G01*
%TO.C,C230*%
D10*
X55620000Y-81960000D02*
X65780000Y-81960000D01*
X55620000Y-82000000D02*
X65780000Y-82000000D01*
X55621000Y-81880000D02*
X65779000Y-81880000D01*
X55621000Y-81920000D02*
X65779000Y-81920000D01*
X55623000Y-81840000D02*
X65777000Y-81840000D01*
X55624000Y-81800000D02*
X65776000Y-81800000D01*
X55626000Y-81760000D02*
X65774000Y-81760000D01*
X55628000Y-81720000D02*
X65772000Y-81720000D01*
X55630000Y-81680000D02*
X65770000Y-81680000D01*
X55633000Y-81640000D02*
X65767000Y-81640000D01*
X55636000Y-81600000D02*
X65764000Y-81600000D01*
X55639000Y-81560000D02*
X65761000Y-81560000D01*
X55643000Y-81520000D02*
X65757000Y-81520000D01*
X55646000Y-81480000D02*
X65754000Y-81480000D01*
X55651000Y-81440000D02*
X65749000Y-81440000D01*
X55655000Y-81400000D02*
X65745000Y-81400000D01*
X55660000Y-81360000D02*
X65740000Y-81360000D01*
X55665000Y-81320000D02*
X65735000Y-81320000D01*
X55671000Y-81280000D02*
X65729000Y-81280000D01*
X55677000Y-81240000D02*
X65723000Y-81240000D01*
X55683000Y-81200000D02*
X65717000Y-81200000D01*
X55689000Y-81160000D02*
X65711000Y-81160000D01*
X55696000Y-81120000D02*
X65704000Y-81120000D01*
X55703000Y-81080000D02*
X65697000Y-81080000D01*
X55711000Y-81040000D02*
X65689000Y-81040000D01*
X55719000Y-81000000D02*
X65681000Y-81000000D01*
X55727000Y-80960000D02*
X65673000Y-80960000D01*
X55735000Y-80920000D02*
X65665000Y-80920000D01*
X55744000Y-80880000D02*
X65656000Y-80880000D01*
X55753000Y-80840000D02*
X65647000Y-80840000D01*
X55763000Y-80800000D02*
X65637000Y-80800000D01*
X55772000Y-80760000D02*
X65628000Y-80760000D01*
X55783000Y-80720000D02*
X59460000Y-80720000D01*
X55793000Y-80680000D02*
X59460000Y-80680000D01*
X55804000Y-80640000D02*
X59460000Y-80640000D01*
X55815000Y-80600000D02*
X59460000Y-80600000D01*
X55827000Y-80560000D02*
X59460000Y-80560000D01*
X55839000Y-80520000D02*
X59460000Y-80520000D01*
X55851000Y-80480000D02*
X59460000Y-80480000D01*
X55863000Y-80440000D02*
X59460000Y-80440000D01*
X55876000Y-80400000D02*
X59460000Y-80400000D01*
X55890000Y-80360000D02*
X59460000Y-80360000D01*
X55903000Y-80320000D02*
X59460000Y-80320000D01*
X55918000Y-80280000D02*
X59460000Y-80280000D01*
X55932000Y-80240000D02*
X59460000Y-80240000D01*
X55947000Y-80200000D02*
X59460000Y-80200000D01*
X55962000Y-80160000D02*
X59460000Y-80160000D01*
X55978000Y-80120000D02*
X59460000Y-80120000D01*
X55994000Y-80080000D02*
X59460000Y-80080000D01*
X56010000Y-80040000D02*
X59460000Y-80040000D01*
X56027000Y-80000000D02*
X59460000Y-80000000D01*
X56044000Y-79960000D02*
X59460000Y-79960000D01*
X56062000Y-79920000D02*
X59460000Y-79920000D01*
X56080000Y-79880000D02*
X59460000Y-79880000D01*
X56098000Y-79840000D02*
X59460000Y-79840000D01*
X56117000Y-79800000D02*
X59460000Y-79800000D01*
X56136000Y-79760000D02*
X59460000Y-79760000D01*
X56156000Y-79720000D02*
X59460000Y-79720000D01*
X56176000Y-79680000D02*
X59460000Y-79680000D01*
X56196000Y-79640000D02*
X59460000Y-79640000D01*
X56217000Y-79600000D02*
X59460000Y-79600000D01*
X56239000Y-79560000D02*
X59460000Y-79560000D01*
X56261000Y-79520000D02*
X59460000Y-79520000D01*
X56283000Y-79480000D02*
X59460000Y-79480000D01*
X56306000Y-79440000D02*
X59460000Y-79440000D01*
X56329000Y-79400000D02*
X59460000Y-79400000D01*
X56353000Y-79360000D02*
X59460000Y-79360000D01*
X56377000Y-79320000D02*
X59460000Y-79320000D01*
X56402000Y-79280000D02*
X59460000Y-79280000D01*
X56428000Y-79240000D02*
X59460000Y-79240000D01*
X56453000Y-79200000D02*
X59460000Y-79200000D01*
X56480000Y-79160000D02*
X59460000Y-79160000D01*
X56507000Y-79120000D02*
X59460000Y-79120000D01*
X56534000Y-79080000D02*
X59460000Y-79080000D01*
X56562000Y-79040000D02*
X59460000Y-79040000D01*
X56591000Y-79000000D02*
X59460000Y-79000000D01*
X56620000Y-78960000D02*
X59460000Y-78960000D01*
X56650000Y-78920000D02*
X59460000Y-78920000D01*
X56680000Y-78880000D02*
X59460000Y-78880000D01*
X56712000Y-78840000D02*
X59460000Y-78840000D01*
X56743000Y-78800000D02*
X59460000Y-78800000D01*
X56776000Y-78760000D02*
X59460000Y-78760000D01*
X56809000Y-78720000D02*
X59460000Y-78720000D01*
X56842000Y-78680000D02*
X59460000Y-78680000D01*
X56877000Y-78640000D02*
X59460000Y-78640000D01*
X56912000Y-78600000D02*
X59460000Y-78600000D01*
X56948000Y-78560000D02*
X59460000Y-78560000D01*
X56984000Y-78520000D02*
X59460000Y-78520000D01*
X57022000Y-78480000D02*
X59460000Y-78480000D01*
X57060000Y-78440000D02*
X59460000Y-78440000D01*
X57099000Y-78400000D02*
X59460000Y-78400000D01*
X57139000Y-78360000D02*
X59460000Y-78360000D01*
X57180000Y-78320000D02*
X59460000Y-78320000D01*
X57222000Y-78280000D02*
X59460000Y-78280000D01*
X57265000Y-78240000D02*
X64135000Y-78240000D01*
X57309000Y-78200000D02*
X64091000Y-78200000D01*
X57325000Y-86979646D02*
X58325000Y-86979646D01*
X57353000Y-78160000D02*
X64047000Y-78160000D01*
X57399000Y-78120000D02*
X64001000Y-78120000D01*
X57446000Y-78080000D02*
X63954000Y-78080000D01*
X57495000Y-78040000D02*
X63905000Y-78040000D01*
X57544000Y-78000000D02*
X63856000Y-78000000D01*
X57595000Y-77960000D02*
X63805000Y-77960000D01*
X57647000Y-77920000D02*
X63753000Y-77920000D01*
X57700000Y-77880000D02*
X63700000Y-77880000D01*
X57755000Y-77840000D02*
X63645000Y-77840000D01*
X57812000Y-77800000D02*
X63588000Y-77800000D01*
X57825000Y-87479646D02*
X57825000Y-86479646D01*
X57870000Y-77760000D02*
X63530000Y-77760000D01*
X57930000Y-77720000D02*
X63470000Y-77720000D01*
X57992000Y-77680000D02*
X63408000Y-77680000D01*
X58056000Y-77640000D02*
X63344000Y-77640000D01*
X58122000Y-77600000D02*
X63278000Y-77600000D01*
X58190000Y-77560000D02*
X63210000Y-77560000D01*
X58261000Y-77520000D02*
X63139000Y-77520000D01*
X58335000Y-77480000D02*
X63065000Y-77480000D01*
X58412000Y-77440000D02*
X62988000Y-77440000D01*
X58492000Y-77400000D02*
X62908000Y-77400000D01*
X58576000Y-77360000D02*
X62824000Y-77360000D01*
X58663000Y-77320000D02*
X62737000Y-77320000D01*
X58756000Y-77280000D02*
X62644000Y-77280000D01*
X58854000Y-77240000D02*
X62546000Y-77240000D01*
X58958000Y-77200000D02*
X62442000Y-77200000D01*
X59070000Y-77160000D02*
X62330000Y-77160000D01*
X59191000Y-77120000D02*
X62209000Y-77120000D01*
X59323000Y-77080000D02*
X62077000Y-77080000D01*
X59470000Y-77040000D02*
X61930000Y-77040000D01*
X59638000Y-77000000D02*
X61762000Y-77000000D01*
X59838000Y-76960000D02*
X61562000Y-76960000D01*
X60101000Y-76920000D02*
X61299000Y-76920000D01*
X61940000Y-78280000D02*
X64178000Y-78280000D01*
X61940000Y-78320000D02*
X64220000Y-78320000D01*
X61940000Y-78360000D02*
X64261000Y-78360000D01*
X61940000Y-78400000D02*
X64301000Y-78400000D01*
X61940000Y-78440000D02*
X64340000Y-78440000D01*
X61940000Y-78480000D02*
X64378000Y-78480000D01*
X61940000Y-78520000D02*
X64416000Y-78520000D01*
X61940000Y-78560000D02*
X64452000Y-78560000D01*
X61940000Y-78600000D02*
X64488000Y-78600000D01*
X61940000Y-78640000D02*
X64523000Y-78640000D01*
X61940000Y-78680000D02*
X64558000Y-78680000D01*
X61940000Y-78720000D02*
X64591000Y-78720000D01*
X61940000Y-78760000D02*
X64624000Y-78760000D01*
X61940000Y-78800000D02*
X64657000Y-78800000D01*
X61940000Y-78840000D02*
X64688000Y-78840000D01*
X61940000Y-78880000D02*
X64720000Y-78880000D01*
X61940000Y-78920000D02*
X64750000Y-78920000D01*
X61940000Y-78960000D02*
X64780000Y-78960000D01*
X61940000Y-79000000D02*
X64809000Y-79000000D01*
X61940000Y-79040000D02*
X64838000Y-79040000D01*
X61940000Y-79080000D02*
X64866000Y-79080000D01*
X61940000Y-79120000D02*
X64893000Y-79120000D01*
X61940000Y-79160000D02*
X64920000Y-79160000D01*
X61940000Y-79200000D02*
X64947000Y-79200000D01*
X61940000Y-79240000D02*
X64972000Y-79240000D01*
X61940000Y-79280000D02*
X64998000Y-79280000D01*
X61940000Y-79320000D02*
X65023000Y-79320000D01*
X61940000Y-79360000D02*
X65047000Y-79360000D01*
X61940000Y-79400000D02*
X65071000Y-79400000D01*
X61940000Y-79440000D02*
X65094000Y-79440000D01*
X61940000Y-79480000D02*
X65117000Y-79480000D01*
X61940000Y-79520000D02*
X65139000Y-79520000D01*
X61940000Y-79560000D02*
X65161000Y-79560000D01*
X61940000Y-79600000D02*
X65183000Y-79600000D01*
X61940000Y-79640000D02*
X65204000Y-79640000D01*
X61940000Y-79680000D02*
X65224000Y-79680000D01*
X61940000Y-79720000D02*
X65244000Y-79720000D01*
X61940000Y-79760000D02*
X65264000Y-79760000D01*
X61940000Y-79800000D02*
X65283000Y-79800000D01*
X61940000Y-79840000D02*
X65302000Y-79840000D01*
X61940000Y-79880000D02*
X65320000Y-79880000D01*
X61940000Y-79920000D02*
X65338000Y-79920000D01*
X61940000Y-79960000D02*
X65356000Y-79960000D01*
X61940000Y-80000000D02*
X65373000Y-80000000D01*
X61940000Y-80040000D02*
X65390000Y-80040000D01*
X61940000Y-80080000D02*
X65406000Y-80080000D01*
X61940000Y-80120000D02*
X65422000Y-80120000D01*
X61940000Y-80160000D02*
X65438000Y-80160000D01*
X61940000Y-80200000D02*
X65453000Y-80200000D01*
X61940000Y-80240000D02*
X65468000Y-80240000D01*
X61940000Y-80280000D02*
X65482000Y-80280000D01*
X61940000Y-80320000D02*
X65497000Y-80320000D01*
X61940000Y-80360000D02*
X65510000Y-80360000D01*
X61940000Y-80400000D02*
X65524000Y-80400000D01*
X61940000Y-80440000D02*
X65537000Y-80440000D01*
X61940000Y-80480000D02*
X65549000Y-80480000D01*
X61940000Y-80520000D02*
X65561000Y-80520000D01*
X61940000Y-80560000D02*
X65573000Y-80560000D01*
X61940000Y-80600000D02*
X65585000Y-80600000D01*
X61940000Y-80640000D02*
X65596000Y-80640000D01*
X61940000Y-80680000D02*
X65607000Y-80680000D01*
X61940000Y-80720000D02*
X65617000Y-80720000D01*
X65820000Y-82000000D02*
G75*
G02*
X55580000Y-82000000I-5120000J0D01*
G01*
X55580000Y-82000000D02*
G75*
G02*
X65820000Y-82000000I5120000J0D01*
G01*
%TO.C,C1401*%
X101597654Y-47625000D02*
X102597654Y-47625000D01*
X102097654Y-47125000D02*
X102097654Y-48125000D01*
X107077300Y-45420000D02*
X107077300Y-55580000D01*
X107117300Y-45420000D02*
X107117300Y-55580000D01*
X107157300Y-45421000D02*
X107157300Y-55579000D01*
X107197300Y-45421000D02*
X107197300Y-55579000D01*
X107237300Y-45423000D02*
X107237300Y-55577000D01*
X107277300Y-45424000D02*
X107277300Y-55576000D01*
X107317300Y-45426000D02*
X107317300Y-55574000D01*
X107357300Y-45428000D02*
X107357300Y-55572000D01*
X107397300Y-45430000D02*
X107397300Y-55570000D01*
X107437300Y-45433000D02*
X107437300Y-55567000D01*
X107477300Y-45436000D02*
X107477300Y-55564000D01*
X107517300Y-45439000D02*
X107517300Y-55561000D01*
X107557300Y-45443000D02*
X107557300Y-55557000D01*
X107597300Y-45446000D02*
X107597300Y-55554000D01*
X107637300Y-45451000D02*
X107637300Y-55549000D01*
X107677300Y-45455000D02*
X107677300Y-55545000D01*
X107717300Y-45460000D02*
X107717300Y-55540000D01*
X107757300Y-45465000D02*
X107757300Y-55535000D01*
X107797300Y-45471000D02*
X107797300Y-55529000D01*
X107837300Y-45477000D02*
X107837300Y-55523000D01*
X107877300Y-45483000D02*
X107877300Y-55517000D01*
X107917300Y-45489000D02*
X107917300Y-55511000D01*
X107957300Y-45496000D02*
X107957300Y-55504000D01*
X107997300Y-45503000D02*
X107997300Y-55497000D01*
X108037300Y-45511000D02*
X108037300Y-55489000D01*
X108077300Y-45519000D02*
X108077300Y-55481000D01*
X108117300Y-45527000D02*
X108117300Y-55473000D01*
X108157300Y-45535000D02*
X108157300Y-55465000D01*
X108197300Y-45544000D02*
X108197300Y-55456000D01*
X108237300Y-45553000D02*
X108237300Y-55447000D01*
X108277300Y-45563000D02*
X108277300Y-55437000D01*
X108317300Y-45572000D02*
X108317300Y-55428000D01*
X108357300Y-45583000D02*
X108357300Y-49260000D01*
X108357300Y-51740000D02*
X108357300Y-55417000D01*
X108397300Y-45593000D02*
X108397300Y-49260000D01*
X108397300Y-51740000D02*
X108397300Y-55407000D01*
X108437300Y-45604000D02*
X108437300Y-49260000D01*
X108437300Y-51740000D02*
X108437300Y-55396000D01*
X108477300Y-45615000D02*
X108477300Y-49260000D01*
X108477300Y-51740000D02*
X108477300Y-55385000D01*
X108517300Y-45627000D02*
X108517300Y-49260000D01*
X108517300Y-51740000D02*
X108517300Y-55373000D01*
X108557300Y-45639000D02*
X108557300Y-49260000D01*
X108557300Y-51740000D02*
X108557300Y-55361000D01*
X108597300Y-45651000D02*
X108597300Y-49260000D01*
X108597300Y-51740000D02*
X108597300Y-55349000D01*
X108637300Y-45663000D02*
X108637300Y-49260000D01*
X108637300Y-51740000D02*
X108637300Y-55337000D01*
X108677300Y-45676000D02*
X108677300Y-49260000D01*
X108677300Y-51740000D02*
X108677300Y-55324000D01*
X108717300Y-45690000D02*
X108717300Y-49260000D01*
X108717300Y-51740000D02*
X108717300Y-55310000D01*
X108757300Y-45703000D02*
X108757300Y-49260000D01*
X108757300Y-51740000D02*
X108757300Y-55297000D01*
X108797300Y-45718000D02*
X108797300Y-49260000D01*
X108797300Y-51740000D02*
X108797300Y-55282000D01*
X108837300Y-45732000D02*
X108837300Y-49260000D01*
X108837300Y-51740000D02*
X108837300Y-55268000D01*
X108877300Y-45747000D02*
X108877300Y-49260000D01*
X108877300Y-51740000D02*
X108877300Y-55253000D01*
X108917300Y-45762000D02*
X108917300Y-49260000D01*
X108917300Y-51740000D02*
X108917300Y-55238000D01*
X108957300Y-45778000D02*
X108957300Y-49260000D01*
X108957300Y-51740000D02*
X108957300Y-55222000D01*
X108997300Y-45794000D02*
X108997300Y-49260000D01*
X108997300Y-51740000D02*
X108997300Y-55206000D01*
X109037300Y-45810000D02*
X109037300Y-49260000D01*
X109037300Y-51740000D02*
X109037300Y-55190000D01*
X109077300Y-45827000D02*
X109077300Y-49260000D01*
X109077300Y-51740000D02*
X109077300Y-55173000D01*
X109117300Y-45844000D02*
X109117300Y-49260000D01*
X109117300Y-51740000D02*
X109117300Y-55156000D01*
X109157300Y-45862000D02*
X109157300Y-49260000D01*
X109157300Y-51740000D02*
X109157300Y-55138000D01*
X109197300Y-45880000D02*
X109197300Y-49260000D01*
X109197300Y-51740000D02*
X109197300Y-55120000D01*
X109237300Y-45898000D02*
X109237300Y-49260000D01*
X109237300Y-51740000D02*
X109237300Y-55102000D01*
X109277300Y-45917000D02*
X109277300Y-49260000D01*
X109277300Y-51740000D02*
X109277300Y-55083000D01*
X109317300Y-45936000D02*
X109317300Y-49260000D01*
X109317300Y-51740000D02*
X109317300Y-55064000D01*
X109357300Y-45956000D02*
X109357300Y-49260000D01*
X109357300Y-51740000D02*
X109357300Y-55044000D01*
X109397300Y-45976000D02*
X109397300Y-49260000D01*
X109397300Y-51740000D02*
X109397300Y-55024000D01*
X109437300Y-45996000D02*
X109437300Y-49260000D01*
X109437300Y-51740000D02*
X109437300Y-55004000D01*
X109477300Y-46017000D02*
X109477300Y-49260000D01*
X109477300Y-51740000D02*
X109477300Y-54983000D01*
X109517300Y-46039000D02*
X109517300Y-49260000D01*
X109517300Y-51740000D02*
X109517300Y-54961000D01*
X109557300Y-46061000D02*
X109557300Y-49260000D01*
X109557300Y-51740000D02*
X109557300Y-54939000D01*
X109597300Y-46083000D02*
X109597300Y-49260000D01*
X109597300Y-51740000D02*
X109597300Y-54917000D01*
X109637300Y-46106000D02*
X109637300Y-49260000D01*
X109637300Y-51740000D02*
X109637300Y-54894000D01*
X109677300Y-46129000D02*
X109677300Y-49260000D01*
X109677300Y-51740000D02*
X109677300Y-54871000D01*
X109717300Y-46153000D02*
X109717300Y-49260000D01*
X109717300Y-51740000D02*
X109717300Y-54847000D01*
X109757300Y-46177000D02*
X109757300Y-49260000D01*
X109757300Y-51740000D02*
X109757300Y-54823000D01*
X109797300Y-46202000D02*
X109797300Y-49260000D01*
X109797300Y-51740000D02*
X109797300Y-54798000D01*
X109837300Y-46228000D02*
X109837300Y-49260000D01*
X109837300Y-51740000D02*
X109837300Y-54772000D01*
X109877300Y-46253000D02*
X109877300Y-49260000D01*
X109877300Y-51740000D02*
X109877300Y-54747000D01*
X109917300Y-46280000D02*
X109917300Y-49260000D01*
X109917300Y-51740000D02*
X109917300Y-54720000D01*
X109957300Y-46307000D02*
X109957300Y-49260000D01*
X109957300Y-51740000D02*
X109957300Y-54693000D01*
X109997300Y-46334000D02*
X109997300Y-49260000D01*
X109997300Y-51740000D02*
X109997300Y-54666000D01*
X110037300Y-46362000D02*
X110037300Y-49260000D01*
X110037300Y-51740000D02*
X110037300Y-54638000D01*
X110077300Y-46391000D02*
X110077300Y-49260000D01*
X110077300Y-51740000D02*
X110077300Y-54609000D01*
X110117300Y-46420000D02*
X110117300Y-49260000D01*
X110117300Y-51740000D02*
X110117300Y-54580000D01*
X110157300Y-46450000D02*
X110157300Y-49260000D01*
X110157300Y-51740000D02*
X110157300Y-54550000D01*
X110197300Y-46480000D02*
X110197300Y-49260000D01*
X110197300Y-51740000D02*
X110197300Y-54520000D01*
X110237300Y-46512000D02*
X110237300Y-49260000D01*
X110237300Y-51740000D02*
X110237300Y-54488000D01*
X110277300Y-46543000D02*
X110277300Y-49260000D01*
X110277300Y-51740000D02*
X110277300Y-54457000D01*
X110317300Y-46576000D02*
X110317300Y-49260000D01*
X110317300Y-51740000D02*
X110317300Y-54424000D01*
X110357300Y-46609000D02*
X110357300Y-49260000D01*
X110357300Y-51740000D02*
X110357300Y-54391000D01*
X110397300Y-46642000D02*
X110397300Y-49260000D01*
X110397300Y-51740000D02*
X110397300Y-54358000D01*
X110437300Y-46677000D02*
X110437300Y-49260000D01*
X110437300Y-51740000D02*
X110437300Y-54323000D01*
X110477300Y-46712000D02*
X110477300Y-49260000D01*
X110477300Y-51740000D02*
X110477300Y-54288000D01*
X110517300Y-46748000D02*
X110517300Y-49260000D01*
X110517300Y-51740000D02*
X110517300Y-54252000D01*
X110557300Y-46784000D02*
X110557300Y-49260000D01*
X110557300Y-51740000D02*
X110557300Y-54216000D01*
X110597300Y-46822000D02*
X110597300Y-49260000D01*
X110597300Y-51740000D02*
X110597300Y-54178000D01*
X110637300Y-46860000D02*
X110637300Y-49260000D01*
X110637300Y-51740000D02*
X110637300Y-54140000D01*
X110677300Y-46899000D02*
X110677300Y-49260000D01*
X110677300Y-51740000D02*
X110677300Y-54101000D01*
X110717300Y-46939000D02*
X110717300Y-49260000D01*
X110717300Y-51740000D02*
X110717300Y-54061000D01*
X110757300Y-46980000D02*
X110757300Y-49260000D01*
X110757300Y-51740000D02*
X110757300Y-54020000D01*
X110797300Y-47022000D02*
X110797300Y-49260000D01*
X110797300Y-51740000D02*
X110797300Y-53978000D01*
X110837300Y-47065000D02*
X110837300Y-53935000D01*
X110877300Y-47109000D02*
X110877300Y-53891000D01*
X110917300Y-47153000D02*
X110917300Y-53847000D01*
X110957300Y-47199000D02*
X110957300Y-53801000D01*
X110997300Y-47246000D02*
X110997300Y-53754000D01*
X111037300Y-47295000D02*
X111037300Y-53705000D01*
X111077300Y-47344000D02*
X111077300Y-53656000D01*
X111117300Y-47395000D02*
X111117300Y-53605000D01*
X111157300Y-47447000D02*
X111157300Y-53553000D01*
X111197300Y-47500000D02*
X111197300Y-53500000D01*
X111237300Y-47555000D02*
X111237300Y-53445000D01*
X111277300Y-47612000D02*
X111277300Y-53388000D01*
X111317300Y-47670000D02*
X111317300Y-53330000D01*
X111357300Y-47730000D02*
X111357300Y-53270000D01*
X111397300Y-47792000D02*
X111397300Y-53208000D01*
X111437300Y-47856000D02*
X111437300Y-53144000D01*
X111477300Y-47922000D02*
X111477300Y-53078000D01*
X111517300Y-47990000D02*
X111517300Y-53010000D01*
X111557300Y-48061000D02*
X111557300Y-52939000D01*
X111597300Y-48135000D02*
X111597300Y-52865000D01*
X111637300Y-48212000D02*
X111637300Y-52788000D01*
X111677300Y-48292000D02*
X111677300Y-52708000D01*
X111717300Y-48376000D02*
X111717300Y-52624000D01*
X111757300Y-48463000D02*
X111757300Y-52537000D01*
X111797300Y-48556000D02*
X111797300Y-52444000D01*
X111837300Y-48654000D02*
X111837300Y-52346000D01*
X111877300Y-48758000D02*
X111877300Y-52242000D01*
X111917300Y-48870000D02*
X111917300Y-52130000D01*
X111957300Y-48991000D02*
X111957300Y-52009000D01*
X111997300Y-49123000D02*
X111997300Y-51877000D01*
X112037300Y-49270000D02*
X112037300Y-51730000D01*
X112077300Y-49438000D02*
X112077300Y-51562000D01*
X112117300Y-49638000D02*
X112117300Y-51362000D01*
X112157300Y-49901000D02*
X112157300Y-51099000D01*
X112197300Y-50500000D02*
G75*
G02*
X101957300Y-50500000I-5120000J0D01*
G01*
X101957300Y-50500000D02*
G75*
G02*
X112197300Y-50500000I5120000J0D01*
G01*
%TO.C,J2*%
D15*
X40385000Y-2000000D02*
X40385000Y-14000000D01*
X39435000Y-2000000D02*
X61375000Y-2000000D01*
X61375000Y-14000000D01*
X39435000Y-14000000D01*
X39435000Y-2000000D01*
%TO.C,C233*%
D10*
X71632602Y-68685000D02*
X72432602Y-68685000D01*
X72032602Y-68285000D02*
X72032602Y-69085000D01*
X76042300Y-66920000D02*
X76042300Y-75080000D01*
X76082300Y-66920000D02*
X76082300Y-75080000D01*
X76122300Y-66921000D02*
X76122300Y-75079000D01*
X76162300Y-66922000D02*
X76162300Y-75078000D01*
X76202300Y-66923000D02*
X76202300Y-75077000D01*
X76242300Y-66925000D02*
X76242300Y-75075000D01*
X76282300Y-66927000D02*
X76282300Y-75073000D01*
X76322300Y-66930000D02*
X76322300Y-75070000D01*
X76362300Y-66932000D02*
X76362300Y-75068000D01*
X76402300Y-66936000D02*
X76402300Y-75064000D01*
X76442300Y-66939000D02*
X76442300Y-75061000D01*
X76482300Y-66944000D02*
X76482300Y-75056000D01*
X76522300Y-66948000D02*
X76522300Y-75052000D01*
X76562300Y-66953000D02*
X76562300Y-75047000D01*
X76602300Y-66958000D02*
X76602300Y-75042000D01*
X76642300Y-66964000D02*
X76642300Y-75036000D01*
X76682300Y-66970000D02*
X76682300Y-75030000D01*
X76722300Y-66977000D02*
X76722300Y-75023000D01*
X76762300Y-66983000D02*
X76762300Y-69960000D01*
X76762300Y-72040000D02*
X76762300Y-75017000D01*
X76802300Y-66991000D02*
X76802300Y-69960000D01*
X76802300Y-72040000D02*
X76802300Y-75009000D01*
X76842300Y-66998000D02*
X76842300Y-69960000D01*
X76842300Y-72040000D02*
X76842300Y-75002000D01*
X76882300Y-67007000D02*
X76882300Y-69960000D01*
X76882300Y-72040000D02*
X76882300Y-74993000D01*
X76922300Y-67015000D02*
X76922300Y-69960000D01*
X76922300Y-72040000D02*
X76922300Y-74985000D01*
X76962300Y-67024000D02*
X76962300Y-69960000D01*
X76962300Y-72040000D02*
X76962300Y-74976000D01*
X77002300Y-67033000D02*
X77002300Y-69960000D01*
X77002300Y-72040000D02*
X77002300Y-74967000D01*
X77042300Y-67043000D02*
X77042300Y-69960000D01*
X77042300Y-72040000D02*
X77042300Y-74957000D01*
X77082300Y-67053000D02*
X77082300Y-69960000D01*
X77082300Y-72040000D02*
X77082300Y-74947000D01*
X77122300Y-67064000D02*
X77122300Y-69960000D01*
X77122300Y-72040000D02*
X77122300Y-74936000D01*
X77162300Y-67075000D02*
X77162300Y-69960000D01*
X77162300Y-72040000D02*
X77162300Y-74925000D01*
X77202300Y-67087000D02*
X77202300Y-69960000D01*
X77202300Y-72040000D02*
X77202300Y-74913000D01*
X77242300Y-67099000D02*
X77242300Y-69960000D01*
X77242300Y-72040000D02*
X77242300Y-74901000D01*
X77282300Y-67111000D02*
X77282300Y-69960000D01*
X77282300Y-72040000D02*
X77282300Y-74889000D01*
X77322300Y-67124000D02*
X77322300Y-69960000D01*
X77322300Y-72040000D02*
X77322300Y-74876000D01*
X77362300Y-67137000D02*
X77362300Y-69960000D01*
X77362300Y-72040000D02*
X77362300Y-74863000D01*
X77402300Y-67151000D02*
X77402300Y-69960000D01*
X77402300Y-72040000D02*
X77402300Y-74849000D01*
X77442300Y-67165000D02*
X77442300Y-69960000D01*
X77442300Y-72040000D02*
X77442300Y-74835000D01*
X77482300Y-67180000D02*
X77482300Y-69960000D01*
X77482300Y-72040000D02*
X77482300Y-74820000D01*
X77522300Y-67195000D02*
X77522300Y-69960000D01*
X77522300Y-72040000D02*
X77522300Y-74805000D01*
X77562300Y-67211000D02*
X77562300Y-69960000D01*
X77562300Y-72040000D02*
X77562300Y-74789000D01*
X77602300Y-67227000D02*
X77602300Y-69960000D01*
X77602300Y-72040000D02*
X77602300Y-74773000D01*
X77642300Y-67243000D02*
X77642300Y-69960000D01*
X77642300Y-72040000D02*
X77642300Y-74757000D01*
X77682300Y-67260000D02*
X77682300Y-69960000D01*
X77682300Y-72040000D02*
X77682300Y-74740000D01*
X77722300Y-67278000D02*
X77722300Y-69960000D01*
X77722300Y-72040000D02*
X77722300Y-74722000D01*
X77762300Y-67296000D02*
X77762300Y-69960000D01*
X77762300Y-72040000D02*
X77762300Y-74704000D01*
X77802300Y-67315000D02*
X77802300Y-69960000D01*
X77802300Y-72040000D02*
X77802300Y-74685000D01*
X77842300Y-67334000D02*
X77842300Y-69960000D01*
X77842300Y-72040000D02*
X77842300Y-74666000D01*
X77882300Y-67354000D02*
X77882300Y-69960000D01*
X77882300Y-72040000D02*
X77882300Y-74646000D01*
X77922300Y-67374000D02*
X77922300Y-69960000D01*
X77922300Y-72040000D02*
X77922300Y-74626000D01*
X77962300Y-67395000D02*
X77962300Y-69960000D01*
X77962300Y-72040000D02*
X77962300Y-74605000D01*
X78002300Y-67416000D02*
X78002300Y-69960000D01*
X78002300Y-72040000D02*
X78002300Y-74584000D01*
X78042300Y-67438000D02*
X78042300Y-69960000D01*
X78042300Y-72040000D02*
X78042300Y-74562000D01*
X78082300Y-67461000D02*
X78082300Y-69960000D01*
X78082300Y-72040000D02*
X78082300Y-74539000D01*
X78122300Y-67484000D02*
X78122300Y-69960000D01*
X78122300Y-72040000D02*
X78122300Y-74516000D01*
X78162300Y-67507000D02*
X78162300Y-69960000D01*
X78162300Y-72040000D02*
X78162300Y-74493000D01*
X78202300Y-67532000D02*
X78202300Y-69960000D01*
X78202300Y-72040000D02*
X78202300Y-74468000D01*
X78242300Y-67557000D02*
X78242300Y-69960000D01*
X78242300Y-72040000D02*
X78242300Y-74443000D01*
X78282300Y-67582000D02*
X78282300Y-69960000D01*
X78282300Y-72040000D02*
X78282300Y-74418000D01*
X78322300Y-67608000D02*
X78322300Y-69960000D01*
X78322300Y-72040000D02*
X78322300Y-74392000D01*
X78362300Y-67635000D02*
X78362300Y-69960000D01*
X78362300Y-72040000D02*
X78362300Y-74365000D01*
X78402300Y-67663000D02*
X78402300Y-69960000D01*
X78402300Y-72040000D02*
X78402300Y-74337000D01*
X78442300Y-67691000D02*
X78442300Y-69960000D01*
X78442300Y-72040000D02*
X78442300Y-74309000D01*
X78482300Y-67720000D02*
X78482300Y-69960000D01*
X78482300Y-72040000D02*
X78482300Y-74280000D01*
X78522300Y-67750000D02*
X78522300Y-69960000D01*
X78522300Y-72040000D02*
X78522300Y-74250000D01*
X78562300Y-67781000D02*
X78562300Y-69960000D01*
X78562300Y-72040000D02*
X78562300Y-74219000D01*
X78602300Y-67812000D02*
X78602300Y-69960000D01*
X78602300Y-72040000D02*
X78602300Y-74188000D01*
X78642300Y-67844000D02*
X78642300Y-69960000D01*
X78642300Y-72040000D02*
X78642300Y-74156000D01*
X78682300Y-67877000D02*
X78682300Y-69960000D01*
X78682300Y-72040000D02*
X78682300Y-74123000D01*
X78722300Y-67911000D02*
X78722300Y-69960000D01*
X78722300Y-72040000D02*
X78722300Y-74089000D01*
X78762300Y-67945000D02*
X78762300Y-69960000D01*
X78762300Y-72040000D02*
X78762300Y-74055000D01*
X78802300Y-67981000D02*
X78802300Y-69960000D01*
X78802300Y-72040000D02*
X78802300Y-74019000D01*
X78842300Y-68018000D02*
X78842300Y-73982000D01*
X78882300Y-68055000D02*
X78882300Y-73945000D01*
X78922300Y-68094000D02*
X78922300Y-73906000D01*
X78962300Y-68133000D02*
X78962300Y-73867000D01*
X79002300Y-68174000D02*
X79002300Y-73826000D01*
X79042300Y-68216000D02*
X79042300Y-73784000D01*
X79082300Y-68259000D02*
X79082300Y-73741000D01*
X79122300Y-68304000D02*
X79122300Y-73696000D01*
X79162300Y-68349000D02*
X79162300Y-73651000D01*
X79202300Y-68396000D02*
X79202300Y-73604000D01*
X79242300Y-68445000D02*
X79242300Y-73555000D01*
X79282300Y-68495000D02*
X79282300Y-73505000D01*
X79322300Y-68547000D02*
X79322300Y-73453000D01*
X79362300Y-68600000D02*
X79362300Y-73400000D01*
X79402300Y-68656000D02*
X79402300Y-73344000D01*
X79442300Y-68713000D02*
X79442300Y-73287000D01*
X79482300Y-68773000D02*
X79482300Y-73227000D01*
X79522300Y-68835000D02*
X79522300Y-73165000D01*
X79562300Y-68899000D02*
X79562300Y-73101000D01*
X79602300Y-68966000D02*
X79602300Y-73034000D01*
X79642300Y-69036000D02*
X79642300Y-72964000D01*
X79682300Y-69110000D02*
X79682300Y-72890000D01*
X79722300Y-69187000D02*
X79722300Y-72813000D01*
X79762300Y-69269000D02*
X79762300Y-72731000D01*
X79802300Y-69356000D02*
X79802300Y-72644000D01*
X79842300Y-69448000D02*
X79842300Y-72552000D01*
X79882300Y-69547000D02*
X79882300Y-72453000D01*
X79922300Y-69654000D02*
X79922300Y-72346000D01*
X79962300Y-69772000D02*
X79962300Y-72228000D01*
X80002300Y-69903000D02*
X80002300Y-72097000D01*
X80042300Y-70053000D02*
X80042300Y-71947000D01*
X80082300Y-70232000D02*
X80082300Y-71768000D01*
X80122300Y-70467000D02*
X80122300Y-71533000D01*
X80162300Y-71000000D02*
G75*
G02*
X71922300Y-71000000I-4120000J0D01*
G01*
X71922300Y-71000000D02*
G75*
G02*
X80162300Y-71000000I4120000J0D01*
G01*
%TO.C,C280*%
X88615000Y-65960000D02*
X101275000Y-65960000D01*
X88615000Y-66000000D02*
X101275000Y-66000000D01*
X88616000Y-65880000D02*
X101274000Y-65880000D01*
X88616000Y-65920000D02*
X101274000Y-65920000D01*
X88617000Y-65840000D02*
X101273000Y-65840000D01*
X88618000Y-65800000D02*
X101272000Y-65800000D01*
X88620000Y-65760000D02*
X101270000Y-65760000D01*
X88621000Y-65720000D02*
X101269000Y-65720000D01*
X88623000Y-65680000D02*
X101267000Y-65680000D01*
X88625000Y-65640000D02*
X101265000Y-65640000D01*
X88628000Y-65600000D02*
X101262000Y-65600000D01*
X88630000Y-65560000D02*
X101260000Y-65560000D01*
X88633000Y-65520000D02*
X101257000Y-65520000D01*
X88636000Y-65480000D02*
X101254000Y-65480000D01*
X88640000Y-65440000D02*
X101250000Y-65440000D01*
X88643000Y-65400000D02*
X101247000Y-65400000D01*
X88647000Y-65360000D02*
X101243000Y-65360000D01*
X88651000Y-65320000D02*
X101239000Y-65320000D01*
X88656000Y-65280000D02*
X101234000Y-65280000D01*
X88661000Y-65240000D02*
X101229000Y-65240000D01*
X88665000Y-65200000D02*
X101225000Y-65200000D01*
X88671000Y-65160000D02*
X101219000Y-65160000D01*
X88676000Y-65120000D02*
X101214000Y-65120000D01*
X88682000Y-65080000D02*
X101208000Y-65080000D01*
X88688000Y-65040000D02*
X101202000Y-65040000D01*
X88694000Y-65000000D02*
X101196000Y-65000000D01*
X88700000Y-64960000D02*
X101190000Y-64960000D01*
X88707000Y-64920000D02*
X93505000Y-64920000D01*
X88714000Y-64880000D02*
X93505000Y-64880000D01*
X88722000Y-64840000D02*
X93505000Y-64840000D01*
X88729000Y-64800000D02*
X93505000Y-64800000D01*
X88737000Y-64760000D02*
X93505000Y-64760000D01*
X88745000Y-64720000D02*
X93505000Y-64720000D01*
X88753000Y-64680000D02*
X93505000Y-64680000D01*
X88762000Y-64640000D02*
X93505000Y-64640000D01*
X88771000Y-64600000D02*
X93505000Y-64600000D01*
X88780000Y-64560000D02*
X93505000Y-64560000D01*
X88789000Y-64520000D02*
X93505000Y-64520000D01*
X88799000Y-64480000D02*
X93505000Y-64480000D01*
X88809000Y-64440000D02*
X93505000Y-64440000D01*
X88819000Y-64400000D02*
X93505000Y-64400000D01*
X88830000Y-64360000D02*
X93505000Y-64360000D01*
X88841000Y-64320000D02*
X93505000Y-64320000D01*
X88852000Y-64280000D02*
X93505000Y-64280000D01*
X88863000Y-64240000D02*
X93505000Y-64240000D01*
X88875000Y-64200000D02*
X93505000Y-64200000D01*
X88887000Y-64160000D02*
X93505000Y-64160000D01*
X88899000Y-64120000D02*
X93505000Y-64120000D01*
X88911000Y-64080000D02*
X93505000Y-64080000D01*
X88924000Y-64040000D02*
X93505000Y-64040000D01*
X88937000Y-64000000D02*
X93505000Y-64000000D01*
X88950000Y-63960000D02*
X93505000Y-63960000D01*
X88964000Y-63920000D02*
X93505000Y-63920000D01*
X88978000Y-63880000D02*
X93505000Y-63880000D01*
X88992000Y-63840000D02*
X93505000Y-63840000D01*
X89007000Y-63800000D02*
X93505000Y-63800000D01*
X89022000Y-63760000D02*
X93505000Y-63760000D01*
X89037000Y-63720000D02*
X93505000Y-63720000D01*
X89053000Y-63680000D02*
X93505000Y-63680000D01*
X89068000Y-63640000D02*
X93505000Y-63640000D01*
X89084000Y-63600000D02*
X93505000Y-63600000D01*
X89101000Y-63560000D02*
X93505000Y-63560000D01*
X89118000Y-63520000D02*
X93505000Y-63520000D01*
X89135000Y-63480000D02*
X93505000Y-63480000D01*
X89152000Y-63440000D02*
X93505000Y-63440000D01*
X89170000Y-63400000D02*
X93505000Y-63400000D01*
X89188000Y-63360000D02*
X93505000Y-63360000D01*
X89206000Y-63320000D02*
X93505000Y-63320000D01*
X89225000Y-63280000D02*
X93505000Y-63280000D01*
X89244000Y-63240000D02*
X93505000Y-63240000D01*
X89263000Y-63200000D02*
X93505000Y-63200000D01*
X89283000Y-63160000D02*
X93505000Y-63160000D01*
X89303000Y-63120000D02*
X93505000Y-63120000D01*
X89324000Y-63080000D02*
X93505000Y-63080000D01*
X89344000Y-63040000D02*
X93505000Y-63040000D01*
X89366000Y-63000000D02*
X93505000Y-63000000D01*
X89387000Y-62960000D02*
X93505000Y-62960000D01*
X89409000Y-62920000D02*
X93505000Y-62920000D01*
X89431000Y-62880000D02*
X93505000Y-62880000D01*
X89454000Y-62840000D02*
X93505000Y-62840000D01*
X89477000Y-62800000D02*
X93505000Y-62800000D01*
X89501000Y-62760000D02*
X93505000Y-62760000D01*
X89524000Y-62720000D02*
X93505000Y-62720000D01*
X89549000Y-62680000D02*
X93505000Y-62680000D01*
X89573000Y-62640000D02*
X93505000Y-62640000D01*
X89598000Y-62600000D02*
X93505000Y-62600000D01*
X89624000Y-62560000D02*
X93505000Y-62560000D01*
X89650000Y-62520000D02*
X93505000Y-62520000D01*
X89676000Y-62480000D02*
X93505000Y-62480000D01*
X89703000Y-62440000D02*
X93505000Y-62440000D01*
X89730000Y-62400000D02*
X93505000Y-62400000D01*
X89757000Y-62360000D02*
X93505000Y-62360000D01*
X89786000Y-62320000D02*
X93505000Y-62320000D01*
X89814000Y-62280000D02*
X93505000Y-62280000D01*
X89843000Y-62240000D02*
X93505000Y-62240000D01*
X89873000Y-62200000D02*
X93505000Y-62200000D01*
X89903000Y-62160000D02*
X93505000Y-62160000D01*
X89933000Y-62120000D02*
X93505000Y-62120000D01*
X89964000Y-62080000D02*
X93505000Y-62080000D01*
X89995000Y-62040000D02*
X99895000Y-62040000D01*
X90027000Y-62000000D02*
X99863000Y-62000000D01*
X90060000Y-61960000D02*
X99830000Y-61960000D01*
X90093000Y-61920000D02*
X99797000Y-61920000D01*
X90127000Y-61880000D02*
X99763000Y-61880000D01*
X90161000Y-61840000D02*
X99729000Y-61840000D01*
X90196000Y-61800000D02*
X99694000Y-61800000D01*
X90231000Y-61760000D02*
X99659000Y-61760000D01*
X90267000Y-61720000D02*
X99623000Y-61720000D01*
X90304000Y-61680000D02*
X99586000Y-61680000D01*
X90341000Y-61640000D02*
X99549000Y-61640000D01*
X90379000Y-61600000D02*
X99511000Y-61600000D01*
X90417000Y-61560000D02*
X99473000Y-61560000D01*
X90457000Y-61520000D02*
X99433000Y-61520000D01*
X90497000Y-61480000D02*
X99393000Y-61480000D01*
X90537000Y-61440000D02*
X99353000Y-61440000D01*
X90579000Y-61400000D02*
X99311000Y-61400000D01*
X90621000Y-61360000D02*
X99269000Y-61360000D01*
X90664000Y-61320000D02*
X99226000Y-61320000D01*
X90707000Y-61280000D02*
X99183000Y-61280000D01*
X90745000Y-72192082D02*
X91995000Y-72192082D01*
X90752000Y-61240000D02*
X99138000Y-61240000D01*
X90797000Y-61200000D02*
X99093000Y-61200000D01*
X90844000Y-61160000D02*
X99046000Y-61160000D01*
X90891000Y-61120000D02*
X98999000Y-61120000D01*
X90939000Y-61080000D02*
X98951000Y-61080000D01*
X90988000Y-61040000D02*
X98902000Y-61040000D01*
X91038000Y-61000000D02*
X98852000Y-61000000D01*
X91089000Y-60960000D02*
X98801000Y-60960000D01*
X91142000Y-60920000D02*
X98748000Y-60920000D01*
X91195000Y-60880000D02*
X98695000Y-60880000D01*
X91250000Y-60840000D02*
X98640000Y-60840000D01*
X91306000Y-60800000D02*
X98584000Y-60800000D01*
X91363000Y-60760000D02*
X98527000Y-60760000D01*
X91370000Y-72817082D02*
X91370000Y-71567082D01*
X91422000Y-60720000D02*
X98468000Y-60720000D01*
X91482000Y-60680000D02*
X98408000Y-60680000D01*
X91543000Y-60640000D02*
X98347000Y-60640000D01*
X91606000Y-60600000D02*
X98284000Y-60600000D01*
X91671000Y-60560000D02*
X98219000Y-60560000D01*
X91737000Y-60520000D02*
X98153000Y-60520000D01*
X91806000Y-60480000D02*
X98084000Y-60480000D01*
X91876000Y-60440000D02*
X98014000Y-60440000D01*
X91949000Y-60400000D02*
X97941000Y-60400000D01*
X92024000Y-60360000D02*
X97866000Y-60360000D01*
X92102000Y-60320000D02*
X97788000Y-60320000D01*
X92182000Y-60280000D02*
X97708000Y-60280000D01*
X92265000Y-60240000D02*
X97625000Y-60240000D01*
X92351000Y-60200000D02*
X97539000Y-60200000D01*
X92441000Y-60160000D02*
X97449000Y-60160000D01*
X92535000Y-60120000D02*
X97355000Y-60120000D01*
X92633000Y-60080000D02*
X97257000Y-60080000D01*
X92737000Y-60040000D02*
X97153000Y-60040000D01*
X92846000Y-60000000D02*
X97044000Y-60000000D01*
X92961000Y-59960000D02*
X96929000Y-59960000D01*
X93085000Y-59920000D02*
X96805000Y-59920000D01*
X93218000Y-59880000D02*
X96672000Y-59880000D01*
X93363000Y-59840000D02*
X96527000Y-59840000D01*
X93523000Y-59800000D02*
X96367000Y-59800000D01*
X93705000Y-59760000D02*
X96185000Y-59760000D01*
X93918000Y-59720000D02*
X95972000Y-59720000D01*
X94188000Y-59680000D02*
X95702000Y-59680000D01*
X94628000Y-59640000D02*
X95262000Y-59640000D01*
X96385000Y-62080000D02*
X99926000Y-62080000D01*
X96385000Y-62120000D02*
X99957000Y-62120000D01*
X96385000Y-62160000D02*
X99987000Y-62160000D01*
X96385000Y-62200000D02*
X100017000Y-62200000D01*
X96385000Y-62240000D02*
X100047000Y-62240000D01*
X96385000Y-62280000D02*
X100076000Y-62280000D01*
X96385000Y-62320000D02*
X100104000Y-62320000D01*
X96385000Y-62360000D02*
X100133000Y-62360000D01*
X96385000Y-62400000D02*
X100160000Y-62400000D01*
X96385000Y-62440000D02*
X100187000Y-62440000D01*
X96385000Y-62480000D02*
X100214000Y-62480000D01*
X96385000Y-62520000D02*
X100240000Y-62520000D01*
X96385000Y-62560000D02*
X100266000Y-62560000D01*
X96385000Y-62600000D02*
X100292000Y-62600000D01*
X96385000Y-62640000D02*
X100317000Y-62640000D01*
X96385000Y-62680000D02*
X100341000Y-62680000D01*
X96385000Y-62720000D02*
X100366000Y-62720000D01*
X96385000Y-62760000D02*
X100389000Y-62760000D01*
X96385000Y-62800000D02*
X100413000Y-62800000D01*
X96385000Y-62840000D02*
X100436000Y-62840000D01*
X96385000Y-62880000D02*
X100459000Y-62880000D01*
X96385000Y-62920000D02*
X100481000Y-62920000D01*
X96385000Y-62960000D02*
X100503000Y-62960000D01*
X96385000Y-63000000D02*
X100524000Y-63000000D01*
X96385000Y-63040000D02*
X100546000Y-63040000D01*
X96385000Y-63080000D02*
X100566000Y-63080000D01*
X96385000Y-63120000D02*
X100587000Y-63120000D01*
X96385000Y-63160000D02*
X100607000Y-63160000D01*
X96385000Y-63200000D02*
X100627000Y-63200000D01*
X96385000Y-63240000D02*
X100646000Y-63240000D01*
X96385000Y-63280000D02*
X100665000Y-63280000D01*
X96385000Y-63320000D02*
X100684000Y-63320000D01*
X96385000Y-63360000D02*
X100702000Y-63360000D01*
X96385000Y-63400000D02*
X100720000Y-63400000D01*
X96385000Y-63440000D02*
X100738000Y-63440000D01*
X96385000Y-63480000D02*
X100755000Y-63480000D01*
X96385000Y-63520000D02*
X100772000Y-63520000D01*
X96385000Y-63560000D02*
X100789000Y-63560000D01*
X96385000Y-63600000D02*
X100806000Y-63600000D01*
X96385000Y-63640000D02*
X100822000Y-63640000D01*
X96385000Y-63680000D02*
X100837000Y-63680000D01*
X96385000Y-63720000D02*
X100853000Y-63720000D01*
X96385000Y-63760000D02*
X100868000Y-63760000D01*
X96385000Y-63800000D02*
X100883000Y-63800000D01*
X96385000Y-63840000D02*
X100898000Y-63840000D01*
X96385000Y-63880000D02*
X100912000Y-63880000D01*
X96385000Y-63920000D02*
X100926000Y-63920000D01*
X96385000Y-63960000D02*
X100940000Y-63960000D01*
X96385000Y-64000000D02*
X100953000Y-64000000D01*
X96385000Y-64040000D02*
X100966000Y-64040000D01*
X96385000Y-64080000D02*
X100979000Y-64080000D01*
X96385000Y-64120000D02*
X100991000Y-64120000D01*
X96385000Y-64160000D02*
X101003000Y-64160000D01*
X96385000Y-64200000D02*
X101015000Y-64200000D01*
X96385000Y-64240000D02*
X101027000Y-64240000D01*
X96385000Y-64280000D02*
X101038000Y-64280000D01*
X96385000Y-64320000D02*
X101049000Y-64320000D01*
X96385000Y-64360000D02*
X101060000Y-64360000D01*
X96385000Y-64400000D02*
X101071000Y-64400000D01*
X96385000Y-64440000D02*
X101081000Y-64440000D01*
X96385000Y-64480000D02*
X101091000Y-64480000D01*
X96385000Y-64520000D02*
X101101000Y-64520000D01*
X96385000Y-64560000D02*
X101110000Y-64560000D01*
X96385000Y-64600000D02*
X101119000Y-64600000D01*
X96385000Y-64640000D02*
X101128000Y-64640000D01*
X96385000Y-64680000D02*
X101137000Y-64680000D01*
X96385000Y-64720000D02*
X101145000Y-64720000D01*
X96385000Y-64760000D02*
X101153000Y-64760000D01*
X96385000Y-64800000D02*
X101161000Y-64800000D01*
X96385000Y-64840000D02*
X101168000Y-64840000D01*
X96385000Y-64880000D02*
X101176000Y-64880000D01*
X96385000Y-64920000D02*
X101183000Y-64920000D01*
X101315000Y-66000000D02*
G75*
G02*
X88575000Y-66000000I-6370000J0D01*
G01*
X88575000Y-66000000D02*
G75*
G02*
X101315000Y-66000000I6370000J0D01*
G01*
%TO.C,J1*%
D15*
X8045000Y-2500000D02*
X8045000Y-14500000D01*
X7095000Y-2500000D02*
X29035000Y-2500000D01*
X29035000Y-14500000D01*
X7095000Y-14500000D01*
X7095000Y-2500000D01*
%TO.C,J3*%
X65045000Y-2000000D02*
X65045000Y-14000000D01*
X64095000Y-2000000D02*
X86035000Y-2000000D01*
X86035000Y-14000000D01*
X64095000Y-14000000D01*
X64095000Y-2000000D01*
%TO.C,J203*%
D10*
X110155000Y-83280000D02*
X120895000Y-83280000D01*
X110155000Y-89500000D02*
X120895000Y-89500000D01*
X110155000Y-90600000D02*
X120895000Y-90600000D01*
X110155000Y-91120000D02*
X110155000Y-83280000D01*
X111725000Y-91120000D02*
X110155000Y-91120000D01*
X120895000Y-83280000D02*
X120895000Y-91120000D01*
X120895000Y-91120000D02*
X112325000Y-91120000D01*
X112025000Y-91120000D02*
X112465000Y-91730000D01*
X111585000Y-91730000D01*
X112025000Y-91120000D01*
G36*
X112465000Y-91730000D02*
G01*
X111585000Y-91730000D01*
X112025000Y-91120000D01*
X112465000Y-91730000D01*
G37*
%TO.C,CAN1*%
D15*
X43255000Y-58760000D02*
X57755000Y-58760000D01*
X57755000Y-74860000D01*
X43255000Y-74860000D01*
X43255000Y-58760000D01*
%TD*%
M02*
